<!DOCTYPE svg PUBLIC "-//W3C//DTD SVG 20010904//EN" "http://www.w3.org/TR/2001/REC-SVG-20010904/DTD/svg10.dtd">
<svg xmlns="http://www.w3.org/2000/svg" version="1.0" width="242.000000pt" height="821.000000pt" viewBox="0 0 242.000000 821.000000" preserveAspectRatio="xMidYMid meet">
<metadata>
Created by potrace 1.13, written by Peter Selinger 2001-2015
</metadata>
<g fill="#000000" stroke="none">
<path d="M99.8 35.1C88.8 36.0 84.0 37.7 74.6 44.3C71.3 46.7 66.3 49.9 63.6 51.5C53.8 57.1 50.7 60.9 45.1 74.5C37.0 94.1 36.9 95.2 36.3 131.0C35.8 164.9 35.8 165.1 41.4 185.3C42.8 190.1 44.4 198.5 45.0 203.8C45.6 209.1 47.3 218.4 48.7 224.5C51.0 234.2 51.4 238.5 52.0 261.0C52.4 278.0 53.2 289.3 54.3 295.0C55.2 299.7 56.4 310.9 56.9 320.0C57.7 334.0 58.3 337.9 60.9 346.0C66.5 363.7 66.5 363.2 66.5 401.0C66.5 435.3 66.6 437.0 69.3 451.2C71.2 461.4 72.0 469.3 72.0 476.7C72.0 488.9 74.4 501.0 78.4 508.8C84.5 520.7 96.2 526.0 105.8 521.1C110.4 518.8 112.4 516.6 117.5 508.5C119.7 505.0 123.4 499.7 125.7 496.8C128.4 493.3 130.5 489.3 131.5 485.5C133.2 478.9 134.9 455.2 135.0 436.8C135.0 423.7 136.2 413.1 139.0 402.0C140.0 397.9 141.8 389.2 143.0 382.6C144.6 373.5 146.3 367.8 150.5 357.9C157.3 342.1 159.6 332.2 160.4 316.0C160.9 307.4 162.0 299.8 164.0 291.5C166.1 283.1 167.4 273.9 168.4 260.8C169.5 247.7 170.8 238.4 172.9 229.8C174.6 222.7 176.3 211.8 177.0 204.0C177.6 196.6 179.0 186.0 180.1 180.5C181.2 175.0 182.6 162.6 183.2 153.0C184.3 135.7 184.3 135.3 181.1 113.5C176.7 83.5 176.1 82.1 158.3 54.8C153.6 47.7 133.7 36.6 123.8 35.5C113.9 34.5 109.0 34.4 99.8 35.1C99.8 35.1 99.8 35.1 99.8 35.1Z"/>
<path d="M80.9 601.8C70.1 606.2 56.7 618.0 53.0 626.3C51.0 630.8 49.4 637.6 46.0 655.7C46.0 655.7 43.9 666.9 43.9 666.9C43.9 666.9 46.5 677.6 46.5 677.6C47.9 683.5 49.9 690.2 51.0 692.6C54.7 701.0 69.7 713.3 81.6 717.6C89.4 720.5 106.0 722.4 116.9 721.7C124.6 721.2 126.3 720.7 134.7 716.4C148.5 709.3 154.0 703.9 160.0 691.6C169.4 672.1 170.8 664.0 167.0 650.1C162.9 635.4 156.5 625.6 146.9 619.4C136.7 612.8 120.5 605.3 111.5 603.0C99.7 600.0 86.7 599.5 80.9 601.8C80.9 601.8 80.9 601.8 80.9 601.8Z"/>
</g>
</svg>