<!DOCTYPE svg PUBLIC "-//W3C//DTD SVG 20010904//EN" "http://www.w3.org/TR/2001/REC-SVG-20010904/DTD/svg10.dtd">
<svg xmlns="http://www.w3.org/2000/svg" version="1.0" width="512.000000pt" height="404.000000pt" viewBox="0 0 512.000000 404.000000" preserveAspectRatio="xMidYMid meet">
<metadata>
Created by potrace 1.13, written by Peter Selinger 2001-2015
</metadata>
<g fill="#000000" stroke="none">
<path d="M102.5 46.8C99.8 47.9 91.9 50.8 85.1 53.3C76.6 56.4 71.8 58.8 69.5 61.0C65.0 65.4 56.6 81.8 53.6 92.4C49.9 105.0 50.1 111.0 54.5 119.6C56.5 123.4 59.2 129.3 60.5 132.8C63.6 140.7 66.8 145.2 77.6 157.0C94.4 175.3 96.2 179.8 96.4 203.0C96.5 221.5 96.6 221.1 88.4 231.5C81.7 240.1 78.0 248.3 78.0 254.8C78.0 261.3 78.8 262.9 85.4 270.0C88.2 273.0 92.6 278.3 95.3 281.8C100.8 289.1 103.5 290.4 110.9 289.6C117.8 289.0 121.0 286.6 123.2 280.6C124.2 278.1 127.5 272.1 130.5 267.3C138.8 254.2 138.9 253.7 135.5 236.0C132.3 219.1 132.5 211.3 136.0 203.2C138.7 197.3 141.1 194.7 147.5 191.1C150.4 189.5 153.9 186.8 155.3 185.0C158.1 181.7 158.6 180.2 161.7 164.0C164.2 151.1 167.3 144.4 174.4 136.1C181.0 128.5 182.4 124.7 181.5 117.5C180.8 111.4 178.8 109.1 171.5 106.0C168.8 104.8 165.5 102.9 164.2 101.7C161.5 99.2 158.0 88.4 158.0 82.5C158.0 76.3 157.5 75.6 150.2 70.0C146.5 67.3 142.5 63.6 141.2 61.8C140.0 60.0 137.6 56.6 136.0 54.3C131.7 48.2 126.4 45.8 116.0 45.3C109.3 45.0 106.4 45.3 102.5 46.8C102.5 46.8 102.5 46.8 102.5 46.8Z"/>
<path d="M179.4 81.7C177.8 82.9 176.0 86.6 176.0 88.8C176.0 89.9 177.0 92.0 178.2 93.5C180.1 95.9 180.8 96.2 184.9 95.7C190.1 95.1 194.2 91.4 193.3 88.1C192.3 84.3 182.2 79.7 179.4 81.7C179.4 81.7 179.4 81.7 179.4 81.7Z"/>
<path d="M291.3 126.2C286.5 131.4 287.8 140.7 293.9 144.3C300.6 148.2 306.0 144.9 306.0 137.0C306.0 127.1 296.8 120.3 291.3 126.2C291.3 126.2 291.3 126.2 291.3 126.2Z"/>
</g>
</svg>