<!DOCTYPE svg PUBLIC "-//W3C//DTD SVG 20010904//EN" "http://www.w3.org/TR/2001/REC-SVG-20010904/DTD/svg10.dtd">
<svg xmlns="http://www.w3.org/2000/svg" version="1.0" width="310.000000pt" height="1023.000000pt" viewBox="0 0 310.000000 1023.000000" preserveAspectRatio="xMidYMid meet">
<metadata>
Created by potrace 1.13, written by Peter Selinger 2001-2015
</metadata>
<g fill="#000000" stroke="none">
<path d="M258.2 38.9C249.3 43.2 243.7 47.3 234.0 56.5C229.3 60.9 223.8 65.8 221.8 67.4C219.8 68.9 215.6 73.6 212.4 77.8C209.2 82.0 204.1 88.4 200.9 92.0C197.8 95.6 193.1 101.9 190.5 106.0C187.9 110.1 182.9 116.6 179.5 120.5C170.2 131.0 166.2 136.6 162.0 145.1C159.8 149.3 155.2 156.3 151.7 160.4C148.2 164.6 143.2 171.8 140.5 176.3C137.8 180.8 132.6 189.0 128.9 194.5C125.2 200.0 120.4 208.1 118.2 212.5C116.0 216.9 111.5 224.3 108.1 228.8C104.8 233.4 101.3 239.3 100.4 241.8C95.9 254.0 91.6 263.7 86.5 272.8C79.1 286.1 73.5 299.2 71.0 309.3C69.8 313.8 66.5 324.9 63.5 334.0C60.6 343.1 57.4 354.1 56.5 358.5C55.6 362.9 53.1 373.9 51.0 383.0C48.1 395.2 46.7 404.3 45.5 418.0C44.2 433.0 43.0 440.1 39.2 455.5C39.2 455.5 34.5 474.5 34.5 474.5C34.5 474.5 34.5 494.0 34.5 494.0C34.6 509.9 35.0 515.9 36.9 526.4C38.8 536.7 39.1 541.6 38.8 550.4C37.9 570.5 40.1 584.3 47.9 606.0C49.5 610.7 53.6 626.2 57.0 640.5C62.5 663.9 63.7 667.8 69.0 679.1C73.3 688.1 76.3 696.5 79.5 708.6C87.7 738.9 89.1 743.4 93.4 753.5C95.8 759.0 99.0 767.4 100.5 772.3C102.1 777.5 105.8 785.2 109.5 791.6C113.0 797.4 117.2 806.2 119.0 811.2C123.4 823.8 129.8 836.1 136.5 844.9C142.6 853.0 146.9 860.8 150.7 870.8C152.0 874.3 154.0 879.0 155.2 881.3C158.9 888.7 170.2 904.3 177.4 912.1C182.4 917.3 185.9 922.4 189.0 928.6C192.4 935.4 194.9 938.9 199.8 943.5C203.3 946.8 209.3 953.4 213.1 958.1C223.1 970.7 239.8 981.4 255.2 985.4C261.9 987.1 265.3 986.5 271.2 982.3C277.6 978.0 280.2 972.4 280.7 962.2C281.7 944.6 274.7 927.9 259.3 910.7C256.2 907.3 250.9 900.2 247.5 895.0C244.1 889.8 239.1 883.1 236.4 880.1C230.6 873.7 221.5 861.4 212.3 847.5C208.7 842.0 202.7 833.9 199.0 829.5C190.6 819.5 187.5 813.9 181.1 797.7C178.3 790.7 173.6 780.1 170.6 774.2C164.2 761.4 163.7 759.6 161.1 742.0C158.8 726.7 157.5 722.5 149.5 705.0C141.9 688.6 139.6 681.4 136.0 664.3C133.1 650.5 130.4 641.5 126.3 632.0C122.3 623.0 120.9 614.1 119.5 589.7C118.4 571.0 117.5 563.1 115.6 555.0C113.3 545.4 113.0 542.6 113.0 521.5C113.0 496.8 114.0 483.1 117.1 462.5C118.2 455.2 119.5 439.8 120.0 427.5C120.9 404.9 121.0 404.4 127.4 381.5C128.1 378.7 129.9 369.7 131.4 361.5C136.4 333.0 137.1 329.4 140.7 316.0C142.7 308.6 145.7 299.6 147.3 296.0C148.9 292.4 152.9 281.7 156.1 272.2C162.1 254.5 169.5 238.7 179.7 221.9C182.8 216.7 187.3 208.0 189.7 202.5C192.1 197.0 197.5 187.4 201.7 181.2C206.0 175.0 214.0 162.5 219.5 153.5C229.8 136.7 235.8 129.4 257.0 108.1C273.9 91.1 283.8 79.1 286.1 73.1C289.2 65.1 289.9 50.6 287.5 45.6C284.8 39.8 279.1 36.6 271.1 36.2C265.4 35.9 263.6 36.3 258.2 38.9C258.2 38.9 258.2 38.9 258.2 38.9Z"/>
</g>
</svg>