<!DOCTYPE svg PUBLIC "-//W3C//DTD SVG 20010904//EN" "http://www.w3.org/TR/2001/REC-SVG-20010904/DTD/svg10.dtd">
<svg xmlns="http://www.w3.org/2000/svg" version="1.0" width="337.000000pt" height="1023.000000pt" viewBox="0 0 337.000000 1023.000000" preserveAspectRatio="xMidYMid meet">
<metadata>
Created by potrace 1.13, written by Peter Selinger 2001-2015
</metadata>
<g fill="#000000" stroke="none">
<path d="M62.2 41.9C52.4 45.3 46.8 53.8 48.5 62.7C49.3 67.1 57.6 84.5 64.9 97.0C81.6 125.7 88.2 135.7 97.7 146.4C100.1 149.1 107.3 159.0 113.7 168.4C120.1 177.8 127.5 188.3 130.0 191.6C132.6 195.0 138.6 205.8 143.4 215.6C148.1 225.5 154.8 238.9 158.2 245.5C161.6 252.1 165.6 260.6 167.2 264.5C169.9 270.8 177.1 297.8 180.0 312.2C180.6 315.4 183.3 323.5 186.0 330.2C188.7 337.0 192.0 347.3 193.4 353.1C194.8 358.9 197.9 370.2 200.4 378.1C206.2 397.0 206.9 401.4 207.5 421.5C207.8 430.8 208.7 443.4 209.5 449.5C211.3 463.4 213.5 529.4 212.7 544.3C212.3 550.5 210.9 560.9 209.4 567.5C207.4 577.1 206.7 583.8 206.0 601.5C205.4 617.7 204.7 626.0 203.1 633.0C202.0 638.2 200.1 650.1 199.0 659.5C197.6 671.8 195.9 680.3 193.1 690.0C190.9 697.5 188.4 707.2 187.6 711.5C185.6 721.1 183.8 726.9 179.5 737.5C174.0 751.0 163.1 774.1 158.5 782.0C156.1 786.1 152.7 794.2 151.0 800.0C149.2 805.8 146.3 813.4 144.5 817.0C138.1 829.9 126.9 848.4 120.6 856.4C117.1 860.9 112.2 868.7 109.6 873.8C103.8 885.4 100.9 888.5 82.9 903.1C59.9 921.7 48.9 934.3 44.0 947.8C38.6 962.8 39.0 974.2 45.4 980.6C51.2 986.4 59.5 987.4 70.4 983.5C82.1 979.4 87.4 975.2 93.8 964.7C97.4 958.8 102.6 952.4 108.1 947.0C112.8 942.3 118.8 935.7 121.5 932.3C124.1 928.8 127.8 924.9 129.6 923.5C131.4 922.1 135.1 918.0 137.7 914.3C140.3 910.7 145.9 903.9 150.1 899.4C155.0 894.1 159.0 888.7 161.1 884.3C166.2 873.7 170.0 868.2 178.6 858.9C196.3 839.7 207.8 823.1 221.5 796.5C225.4 788.8 230.8 778.6 233.4 773.8C236.6 767.9 239.0 761.4 241.0 753.6C242.6 747.2 245.2 739.0 246.8 735.2C248.4 731.5 252.0 723.3 254.8 716.9C257.6 710.5 261.7 699.3 264.1 691.9C266.4 684.5 270.2 673.8 272.5 668.0C278.0 654.5 279.6 648.5 281.5 632.5C282.3 625.3 284.4 612.7 286.1 604.5C288.0 595.2 289.9 580.8 291.1 566.5C292.2 553.8 293.5 538.5 294.0 532.5C295.8 511.8 294.7 490.3 290.5 467.5C289.7 463.1 288.6 452.7 288.0 444.5C285.2 405.7 285.2 405.4 276.6 379.5C270.3 360.4 264.7 345.6 258.1 330.2C249.6 310.4 245.7 297.7 239.1 268.2C231.7 235.3 195.1 159.9 173.8 133.4C170.7 129.6 166.0 122.9 163.4 118.5C156.5 107.2 146.4 92.7 141.6 87.2C139.3 84.6 135.2 79.8 132.6 76.5C126.5 68.9 103.6 47.4 99.0 45.0C88.9 39.8 72.4 38.4 62.2 41.9C62.2 41.9 62.2 41.9 62.2 41.9Z"/>
</g>
</svg>