<!DOCTYPE svg PUBLIC "-//W3C//DTD SVG 20010904//EN" "http://www.w3.org/TR/2001/REC-SVG-20010904/DTD/svg10.dtd">
<svg xmlns="http://www.w3.org/2000/svg" version="1.0" width="256.000000pt" height="431.000000pt" viewBox="0 0 256.000000 431.000000" preserveAspectRatio="xMidYMid meet">
<metadata>
Created by potrace 1.13, written by Peter Selinger 2001-2015
</metadata>
<g fill="#000000" stroke="none">
<path d="M110.3 43.0C101.7 45.3 100.9 45.6 89.8 53.2C74.1 63.9 62.5 78.7 57.3 94.7C54.3 103.9 53.1 122.7 54.9 132.5C57.3 145.4 67.5 160.9 79.4 169.7C82.7 172.2 92.0 177.4 100.0 181.3C111.8 187.0 115.6 189.4 120.1 194.0C128.7 202.6 130.5 206.6 130.4 217.5C130.4 225.2 129.8 228.1 126.7 237.4C120.4 255.7 114.2 266.3 93.3 293.9C91.5 296.3 83.8 305.0 76.3 313.3C59.6 331.4 52.7 340.3 48.4 349.5C37.4 372.6 45.0 395.0 63.9 395.0C70.9 395.0 84.5 389.8 92.8 384.0C108.4 373.1 134.4 346.6 150.6 325.1C157.8 315.6 173.6 292.0 179.2 282.3C194.4 256.3 211.2 210.0 215.6 182.0C217.9 167.2 217.9 134.9 215.5 121.6C209.4 87.0 190.7 59.4 165.7 48.0C151.0 41.3 125.4 39.0 110.3 43.0C110.3 43.0 110.3 43.0 110.3 43.0Z"/>
</g>
</svg>