<!DOCTYPE svg PUBLIC "-//W3C//DTD SVG 20010904//EN" "http://www.w3.org/TR/2001/REC-SVG-20010904/DTD/svg10.dtd">
<svg xmlns="http://www.w3.org/2000/svg" version="1.0" width="377.000000pt" height="189.000000pt" viewBox="0 0 377.000000 189.000000" preserveAspectRatio="xMidYMid meet">
<metadata>
Created by potrace 1.13, written by Peter Selinger 2001-2015
</metadata>
<g fill="#000000" stroke="none">
<path d="M123.5 51.7C82.4 56.6 67.4 59.3 61.5 63.0C54.9 67.2 49.4 76.8 48.1 86.7C46.4 98.5 48.8 105.0 57.9 114.0C64.7 120.6 75.7 126.4 85.5 128.6C90.6 129.7 103.6 130.3 132.5 131.0C154.5 131.6 179.9 132.7 189.0 133.6C201.4 134.8 211.0 135.0 228.0 134.5C273.4 133.2 280.3 131.8 290.3 121.9C297.1 115.1 299.4 110.3 301.0 99.9C303.8 81.0 296.7 66.8 280.5 58.8C268.5 52.8 256.8 52.0 185.6 51.6C153.1 51.5 125.2 51.5 123.5 51.7C123.5 51.7 123.5 51.7 123.5 51.7Z"/>
</g>
</svg>