<!DOCTYPE svg PUBLIC "-//W3C//DTD SVG 20010904//EN" "http://www.w3.org/TR/2001/REC-SVG-20010904/DTD/svg10.dtd">
<svg xmlns="http://www.w3.org/2000/svg" version="1.0" width="552.000000pt" height="808.000000pt" viewBox="0 0 552.000000 808.000000" preserveAspectRatio="xMidYMid meet">
<metadata>
Created by potrace 1.13, written by Peter Selinger 2001-2015
</metadata>
<g fill="#000000" stroke="none">
<path d="M258.8 40.4C237.0 44.3 203.9 60.6 179.5 79.5C170.9 86.2 137.1 120.3 130.3 129.2C128.0 132.1 123.1 139.9 119.3 146.5C115.5 153.1 110.0 162.1 107.2 166.6C102.2 174.3 89.0 201.4 83.0 216.5C81.4 220.3 78.3 227.5 76.0 232.5C70.8 243.7 58.1 277.5 54.6 289.6C50.9 302.1 48.3 316.9 46.5 335.5C44.0 361.4 42.9 370.0 40.9 379.8C38.3 392.8 36.7 411.0 37.5 420.5C38.5 433.0 42.9 456.4 46.5 468.5C48.4 474.5 51.7 486.7 53.9 495.5C56.1 504.3 60.6 518.7 63.9 527.5C67.1 536.3 70.9 547.3 72.1 552.0C73.5 557.1 77.4 566.4 81.9 575.0C85.9 583.0 91.6 595.3 94.4 602.5C105.0 629.0 132.8 670.3 153.1 689.5C162.1 697.9 179.5 710.3 191.1 716.4C199.1 720.6 223.9 729.1 238.0 732.5C247.4 734.7 267.6 735.5 279.8 734.1C301.1 731.6 324.8 724.6 344.5 715.0C368.2 703.4 384.5 689.2 412.1 656.4C426.6 639.1 449.8 603.5 459.5 583.5C473.5 554.7 481.6 534.6 487.5 514.1C495.9 484.9 498.8 465.2 501.0 424.5C501.5 414.0 502.4 399.9 503.0 393.0C504.5 373.8 504.2 357.3 502.0 336.5C499.4 312.3 500.1 315.7 491.4 279.7C485.9 257.2 482.6 245.4 478.9 236.2C476.1 229.2 472.2 219.0 470.3 213.5C463.6 194.4 453.7 174.6 434.2 141.0C422.0 120.1 417.3 114.1 397.1 93.7C373.1 69.4 363.0 61.6 342.6 51.5C321.1 41.0 315.9 39.8 288.5 39.4C273.2 39.2 264.1 39.5 258.8 40.4C258.8 40.4 258.8 40.4 258.8 40.4M289.2 93.1C292.1 93.7 297.8 95.7 301.8 97.6C322.8 107.2 333.7 121.0 339.5 145.3C343.7 162.8 351.0 198.9 353.1 212.5C354.2 219.6 356.2 231.6 357.7 239.0C359.9 250.6 360.3 255.2 360.4 271.0C360.4 281.9 359.9 292.0 359.1 295.5C358.3 299.4 357.6 319.0 357.1 352.5C356.2 401.5 355.0 454.6 353.0 535.0C352.5 555.6 351.5 577.2 350.9 583.0C347.9 613.2 337.5 645.5 327.1 657.2C317.4 668.1 296.9 680.5 284.5 683.1C276.0 684.8 256.0 684.6 247.9 682.7C229.8 678.4 216.5 667.0 207.8 648.5C200.8 633.5 198.9 621.4 195.5 568.5C194.6 555.3 193.5 540.4 193.0 535.5C192.5 530.5 191.8 495.9 191.5 458.5C191.2 421.1 190.4 381.9 189.8 371.5C188.1 341.8 188.5 318.3 192.0 244.0C192.6 232.7 193.7 219.4 194.4 214.5C195.2 209.5 196.4 201.0 197.0 195.5C200.2 166.3 204.9 148.0 213.6 130.1C219.2 118.6 221.2 115.6 226.8 110.0C234.7 102.2 246.4 95.9 257.5 93.6C266.0 91.8 282.0 91.6 289.2 93.1C289.2 93.1 289.2 93.1 289.2 93.1Z"/>
</g>
</svg>