<!DOCTYPE svg PUBLIC "-//W3C//DTD SVG 20010904//EN" "http://www.w3.org/TR/2001/REC-SVG-20010904/DTD/svg10.dtd">
<svg xmlns="http://www.w3.org/2000/svg" version="1.0" width="404.000000pt" height="781.000000pt" viewBox="0 0 404.000000 781.000000" preserveAspectRatio="xMidYMid meet">
<metadata>
Created by potrace 1.13, written by Peter Selinger 2001-2015
</metadata>
<g fill="#000000" stroke="none">
<path d="M193.5 39.2C186.4 41.8 177.9 49.4 174.4 56.1C171.1 62.6 170.0 72.4 169.0 102.5C168.4 119.0 167.6 135.6 167.0 139.5C166.4 143.3 165.6 158.2 165.0 172.5C164.0 201.9 163.3 207.1 157.9 229.5C155.8 238.3 153.4 249.7 152.5 254.7C149.4 273.0 137.0 313.0 130.5 326.0C128.7 329.6 125.1 338.9 122.5 346.5C120.0 354.2 115.6 364.7 112.8 370.0C110.0 375.2 104.1 386.4 99.8 394.9C95.6 403.3 89.8 413.2 87.1 416.9C84.4 420.5 80.8 426.4 79.0 430.0C74.6 438.8 67.7 449.4 62.1 455.9C52.2 467.6 42.9 480.7 41.0 485.8C38.6 492.2 38.5 498.5 40.6 505.9C42.8 513.8 46.6 518.9 52.5 521.9C61.2 526.4 77.6 525.0 86.1 519.0C90.0 516.2 102.3 499.8 112.2 484.2C121.3 469.8 124.2 466.4 132.3 460.8C142.7 453.7 151.8 452.0 155.9 456.4C157.1 457.7 159.1 461.6 160.2 465.1C162.1 470.7 162.4 474.5 162.8 495.0C163.2 520.4 161.6 566.5 159.9 577.0C159.3 580.6 158.8 590.5 158.9 599.0C158.9 616.3 157.8 623.1 152.6 636.4C150.8 641.0 147.6 647.3 145.5 650.5C140.2 658.4 134.8 662.5 111.7 676.1C104.3 680.4 96.2 688.3 93.9 693.5C88.8 704.7 94.3 715.7 108.8 722.9C111.2 724.1 120.7 726.7 129.8 728.7C139.0 730.6 148.6 732.6 151.1 733.2C154.7 734.0 157.4 733.8 163.1 732.6C168.4 731.4 179.6 730.6 202.0 729.9C235.9 728.8 244.2 729.4 254.8 733.2C262.7 736.1 283.3 736.8 296.2 734.7C301.3 733.8 310.0 732.6 315.5 732.0C339.5 729.4 350.0 726.2 355.7 719.7C359.5 715.3 360.4 711.3 359.8 701.5C359.4 696.0 358.7 693.1 356.7 689.7C353.2 683.9 345.0 676.4 335.9 671.0C323.1 663.3 312.4 650.8 305.7 635.5C302.3 627.5 301.0 621.6 300.9 612.3C300.6 592.8 303.2 487.0 304.5 465.0C305.3 451.5 306.0 424.7 306.1 405.5C306.1 386.2 306.6 366.4 307.0 361.5C307.8 353.8 310.4 269.2 310.2 259.0C309.6 226.9 310.2 144.7 311.1 135.8C312.4 122.1 312.3 82.0 310.9 73.0C309.0 61.3 303.7 51.9 296.0 47.0C293.4 45.3 287.5 43.0 282.9 41.8C275.3 39.9 272.7 39.8 255.0 40.3C244.3 40.6 231.5 40.4 226.5 39.9C209.4 38.3 196.6 38.0 193.5 39.2C193.5 39.2 193.5 39.2 193.5 39.2Z"/>
</g>
</svg>