<!DOCTYPE svg PUBLIC "-//W3C//DTD SVG 20010904//EN" "http://www.w3.org/TR/2001/REC-SVG-20010904/DTD/svg10.dtd">
<svg xmlns="http://www.w3.org/2000/svg" version="1.0" width="539.000000pt" height="767.000000pt" viewBox="0 0 539.000000 767.000000" preserveAspectRatio="xMidYMid meet">
<metadata>
Created by potrace 1.13, written by Peter Selinger 2001-2015
</metadata>
<g fill="#000000" stroke="none">
<path d="M211.3 39.0C198.4 40.4 171.9 47.6 155.6 54.1C133.4 62.9 107.7 81.9 90.7 102.0C68.6 128.2 72.4 122.3 58.1 152.6C51.7 166.0 49.4 172.3 47.1 182.1C40.1 211.3 39.3 226.7 43.5 253.3C47.0 276.0 53.4 293.3 63.8 308.8C65.9 311.9 69.5 317.6 71.7 321.5C78.1 332.5 87.0 343.0 95.1 349.1C106.7 358.0 126.0 368.6 143.5 375.7C172.2 387.4 174.2 388.0 185.8 388.0C224.4 388.1 269.1 363.1 288.4 330.8C299.2 312.8 305.2 288.5 305.2 264.0C305.1 247.5 303.7 238.5 298.5 220.7C292.3 199.6 283.7 184.9 275.1 180.3C269.4 177.3 262.7 177.3 258.0 180.1C251.9 183.9 250.1 187.2 243.0 207.5C232.6 237.6 224.0 250.8 208.1 261.2C198.6 267.4 193.0 269.0 179.5 269.7C170.3 270.2 167.0 269.9 160.0 268.1C135.4 262.0 119.9 246.9 112.1 221.7C108.4 209.6 106.7 198.0 106.7 185.5C106.7 170.2 108.3 164.1 116.2 148.6C121.9 137.6 123.3 135.6 133.0 126.0C147.4 111.6 153.7 107.1 166.7 102.1C186.8 94.2 193.1 92.8 206.5 92.7C221.7 92.6 230.3 94.5 248.0 101.7C272.4 111.6 279.0 115.8 295.9 132.3C307.9 143.9 313.7 152.3 323.8 172.5C336.7 198.4 338.7 208.9 337.4 242.5C336.9 254.6 336.6 272.4 336.7 282.0C337.0 336.4 336.9 348.6 336.1 359.8C335.3 371.2 335.0 372.6 331.1 380.6C326.9 389.4 317.0 405.2 304.7 422.8C300.9 428.1 295.7 436.2 293.2 440.8C290.7 445.3 286.2 452.1 283.3 455.8C280.4 459.5 275.4 466.0 272.3 470.4C269.1 474.7 264.6 480.6 262.2 483.4C245.7 503.3 233.8 519.6 229.5 528.1C227.6 531.7 222.8 539.1 218.8 544.6C209.9 556.5 208.9 558.2 205.0 568.6C200.5 580.7 184.6 600.8 173.9 608.1C170.7 610.3 165.5 615.2 162.4 619.1C159.3 623.0 153.4 628.6 149.2 631.8C135.1 642.1 100.6 674.1 93.9 683.0C88.3 690.4 85.5 697.6 86.3 702.5C87.3 708.9 93.2 714.3 100.9 716.1C105.2 717.1 121.6 715.1 134.0 712.1C150.3 708.1 174.9 706.4 249.0 704.0C265.8 703.4 281.0 702.7 282.8 702.4C289.7 701.3 323.8 701.9 334.5 703.4C340.6 704.2 352.5 705.4 361.2 706.0C369.8 706.6 383.7 708.2 392.2 709.7C420.8 714.6 440.2 712.8 448.5 704.4C452.6 700.4 455.7 691.5 457.1 679.6C458.3 670.0 456.8 621.5 455.0 610.4C452.0 591.8 445.5 583.0 435.1 583.0C428.0 583.0 413.3 585.7 405.4 588.3C389.5 593.8 371.7 594.2 334.9 590.0C319.3 588.2 316.9 587.7 306.7 583.5C300.6 581.0 294.3 577.8 292.8 576.3C287.2 570.9 286.6 560.8 291.4 550.5C294.9 542.9 294.9 542.8 311.5 529.5C337.5 508.5 356.1 487.6 367.6 466.5C371.6 459.0 384.3 445.2 400.5 430.7C411.4 420.9 418.0 413.1 425.2 401.9C432.7 390.4 450.3 354.7 453.5 344.7C468.6 297.3 471.9 286.1 473.0 278.5C474.8 266.7 474.6 227.8 472.6 218.7C470.7 210.0 464.8 192.4 459.8 180.5C454.0 166.9 440.4 145.4 432.5 137.5C419.3 124.4 405.1 112.1 395.8 105.9C390.7 102.5 383.5 96.9 379.8 93.4C368.0 82.3 339.5 64.9 324.0 59.1C305.5 52.3 271.4 42.4 259.5 40.5C248.7 38.7 221.3 37.8 211.3 39.0C211.3 39.0 211.3 39.0 211.3 39.0Z"/>
</g>
</svg>