<!DOCTYPE svg PUBLIC "-//W3C//DTD SVG 20010904//EN" "http://www.w3.org/TR/2001/REC-SVG-20010904/DTD/svg10.dtd">
<svg xmlns="http://www.w3.org/2000/svg" version="1.0" width="229.000000pt" height="202.000000pt" viewBox="0 0 229.000000 202.000000" preserveAspectRatio="xMidYMid meet">
<metadata>
Created by potrace 1.13, written by Peter Selinger 2001-2015
</metadata>
<g fill="#000000" stroke="none">
<path d="M108.4 45.1C93.3 47.6 76.1 56.8 64.5 68.4C55.3 77.6 51.1 85.2 47.8 98.2C46.0 105.4 45.8 108.4 46.3 122.0C46.9 139.0 48.3 145.6 53.2 155.8C57.3 164.1 62.6 169.9 70.5 174.9C82.4 182.5 95.4 186.0 110.7 186.0C126.3 186.0 139.1 182.4 150.7 174.8C164.8 165.6 179.8 147.8 183.6 135.6C186.1 127.8 186.5 114.2 184.5 101.0C182.6 87.9 180.4 81.3 174.7 71.7C162.7 51.4 135.7 40.5 108.4 45.1C108.4 45.1 108.4 45.1 108.4 45.1Z"/>
</g>
</svg>