<!DOCTYPE svg PUBLIC "-//W3C//DTD SVG 20010904//EN" "http://www.w3.org/TR/2001/REC-SVG-20010904/DTD/svg10.dtd">
<svg xmlns="http://www.w3.org/2000/svg" version="1.0" width="512.000000pt" height="767.000000pt" viewBox="0 0 512.000000 767.000000" preserveAspectRatio="xMidYMid meet">
<metadata>
Created by potrace 1.13, written by Peter Selinger 2001-2015
</metadata>
<g fill="#000000" stroke="none">
<path d="M91.7 43.0C82.8 45.3 75.4 51.3 70.9 60.1C67.8 66.3 65.2 80.3 63.9 98.0C61.5 131.1 63.3 205.6 67.1 229.5C68.7 239.1 71.4 246.1 75.1 249.6C77.9 252.3 78.7 252.5 85.3 252.5C91.2 252.5 93.1 252.1 95.8 250.2C99.8 247.3 103.1 241.0 106.3 229.9C109.7 218.2 112.0 214.1 118.4 208.3C131.9 196.0 152.2 192.8 194.5 196.6C204.6 197.5 217.1 198.0 223.0 197.7C236.5 197.1 276.3 199.5 285.7 201.6C294.1 203.4 301.1 207.7 305.3 213.6C313.6 225.4 307.3 236.4 274.8 266.5C265.3 275.3 253.3 286.8 248.0 292.0C241.6 298.5 229.4 308.4 210.4 322.5C184.9 341.5 175.3 348.6 155.1 363.7C151.6 366.4 146.0 370.5 142.6 373.0C135.9 378.0 130.6 385.0 128.9 391.3C126.8 399.1 131.1 406.9 139.6 411.1C143.5 412.9 145.3 413.2 150.9 412.7C160.1 411.9 168.3 408.4 179.8 400.2C185.1 396.4 192.7 391.6 196.5 389.5C200.4 387.4 207.3 383.6 212.0 380.9C235.0 367.8 258.3 365.5 275.2 374.7C280.3 377.5 290.6 388.5 296.6 397.4C306.7 412.7 319.1 455.2 321.0 481.1C324.8 534.5 324.1 549.3 315.9 588.4C307.2 629.9 296.6 650.8 275.7 667.5C265.7 675.5 255.2 681.1 243.5 684.5C236.3 686.7 231.7 687.3 220.5 687.7C203.1 688.3 194.1 686.7 186.4 681.6C171.6 671.8 168.1 654.5 175.0 626.0C179.5 607.4 180.1 593.8 177.0 581.5C171.7 560.4 168.0 553.1 156.8 541.9C145.3 530.5 135.1 526.8 114.5 526.6C92.2 526.4 81.5 531.1 66.7 547.5C48.5 567.7 41.9 584.5 41.8 610.5C41.8 621.3 42.1 623.5 44.8 631.7C46.5 636.8 51.2 646.9 55.2 654.1C61.9 666.3 63.6 668.6 75.3 680.6C86.3 692.0 89.3 694.5 96.3 698.1C100.8 700.4 108.1 704.7 112.5 707.5C137.2 723.7 153.4 727.3 208.3 728.5C223.1 728.8 238.8 729.5 243.3 730.0C254.0 731.3 273.3 731.2 284.3 730.0C296.3 728.6 329.7 719.6 339.5 715.0C367.9 701.9 385.8 689.8 406.3 669.6C412.8 663.2 418.6 658.0 419.0 658.0C420.6 658.0 443.5 632.3 446.8 626.7C454.9 613.2 465.3 586.8 468.9 570.4C471.7 557.8 475.0 530.1 475.0 519.1C475.0 502.1 469.6 469.2 464.4 454.9C463.0 451.0 459.1 442.8 455.8 436.7C452.5 430.5 447.5 421.0 444.8 415.5C435.7 397.2 428.0 386.8 412.1 371.2C403.5 362.7 394.3 354.7 389.5 351.6C378.5 344.4 356.3 331.2 346.0 325.9C341.0 323.3 335.4 319.4 332.3 316.4C325.8 309.9 322.4 300.5 323.3 290.6C323.9 282.9 335.2 255.9 342.0 245.7C346.9 238.4 370.0 213.0 387.6 195.5C407.5 175.6 438.3 135.4 453.5 109.4C465.5 88.8 468.1 82.0 468.3 71.0C468.4 60.2 465.9 56.1 456.7 52.0C449.2 48.7 444.0 48.6 424.9 51.4C408.5 53.8 390.1 55.1 348.0 56.6C339.4 57.0 323.5 56.5 308.8 55.6C291.8 54.5 269.0 54.0 235.5 54.0C207.4 54.0 182.8 53.5 177.2 52.9C168.2 51.9 149.4 48.4 132.5 44.5C124.2 42.6 97.2 41.6 91.7 43.0C91.7 43.0 91.7 43.0 91.7 43.0Z"/>
</g>
</svg>