<!DOCTYPE svg PUBLIC "-//W3C//DTD SVG 20010904//EN" "http://www.w3.org/TR/2001/REC-SVG-20010904/DTD/svg10.dtd">
<svg xmlns="http://www.w3.org/2000/svg" version="1.0" width="498.000000pt" height="767.000000pt" viewBox="0 0 498.000000 767.000000" preserveAspectRatio="xMidYMid meet">
<metadata>
Created by potrace 1.13, written by Peter Selinger 2001-2015
</metadata>
<g fill="#000000" stroke="none">
<path d="M348.5 41.9C326.2 42.7 320.1 43.9 308.6 49.7C286.1 61.0 280.9 68.0 270.2 100.6C266.3 112.7 261.5 128.5 259.5 135.8C257.5 143.1 253.9 153.9 251.4 159.8C248.9 165.7 244.2 177.5 241.0 186.0C237.8 194.5 232.9 206.6 230.0 212.9C227.2 219.1 223.5 227.6 221.9 231.8C220.2 235.9 215.4 246.8 211.1 255.9C206.8 265.0 201.4 277.2 199.2 283.0C190.5 305.2 189.0 308.9 183.2 322.2C179.9 329.7 174.6 339.8 171.4 344.7C168.3 349.5 164.0 357.5 161.9 362.3C159.8 367.2 155.9 374.6 153.2 378.8C147.0 388.5 144.1 394.2 140.0 405.4C138.1 410.3 133.7 419.0 130.2 424.8C126.7 430.6 122.0 439.0 119.8 443.3C117.6 447.7 112.1 457.2 107.6 464.4C103.0 471.6 97.4 481.2 95.1 485.8C92.8 490.3 87.1 499.2 82.5 505.5C77.8 511.8 72.4 519.5 70.4 522.7C68.4 525.9 63.3 532.8 59.0 538.0C43.9 556.7 40.5 563.8 41.2 574.7C41.8 584.4 46.4 589.2 58.9 593.1C70.6 596.7 80.3 597.5 94.9 596.0C109.9 594.5 124.2 595.0 143.5 597.9C150.7 598.9 165.5 600.3 176.5 601.0C187.5 601.6 199.5 602.6 203.2 603.1C217.8 605.1 226.7 610.6 231.6 620.6C234.0 625.5 234.2 626.8 233.7 634.3C232.9 648.4 229.7 654.4 208.5 681.5C195.5 698.1 194.1 716.0 205.2 724.3C218.7 734.4 234.0 736.5 291.0 736.1C376.0 735.5 415.3 731.0 424.7 720.9C429.4 715.8 430.3 707.5 427.1 700.3C426.0 698.0 421.3 692.0 416.6 687.0C399.8 669.1 392.8 657.7 390.5 644.4C387.2 625.9 390.0 615.4 400.2 608.0C406.6 603.3 412.8 601.9 431.3 601.0C450.2 600.0 456.1 598.7 463.1 593.5C471.4 587.5 471.3 581.2 462.7 572.6C456.3 566.1 450.5 563.4 432.0 558.0C415.0 553.0 407.5 549.5 400.8 543.2C390.4 533.5 387.8 524.9 387.6 499.5C387.5 479.7 390.4 395.4 392.5 357.0C394.3 326.3 394.4 307.0 393.0 301.8C392.4 299.8 390.5 296.0 388.7 293.3C384.8 287.4 376.9 283.2 363.8 280.0C354.9 277.8 350.2 275.0 347.9 270.8C343.0 261.7 346.0 237.9 353.4 226.2C354.8 223.9 360.2 214.1 365.4 204.3C370.6 194.5 377.1 182.3 379.9 177.1C382.7 171.9 387.9 160.9 391.5 152.6C395.1 144.3 400.8 132.5 404.0 126.5C414.5 107.2 417.0 101.7 419.6 91.5C423.3 77.0 423.8 66.9 421.1 60.0C418.3 52.6 412.2 46.6 404.5 43.8C397.5 41.3 381.7 40.8 348.5 41.9C348.5 41.9 348.5 41.9 348.5 41.9M237.1 423.5C245.2 431.4 249.4 451.1 249.4 482.5C249.5 495.1 249.0 505.2 248.1 509.8C245.5 524.1 236.5 537.2 225.5 542.5C218.7 545.8 208.2 546.8 187.5 545.9C155.9 544.6 140.7 538.3 135.4 524.5C133.8 520.1 133.8 519.4 135.1 515.6C135.9 513.3 140.2 506.4 144.5 500.1C151.1 490.7 155.3 486.2 168.9 473.6C188.9 455.3 187.4 456.8 204.0 438.6C211.4 430.4 218.9 422.9 220.5 421.8C225.0 418.9 233.1 419.7 237.1 423.5C237.1 423.5 237.1 423.5 237.1 423.5Z"/>
</g>
</svg>