<!DOCTYPE svg PUBLIC "-//W3C//DTD SVG 20010904//EN" "http://www.w3.org/TR/2001/REC-SVG-20010904/DTD/svg10.dtd">
<svg xmlns="http://www.w3.org/2000/svg" version="1.0" width="471.000000pt" height="754.000000pt" viewBox="0 0 471.000000 754.000000" preserveAspectRatio="xMidYMid meet">
<metadata>
Created by potrace 1.13, written by Peter Selinger 2001-2015
</metadata>
<g fill="#000000" stroke="none">
<path d="M67.3 40.0C56.3 42.3 50.3 49.1 48.0 61.9C46.8 68.6 47.2 75.1 49.6 91.0C51.6 104.2 53.4 110.5 59.2 125.5C67.7 147.6 69.0 154.1 70.1 180.5C73.1 257.6 73.0 303.9 69.9 341.5C69.3 349.2 68.7 369.7 68.6 387.0C68.5 415.5 68.7 419.1 70.4 424.3C72.6 430.9 78.3 438.0 83.4 440.4C88.0 442.6 95.2 442.4 99.9 440.0C107.4 436.2 111.3 429.9 121.0 406.0C124.9 396.5 129.8 385.3 132.0 381.1C137.2 371.1 147.3 357.8 155.4 350.2C175.8 331.1 193.4 323.0 215.0 322.7C226.7 322.6 233.1 324.0 243.9 329.3C255.0 334.7 269.8 348.9 275.2 359.5C282.5 373.8 284.7 383.3 286.0 406.8C286.6 416.5 287.7 430.5 288.5 437.8C290.2 453.3 290.5 489.9 289.0 513.5C285.5 570.2 285.3 571.9 281.1 589.9C272.7 625.1 269.7 631.2 252.5 648.6C241.5 659.7 236.8 662.6 223.2 666.1C212.2 669.0 187.1 669.8 177.6 667.6C163.6 664.3 153.6 657.0 150.0 647.2C146.6 638.2 147.6 632.0 155.3 614.5C167.1 588.0 165.1 562.4 149.6 540.7C137.3 523.4 121.2 514.9 101.1 514.9C87.5 514.9 77.2 520.6 61.9 536.7C53.4 545.6 50.9 550.7 44.5 571.5C40.1 585.7 39.1 597.6 41.0 612.6C42.8 627.6 45.5 636.2 53.1 651.9C59.0 664.1 61.1 667.3 66.3 672.5C69.7 675.9 75.0 680.3 78.0 682.2C110.9 703.4 116.2 706.4 132.0 712.3C143.6 716.6 148.3 717.5 172.0 719.7C216.6 724.0 251.7 720.6 288.5 708.5C304.5 703.3 330.1 690.9 339.5 684.0C343.4 681.1 351.5 675.4 357.6 671.4C370.3 663.0 381.2 652.2 393.5 635.8C399.5 628.0 403.9 620.3 412.1 603.5C421.6 584.2 423.5 579.6 427.1 566.0C429.4 557.5 431.9 548.2 432.7 545.5C433.5 542.7 434.6 532.2 435.2 522.0C436.2 505.4 436.1 500.9 434.1 478.0C431.3 445.7 430.1 439.2 423.6 421.2C416.2 400.7 412.9 393.1 405.9 380.6C397.1 364.6 394.1 360.5 381.9 347.1C363.1 326.4 347.7 314.7 312.7 294.7C298.0 286.2 290.2 283.1 272.5 278.5C254.0 273.8 245.3 273.6 231.9 277.9C226.7 279.6 216.9 282.5 210.0 284.5C203.1 286.5 192.1 289.7 185.5 291.6C171.8 295.6 148.0 300.0 140.5 300.0C123.9 300.0 116.5 290.1 116.8 268.4C117.0 249.3 121.4 235.6 129.1 230.0C135.2 225.6 139.2 224.6 148.4 225.3C158.1 226.1 161.9 227.1 196.0 238.8C240.0 254.0 243.3 254.4 261.9 248.0C268.3 245.8 280.3 242.7 288.5 241.1C306.5 237.5 316.3 234.5 333.1 227.5C347.1 221.7 356.5 216.5 365.6 209.6C374.9 202.6 401.3 176.1 405.5 169.6C410.3 162.2 417.3 146.3 419.0 139.1C422.1 125.8 417.9 99.2 410.3 84.8C406.0 76.5 393.5 63.2 385.9 58.8C368.4 48.6 344.2 47.7 326.3 56.5C307.6 65.8 292.9 88.6 293.0 108.5C293.1 120.7 298.6 130.8 313.9 147.3C325.3 159.6 329.4 165.9 331.1 173.6C332.8 181.0 331.7 185.0 326.4 190.9C316.5 202.0 298.0 206.5 279.3 202.6C260.2 198.5 248.0 193.0 235.0 182.3C218.6 168.9 210.0 159.6 205.2 150.0C200.0 139.6 198.3 132.6 192.6 99.7C188.6 76.2 187.9 73.4 184.8 68.3C183.0 65.3 179.6 61.1 177.2 59.0C169.4 52.0 169.0 51.9 134.9 49.1C128.4 48.5 115.0 46.3 104.9 44.0C85.7 39.7 74.3 38.5 67.3 40.0C67.3 40.0 67.3 40.0 67.3 40.0Z"/>
</g>
</svg>