<!DOCTYPE svg PUBLIC "-//W3C//DTD SVG 20010904//EN" "http://www.w3.org/TR/2001/REC-SVG-20010904/DTD/svg10.dtd">
<svg xmlns="http://www.w3.org/2000/svg" version="1.0" width="539.000000pt" height="781.000000pt" viewBox="0 0 539.000000 781.000000" preserveAspectRatio="xMidYMid meet">
<metadata>
Created by potrace 1.13, written by Peter Selinger 2001-2015
</metadata>
<g fill="#000000" stroke="none">
<path d="M286.5 35.6C274.4 38.8 262.0 46.9 262.0 51.8C262.0 55.7 268.8 68.5 272.2 71.0C276.0 73.8 299.6 85.6 308.9 89.4C312.5 90.8 316.4 92.7 317.8 93.6C323.2 97.2 325.7 109.9 322.5 117.6C321.7 119.6 318.7 123.7 316.0 126.7C306.2 137.4 303.6 145.9 303.8 166.0C303.9 183.5 305.2 193.8 307.9 199.4C309.4 202.4 313.7 207.1 320.6 213.4C328.8 220.8 333.5 224.2 342.7 229.0C349.2 232.5 356.1 235.5 358.1 235.7C362.1 236.3 375.1 233.0 380.8 230.1C382.8 229.0 386.9 226.1 389.9 223.5C392.9 221.0 398.8 216.6 403.1 213.9C411.9 208.3 413.4 206.2 422.9 187.5C431.4 170.8 433.4 162.2 432.7 146.5C431.8 127.6 429.2 120.5 417.2 103.2C409.0 91.4 405.7 88.2 395.0 82.1C388.8 78.6 385.1 75.6 381.5 71.3C374.7 63.1 369.2 59.6 356.4 55.0C350.4 52.9 340.7 48.9 334.8 46.0C329.0 43.2 319.7 39.8 314.3 38.4C304.8 36.0 290.6 34.6 286.5 35.6C286.5 35.6 286.5 35.6 286.5 35.6Z"/>
<path d="M195.0 78.6C183.6 81.0 177.1 85.0 167.3 95.5C162.5 100.6 156.1 106.7 153.2 109.0C149.8 111.6 145.8 116.3 142.4 121.7C139.3 126.4 135.2 132.1 133.2 134.3C131.1 136.6 128.7 139.4 127.7 140.6C126.8 141.7 124.5 147.0 122.6 152.4C120.7 157.7 117.1 165.4 114.7 169.3C107.6 180.8 105.5 185.5 100.5 202.5C95.3 219.9 93.8 223.5 89.0 229.5C83.9 235.9 80.7 243.3 74.5 262.5C71.4 272.4 67.1 285.1 65.0 290.7C62.4 297.6 60.6 304.6 59.5 312.2C57.7 325.5 56.3 330.5 52.1 338.8C49.7 343.6 48.5 348.0 47.0 358.6C45.9 366.1 44.1 375.7 43.1 379.9C38.0 399.9 36.7 409.2 37.4 419.8C38.2 434.0 40.5 448.6 44.6 466.7C46.5 475.1 48.0 483.6 48.0 485.6C48.0 487.6 49.3 495.2 50.9 502.4C52.6 509.7 54.4 520.5 55.0 526.4C57.1 546.9 60.2 561.4 64.2 569.5C65.3 571.7 68.8 577.8 72.0 583.0C75.4 588.5 79.3 596.8 81.4 602.7C85.8 615.6 86.6 617.1 93.4 625.0C96.4 628.6 101.5 636.2 104.7 642.0C107.9 647.8 112.7 655.2 115.5 658.5C118.2 661.8 122.4 667.1 124.7 670.2C127.1 673.3 131.1 677.6 133.7 679.7C136.3 681.8 142.4 687.2 147.2 691.8C155.4 699.6 157.1 700.7 173.6 708.6C183.3 713.3 193.5 718.8 196.4 720.9C202.9 725.8 206.6 727.7 212.5 729.0C215.3 729.6 232.8 730.1 255.4 730.2C298.8 730.4 297.8 730.5 307.8 721.7C314.9 715.4 317.0 714.4 330.3 711.6C348.0 707.7 357.0 703.7 365.6 695.8C367.9 693.7 373.8 689.8 378.6 687.2C386.3 683.0 388.1 681.5 391.9 676.0C394.4 672.6 399.6 666.2 403.6 661.9C409.4 655.7 411.9 652.0 415.9 643.5C419.3 636.3 422.9 630.6 427.0 625.9C434.4 617.3 436.3 613.7 439.0 603.1C441.9 591.8 444.5 585.1 450.1 574.5C454.8 565.7 456.1 561.5 459.5 546.0C460.4 541.9 463.2 534.1 465.7 528.8C470.1 519.2 470.2 518.7 471.6 502.3C472.4 493.0 474.1 478.0 475.4 468.8C478.4 447.8 478.1 446.1 468.5 427.0C464.5 419.0 460.2 409.9 459.0 406.6C457.7 403.4 453.6 396.6 449.9 391.6C446.1 386.5 442.1 379.8 440.9 376.5C437.4 367.0 431.2 355.3 427.6 351.2C425.8 349.2 422.2 344.3 419.7 340.5C414.4 332.4 412.6 330.9 399.3 323.8C393.9 321.0 386.4 316.5 382.5 314.0C368.1 304.4 362.7 301.8 341.9 293.9C318.1 284.9 312.7 283.7 301.9 285.2C295.2 286.1 283.4 286.7 241.4 288.6C225.2 289.3 219.1 288.4 210.0 283.8C202.0 279.9 199.4 275.9 197.5 264.9C195.2 252.2 195.6 247.7 199.6 235.9C204.5 221.3 206.9 208.1 208.0 189.5C208.7 177.7 209.7 170.7 211.6 163.5C216.7 144.1 220.1 92.2 216.9 83.0C214.8 77.2 207.9 75.8 195.0 78.6C195.0 78.6 195.0 78.6 195.0 78.6M267.2 330.4C289.5 334.2 313.1 341.9 318.8 347.3C324.0 352.1 328.5 364.3 330.1 377.8C330.8 383.8 332.4 389.5 335.9 398.3C343.2 416.4 344.3 424.7 344.8 467.2C345.2 505.2 344.7 510.8 340.0 524.8C336.5 535.2 334.2 551.0 333.0 573.8C332.1 591.1 330.8 597.5 326.4 606.3C325.0 608.9 323.1 615.4 322.0 620.8C318.4 639.0 306.9 656.4 293.9 663.5C288.7 666.3 288.6 666.3 275.6 665.7C262.5 665.0 244.1 661.7 236.8 658.7C233.1 657.1 221.5 648.5 212.3 640.5C203.7 632.9 200.7 624.8 197.0 599.2C195.8 591.1 193.9 580.2 192.7 575.0C190.8 566.4 190.6 561.7 190.2 523.9C189.9 486.2 190.1 480.5 192.0 463.9C193.2 453.8 194.5 435.8 195.0 424.0C195.9 399.5 198.2 387.9 204.9 373.5C208.7 365.5 220.2 349.6 228.9 340.7C233.5 335.9 247.3 328.0 251.0 328.0C252.0 328.0 259.3 329.1 267.2 330.4C267.2 330.4 267.2 330.4 267.2 330.4Z"/>
</g>
</svg>