<!DOCTYPE svg PUBLIC "-//W3C//DTD SVG 20010904//EN" "http://www.w3.org/TR/2001/REC-SVG-20010904/DTD/svg10.dtd">
<svg xmlns="http://www.w3.org/2000/svg" version="1.0" width="485.000000pt" height="808.000000pt" viewBox="0 0 485.000000 808.000000" preserveAspectRatio="xMidYMid meet">
<metadata>
Created by potrace 1.13, written by Peter Selinger 2001-2015
</metadata>
<g fill="#000000" stroke="none">
<path d="M410.2 46.6C403.9 49.1 396.5 51.5 393.7 52.0C386.1 53.4 363.5 54.8 329.5 56.0C307.1 56.8 296.7 57.6 288.5 59.1C282.5 60.3 272.3 61.4 266.0 61.6C255.1 62.0 250.3 62.9 238.0 66.5C231.8 68.4 217.5 68.0 202.2 65.5C197.4 64.7 185.6 63.4 176.0 62.5C166.4 61.7 154.0 60.2 148.5 59.2C140.8 57.9 133.0 57.5 114.5 57.6C93.2 57.7 89.6 57.9 82.7 59.8C78.4 61.0 73.5 62.9 71.8 64.1C68.4 66.6 63.2 74.4 60.6 80.9C59.6 83.4 57.6 87.0 56.0 89.0C50.0 96.6 42.1 119.3 40.0 135.0C38.6 145.1 39.3 152.5 42.4 162.3C44.4 168.3 44.8 171.7 44.8 182.5C44.8 189.6 44.2 200.0 43.3 205.5C42.2 212.8 41.8 222.9 41.9 242.5C42.1 283.7 43.4 290.3 53.1 300.0C59.0 305.9 63.9 307.6 70.2 305.9C78.2 303.8 86.2 296.6 89.5 288.7C91.6 283.5 94.0 266.1 94.0 255.4C94.0 245.2 95.4 238.0 98.5 232.0C105.6 218.0 115.5 214.0 143.0 214.0C155.2 214.0 157.7 213.7 169.5 210.5C176.7 208.6 187.2 206.6 193.0 206.0C205.6 204.8 258.8 205.4 275.0 206.9C281.6 207.5 293.4 207.7 302.5 207.3C314.0 206.9 319.6 207.1 322.3 207.9C326.5 209.3 336.4 217.9 338.5 222.1C341.8 228.4 339.1 255.3 334.4 264.1C332.9 266.7 328.6 271.9 324.8 275.6C317.1 283.1 313.9 288.6 312.1 297.0C310.7 303.7 305.6 311.4 299.6 316.0C297.1 317.8 293.1 321.9 290.6 325.1C288.0 328.4 284.1 332.0 281.3 333.6C267.0 341.6 265.7 342.6 262.2 347.8C258.1 353.9 251.8 372.3 249.5 384.8C244.3 412.6 244.2 413.2 238.9 423.9C229.4 443.2 225.3 452.4 223.4 458.5C221.8 463.6 220.3 465.7 213.9 472.0C205.8 480.2 200.3 488.8 196.8 499.2C195.3 503.6 193.2 507.0 189.8 510.6C183.8 516.9 182.8 519.4 179.6 535.5C177.3 546.7 175.9 550.6 169.6 564.0C160.2 583.7 158.5 588.6 156.1 601.8C153.7 614.7 152.1 619.4 147.4 627.1C145.5 630.3 142.5 636.6 140.9 641.1C135.9 654.8 125.8 672.6 121.4 675.5C116.3 678.8 114.6 684.9 114.2 701.3C113.6 720.9 114.5 728.3 117.5 731.2C118.8 732.4 124.0 734.9 129.2 736.7C129.2 736.7 138.5 740.0 138.5 740.0C138.5 740.0 162.5 739.4 162.5 739.4C201.7 738.6 213.6 737.2 240.1 730.5C258.7 725.8 265.2 721.5 271.0 710.0C272.3 707.4 275.0 696.7 277.6 684.2C281.3 665.9 282.7 661.2 287.0 651.3C289.9 644.9 292.8 636.5 293.6 632.2C295.3 623.1 296.9 595.7 297.0 574.4C297.0 574.4 297.0 559.4 297.0 559.4C297.0 559.4 304.9 535.4 304.9 535.4C309.3 522.3 314.5 507.9 316.5 503.6C320.8 494.1 323.3 485.4 326.0 469.5C327.1 462.9 329.4 452.8 331.0 447.0C332.6 441.2 335.1 429.5 336.5 421.0C339.8 401.1 341.8 394.6 348.0 383.5C357.4 366.7 358.0 364.8 363.1 339.9C365.8 326.8 368.6 314.5 369.4 312.6C370.2 310.7 373.6 305.0 376.9 299.9C383.7 289.7 385.3 285.3 387.5 270.0C390.6 248.4 393.4 240.2 401.9 227.8C407.9 218.9 409.8 214.1 411.0 204.0C415.4 169.8 414.9 172.0 419.6 162.5C422.8 155.7 424.6 150.4 426.4 141.0C429.4 125.9 431.8 118.7 436.4 111.2C446.1 95.1 452.0 78.6 452.3 67.0C452.4 61.5 452.0 59.7 449.6 55.2C446.3 49.3 442.0 45.6 435.9 43.5C428.6 40.9 422.6 41.6 410.2 46.6C410.2 46.6 410.2 46.6 410.2 46.6Z"/>
</g>
</svg>