<!DOCTYPE svg PUBLIC "-//W3C//DTD SVG 20010904//EN" "http://www.w3.org/TR/2001/REC-SVG-20010904/DTD/svg10.dtd">
<svg xmlns="http://www.w3.org/2000/svg" version="1.0" width="512.000000pt" height="767.000000pt" viewBox="0 0 512.000000 767.000000" preserveAspectRatio="xMidYMid meet">
<metadata>
Created by potrace 1.13, written by Peter Selinger 2001-2015
</metadata>
<g fill="#000000" stroke="none">
<path d="M240.0 41.5C218.8 45.8 206.0 50.0 190.5 57.7C185.0 60.5 176.7 64.0 172.0 65.5C157.7 70.2 152.9 73.2 139.4 85.8C117.5 106.2 99.6 129.5 95.5 143.0C95.1 144.4 92.3 150.7 89.4 157.0C82.4 172.2 78.8 190.1 75.5 226.0C74.7 235.1 73.5 246.3 73.0 251.0C72.4 255.7 72.2 261.7 72.6 264.5C73.6 272.5 78.8 287.9 83.5 296.5C88.1 305.1 91.0 311.9 95.4 324.3C97.4 329.7 100.4 335.1 105.7 342.3C114.3 353.9 118.8 362.5 121.9 372.5C128.1 392.4 124.1 409.9 110.8 421.2C107.3 424.1 100.9 430.1 96.5 434.5C92.0 438.9 85.9 444.9 82.7 447.9C79.6 450.9 74.1 457.6 70.6 462.9C67.0 468.2 62.5 474.7 60.6 477.5C56.8 482.9 42.5 517.7 39.0 530.0C37.6 534.9 36.7 541.7 36.4 549.5C35.9 560.7 36.1 562.8 39.8 580.5C43.8 599.8 48.1 613.1 55.0 627.5C58.1 634.0 61.9 639.0 74.3 653.2C82.8 662.9 91.6 673.2 93.8 676.2C99.1 683.2 102.1 686.0 117.5 697.6C135.3 711.0 147.8 716.9 170.8 722.6C180.3 725.0 188.9 727.0 189.9 727.0C191.8 727.0 223.8 735.9 230.9 738.4C235.9 740.2 248.7 740.5 263.6 739.1C269.1 738.6 279.6 737.6 287.0 737.0C314.5 734.7 326.4 732.4 348.7 724.9C370.2 717.7 373.8 715.9 386.1 705.9C389.8 702.9 398.3 696.7 405.1 692.1C413.9 686.1 421.2 680.0 430.1 671.1C441.2 660.0 443.2 657.5 446.8 650.0C449.0 645.3 452.1 637.8 453.5 633.2C455.1 628.1 458.1 622.0 461.1 617.5C470.6 603.3 479.5 581.4 483.6 562.0C485.1 555.0 485.4 549.1 485.3 529.5C485.3 529.5 485.1 505.5 485.1 505.5C485.1 505.5 480.1 486.0 480.1 486.0C472.2 455.3 465.6 438.8 454.3 421.7C451.6 417.6 441.6 406.4 430.8 395.3C411.6 375.7 405.7 368.0 402.0 358.1C398.3 348.3 397.8 343.1 399.5 334.4C402.5 320.0 406.0 314.5 423.8 296.0C433.4 286.0 441.1 276.9 443.3 273.2C447.5 266.1 456.9 245.0 459.3 237.5C463.7 223.9 465.1 185.4 461.7 173.0C460.2 167.5 453.8 153.1 441.2 127.2C438.8 122.2 428.6 110.7 410.0 91.9C405.9 87.8 399.8 81.5 396.4 77.9C392.2 73.4 388.5 70.6 384.0 68.5C380.5 66.8 370.0 61.6 360.6 56.9C342.3 47.8 336.7 46.1 318.0 44.0C279.8 39.9 252.5 39.0 240.0 41.5C240.0 41.5 240.0 41.5 240.0 41.5M292.5 86.5C303.2 88.5 308.7 91.3 322.7 101.9C335.6 111.6 335.7 111.7 349.3 133.4C359.1 148.9 361.4 159.1 361.3 187.5C361.2 211.0 360.7 214.3 352.0 242.5C343.7 269.5 340.0 276.8 328.6 288.7C318.4 299.5 314.1 302.1 305.5 302.7C298.4 303.3 290.8 301.0 272.8 293.0C262.2 288.3 257.1 285.1 242.2 274.0C238.8 271.5 232.2 267.3 227.5 264.5C208.7 253.8 186.2 227.3 176.9 205.2C167.3 182.1 169.2 160.1 183.8 129.0C189.6 116.6 192.7 112.9 206.3 102.8C220.0 92.7 229.9 87.5 238.0 86.1C247.4 84.6 283.8 84.8 292.5 86.5C292.5 86.5 292.5 86.5 292.5 86.5M234.8 439.5C245.0 441.6 249.3 443.4 264.5 451.7C282.7 461.6 292.9 468.3 301.6 476.1C305.5 479.6 310.8 484.2 313.3 486.2C318.2 490.3 333.9 509.4 341.0 520.0C343.4 523.6 348.0 529.9 351.3 534.0C354.6 538.1 357.9 543.0 358.7 544.9C361.4 551.2 364.0 571.4 365.7 597.0C366.4 609.0 364.3 618.1 357.8 631.0C346.8 652.9 336.0 665.1 316.5 677.9C296.0 691.5 287.7 692.9 250.0 689.0C196.1 683.5 189.6 680.8 171.2 656.8C156.1 637.0 149.7 615.0 148.3 577.5C147.7 562.5 149.3 525.7 151.1 512.5C152.4 502.7 159.6 488.0 175.3 463.2C182.2 452.3 193.8 442.6 204.5 438.7C210.2 436.7 223.0 437.0 234.8 439.5C234.8 439.5 234.8 439.5 234.8 439.5Z"/>
</g>
</svg>