<!DOCTYPE svg PUBLIC "-//W3C//DTD SVG 20010904//EN" "http://www.w3.org/TR/2001/REC-SVG-20010904/DTD/svg10.dtd">
<svg xmlns="http://www.w3.org/2000/svg" version="1.0" width="512.000000pt" height="767.000000pt" viewBox="0 0 512.000000 767.000000" preserveAspectRatio="xMidYMid meet">
<metadata>
Created by potrace 1.13, written by Peter Selinger 2001-2015
</metadata>
<g fill="#000000" stroke="none">
<path d="M219.4 38.0C210.2 38.6 206.2 39.5 196.9 42.8C171.1 51.8 164.7 54.9 142.7 68.7C140.6 70.0 136.9 73.6 134.5 76.8C132.0 79.9 127.5 84.5 124.5 87.0C121.4 89.5 116.4 94.5 113.3 98.2C110.3 102.0 105.2 107.2 102.1 109.9C98.3 113.2 94.3 118.4 89.5 126.1C85.7 132.3 80.1 140.4 77.1 144.0C70.8 151.7 70.8 151.7 63.1 173.0C45.2 222.9 44.7 224.4 43.1 240.9C42.5 246.6 41.3 254.0 40.4 257.4C38.1 266.3 38.4 278.4 41.3 293.0C42.7 299.9 44.6 311.5 45.4 318.7C48.2 341.8 51.3 351.5 64.3 378.0C75.7 401.5 75.8 401.5 85.3 411.5C98.4 425.3 101.8 428.7 115.0 440.9C125.7 450.7 127.3 451.8 137.0 455.9C142.8 458.4 152.7 462.7 159.1 465.6C181.9 476.0 190.2 476.9 215.1 471.9C228.9 469.1 231.5 468.9 240.0 469.6C251.8 470.6 260.8 470.6 273.0 469.6C289.7 468.2 300.9 471.7 306.7 480.3C310.9 486.6 312.1 492.9 312.2 510.6C312.2 527.5 310.7 537.6 306.0 551.5C302.7 561.0 297.7 583.7 293.6 607.5C289.5 630.4 286.0 637.6 274.8 645.1C271.3 647.4 266.1 651.3 263.1 653.7C255.5 659.8 250.6 662.5 242.2 665.0C235.9 666.9 233.1 667.2 223.7 666.8C211.3 666.3 207.6 665.0 204.0 660.0C198.5 652.3 199.8 642.8 208.6 625.3C213.1 616.2 214.3 612.8 214.7 607.8C215.5 597.5 213.0 588.7 204.3 571.2C190.0 542.5 180.3 535.6 152.0 534.3C152.0 534.3 139.5 533.8 139.5 533.8C139.5 533.8 129.9 538.7 129.9 538.7C120.1 543.7 101.2 558.3 96.5 564.4C92.8 569.3 81.1 595.2 80.0 601.0C78.7 608.0 79.8 612.7 88.1 636.3C97.8 663.7 99.8 667.4 109.7 678.0C120.7 689.7 128.2 695.2 138.3 698.9C151.0 703.7 155.9 706.3 163.5 712.4C174.7 721.5 183.3 723.5 220.7 726.1C251.1 728.2 266.8 725.2 284.0 714.1C289.8 710.3 298.3 705.2 303.0 702.7C314.3 696.6 318.6 693.4 332.4 681.0C340.6 673.7 346.5 667.3 351.8 660.1C356.0 654.3 362.4 646.3 366.0 642.2C369.7 638.2 374.6 631.6 377.0 627.7C379.3 623.8 382.9 618.5 385.0 616.0C389.8 610.3 394.8 601.0 399.5 589.4C401.9 583.3 404.7 578.3 408.0 574.4C415.8 565.1 418.1 560.5 421.1 549.0C424.2 536.8 425.2 534.6 432.3 524.0C438.9 514.3 440.4 508.9 443.5 485.3C446.2 464.7 448.1 456.3 453.1 444.6C457.0 435.5 462.8 412.2 464.5 399.0C466.7 382.3 467.3 362.5 466.0 353.5C465.4 349.1 464.5 327.7 464.0 306.0C463.4 272.5 462.9 264.8 461.2 255.1C458.4 240.2 456.7 234.3 452.0 224.0C448.3 216.0 445.6 207.0 441.5 189.0C439.7 181.3 436.9 175.1 430.1 164.2C426.1 157.7 422.5 149.6 417.6 136.0C415.9 131.1 413.0 125.8 409.4 121.2C406.4 117.2 401.8 110.5 399.3 106.2C388.9 89.1 360.1 65.4 340.6 58.1C335.8 56.3 328.8 52.8 325.2 50.3C315.9 44.1 312.0 42.2 303.2 39.8C296.2 37.9 292.4 37.7 263.0 37.4C245.1 37.3 225.5 37.6 219.4 38.0C219.4 38.0 219.4 38.0 219.4 38.0M266.4 90.5C281.2 93.1 286.8 96.8 300.6 113.2C309.2 123.5 310.5 126.0 311.4 134.5C311.8 137.8 314.1 149.5 316.5 160.5C319.0 171.5 321.4 185.4 322.0 191.5C323.4 207.3 323.2 238.4 321.5 253.5C320.5 262.3 320.0 277.4 320.0 300.5C320.0 319.2 319.5 338.7 319.0 343.9C317.6 357.2 310.4 378.4 303.8 388.7C301.1 393.0 297.0 400.1 294.8 404.5C291.4 411.2 289.0 414.3 279.2 423.8C272.7 430.1 265.3 436.7 262.5 438.6C255.6 443.2 246.5 445.4 237.7 444.5C223.3 443.1 212.6 438.1 205.2 429.4C197.5 420.2 188.2 408.1 183.8 401.3C175.8 389.1 175.8 389.0 174.9 356.5C174.0 323.0 172.5 291.7 170.9 274.5C168.7 251.6 170.2 213.8 174.0 192.0C174.6 189.0 175.7 181.4 176.5 175.2C178.7 158.4 180.1 154.6 189.9 139.6C194.7 132.3 200.9 122.3 203.6 117.4C210.3 105.5 216.3 99.6 227.8 93.7C227.8 93.7 237.1 89.0 237.1 89.0C237.1 89.0 247.4 89.0 247.4 89.0C253.1 89.0 261.6 89.7 266.4 90.5C266.4 90.5 266.4 90.5 266.4 90.5Z"/>
</g>
</svg>