<!DOCTYPE svg PUBLIC "-//W3C//DTD SVG 20010904//EN" "http://www.w3.org/TR/2001/REC-SVG-20010904/DTD/svg10.dtd">
<svg xmlns="http://www.w3.org/2000/svg" version="1.0" width="229.000000pt" height="525.000000pt" viewBox="0 0 229.000000 525.000000" preserveAspectRatio="xMidYMid meet">
<metadata>
Created by potrace 1.13, written by Peter Selinger 2001-2015
</metadata>
<g fill="#000000" stroke="none">
<path d="M114.0 37.7C102.4 39.8 96.8 42.0 86.4 48.9C79.7 53.3 74.8 57.7 67.3 66.1C51.0 84.2 47.6 93.5 47.7 120.5C47.7 144.2 50.9 160.6 57.3 170.1C60.0 174.1 75.8 188.2 82.0 192.2C88.4 196.3 94.3 197.7 113.5 199.9C133.2 202.2 139.6 201.7 154.9 196.8C166.4 193.2 167.6 192.4 179.4 182.1C189.8 173.0 192.6 169.5 196.6 160.5C204.8 141.9 205.3 123.2 198.3 95.0C196.5 87.6 194.4 83.0 187.0 71.0C180.7 60.7 174.8 54.4 165.3 48.0C157.1 42.5 150.5 39.8 139.7 37.6C130.5 35.7 125.2 35.7 114.0 37.7C114.0 37.7 114.0 37.7 114.0 37.7Z"/>
<path d="M111.8 331.5C105.2 332.6 99.9 334.4 89.8 339.0C70.9 347.7 60.7 353.5 57.2 357.4C53.2 361.9 48.9 371.0 44.4 384.6C41.1 394.3 40.7 396.6 40.8 405.0C41.0 429.8 54.0 455.9 70.2 464.1C76.7 467.4 93.4 472.4 103.0 473.9C111.2 475.3 124.0 475.3 135.0 474.0C144.0 473.0 163.9 467.2 167.7 464.5C168.9 463.6 172.1 460.1 174.7 456.7C177.3 453.3 181.6 448.0 184.3 445.0C193.0 435.2 196.4 426.1 197.5 409.8C198.4 397.6 196.7 384.3 193.6 377.4C190.1 369.7 179.9 356.0 173.7 350.5C168.0 345.4 152.7 337.6 140.7 333.5C130.9 330.2 122.9 329.7 111.8 331.5C111.8 331.5 111.8 331.5 111.8 331.5Z"/>
</g>
</svg>