<!DOCTYPE svg PUBLIC "-//W3C//DTD SVG 20010904//EN" "http://www.w3.org/TR/2001/REC-SVG-20010904/DTD/svg10.dtd">
<svg xmlns="http://www.w3.org/2000/svg" version="1.0" width="256.000000pt" height="700.000000pt" viewBox="0 0 256.000000 700.000000" preserveAspectRatio="xMidYMid meet">
<metadata>
Created by potrace 1.13, written by Peter Selinger 2001-2015
</metadata>
<g fill="#000000" stroke="none">
<path d="M127.9 40.4C110.4 44.1 100.3 49.6 89.6 61.1C82.2 69.1 78.0 76.7 75.1 87.1C66.9 116.7 73.1 141.8 93.4 160.8C105.2 171.8 127.7 181.0 142.5 181.0C152.3 180.9 156.9 179.7 169.0 173.8C178.1 169.4 180.5 167.6 188.0 160.1C197.7 150.2 203.0 141.8 206.5 130.9C213.4 108.9 211.6 88.8 200.9 70.7C195.6 61.7 185.2 51.1 178.1 47.5C165.2 41.0 141.3 37.6 127.9 40.4C127.9 40.4 127.9 40.4 127.9 40.4Z"/>
<path d="M116.7 317.0C102.2 319.6 85.5 329.3 71.9 343.0C58.7 356.3 53.4 370.0 52.3 393.8C51.3 414.3 54.4 423.0 67.2 436.5C76.9 446.8 84.9 452.9 95.5 458.2C105.5 463.3 116.4 470.2 119.7 473.8C121.1 475.3 123.6 479.2 125.1 482.5C131.8 496.4 127.0 516.1 110.2 544.0C103.8 554.6 90.1 572.9 80.6 583.6C54.6 612.7 47.9 621.8 42.9 634.8C39.8 643.0 39.7 654.8 42.8 661.5C46.1 668.8 51.4 673.8 57.7 675.6C62.4 677.0 63.6 677.0 68.9 675.6C76.3 673.7 87.5 668.1 95.5 662.4C102.7 657.3 128.1 631.7 137.1 620.5C146.2 609.3 157.9 593.1 170.0 575.0C180.8 559.0 184.8 551.7 190.1 539.2C191.7 535.1 196.3 525.1 200.1 516.9C208.9 498.1 213.4 484.3 216.7 466.0C222.3 435.5 219.3 394.2 209.9 372.3C206.9 365.3 196.0 349.4 189.7 342.8C180.7 333.5 165.7 324.9 147.8 319.0C140.6 316.6 124.4 315.6 116.7 317.0C116.7 317.0 116.7 317.0 116.7 317.0Z"/>
</g>
</svg>