<!DOCTYPE svg PUBLIC "-//W3C//DTD SVG 20010904//EN" "http://www.w3.org/TR/2001/REC-SVG-20010904/DTD/svg10.dtd">
<svg xmlns="http://www.w3.org/2000/svg" version="1.0" width="485.000000pt" height="579.000000pt" viewBox="0 0 485.000000 579.000000" preserveAspectRatio="xMidYMid meet">
<metadata>
Created by potrace 1.13, written by Peter Selinger 2001-2015
</metadata>
<g fill="#000000" stroke="none">
<path d="M198.0 40.7C174.4 42.9 163.2 45.5 144.0 53.1C109.8 66.5 80.7 96.2 72.9 125.6C70.2 135.7 70.0 151.6 72.4 161.4C76.4 177.9 90.0 194.9 105.0 202.2C127.0 212.8 144.0 213.6 161.9 204.8C169.9 200.9 175.6 195.8 180.8 187.7C188.5 175.9 191.2 161.4 190.2 138.0C189.4 118.8 191.9 108.4 199.1 101.2C204.8 95.4 207.4 94.5 218.5 94.5C227.2 94.5 229.2 94.8 234.0 97.1C253.5 106.3 266.8 128.8 272.2 161.5C273.0 166.4 273.4 177.7 273.4 190.5C273.4 210.0 273.2 212.1 270.9 219.7C267.7 230.0 263.1 237.7 255.5 245.5C248.3 252.8 241.5 256.9 229.5 260.9C217.1 265.0 206.6 266.7 184.4 268.0C152.4 269.8 137.3 273.2 116.5 282.9C83.9 298.2 58.5 324.2 46.0 354.9C36.3 378.7 36.0 400.8 45.1 429.0C55.2 460.2 77.4 485.6 108.5 501.2C120.9 507.5 129.0 510.3 144.4 513.6C159.0 516.7 176.8 517.7 189.5 516.1C206.7 513.9 220.1 509.6 240.1 499.9C272.5 484.3 278.1 484.3 311.1 500.6C331.5 510.7 349.6 518.2 360.6 521.1C371.5 524.1 397.5 524.9 407.3 522.6C424.8 518.5 435.0 507.7 435.0 493.2C435.0 482.8 432.0 477.8 416.6 462.5C399.5 445.4 394.4 436.7 392.0 420.3C390.9 412.4 390.9 359.2 392.0 338.0C392.4 330.0 393.3 301.9 394.0 275.5C395.5 222.4 395.0 210.9 390.5 186.4C386.4 164.2 376.8 137.7 367.0 121.5C353.8 99.7 339.8 85.2 317.3 70.3C289.8 52.1 270.1 45.2 234.8 41.5C221.4 40.1 207.0 39.8 198.0 40.7C198.0 40.7 198.0 40.7 198.0 40.7M242.5 307.1C253.7 311.3 262.4 322.7 264.9 336.4C266.5 345.1 266.3 368.3 264.5 378.6C262.5 390.1 257.7 409.0 255.1 416.1C248.4 433.9 234.9 447.2 218.7 452.2C208.8 455.2 196.6 454.5 188.4 450.5C177.8 445.3 169.0 433.5 164.3 418.5C161.6 409.6 161.7 372.7 164.4 362.5C168.5 347.2 175.2 334.8 184.9 324.7C201.8 306.9 223.9 300.1 242.5 307.1C242.5 307.1 242.5 307.1 242.5 307.1Z"/>
</g>
</svg>