<!DOCTYPE svg PUBLIC "-//W3C//DTD SVG 20010904//EN" "http://www.w3.org/TR/2001/REC-SVG-20010904/DTD/svg10.dtd">
<svg xmlns="http://www.w3.org/2000/svg" version="1.0" width="660.000000pt" height="754.000000pt" viewBox="0 0 660.000000 754.000000" preserveAspectRatio="xMidYMid meet">
<metadata>
Created by potrace 1.13, written by Peter Selinger 2001-2015
</metadata>
<g fill="#000000" stroke="none">
<path d="M356.9 48.0C346.5 53.5 338.1 68.5 330.0 96.0C326.2 108.8 323.7 115.5 320.5 121.0C315.0 130.4 311.0 140.0 308.1 151.0C304.6 163.7 301.3 172.4 295.4 184.0C290.6 193.6 289.8 195.8 287.5 209.3C284.3 228.0 280.9 237.0 272.2 249.2C265.2 259.0 264.3 260.7 259.0 274.5C257.3 278.9 253.5 287.0 250.6 292.5C247.7 298.0 243.6 307.7 241.4 314.0C239.3 320.3 235.7 329.1 233.4 333.5C231.1 337.9 226.8 346.3 223.7 352.2C216.4 366.3 212.7 381.1 212.6 396.0C212.5 404.9 212.9 407.9 215.4 415.7C215.4 415.7 218.3 424.9 218.3 424.9C218.3 424.9 212.7 432.2 212.7 432.2C206.1 440.9 195.1 463.3 192.0 474.5C190.8 478.9 187.1 487.7 183.9 494.0C179.8 502.1 177.1 509.1 174.9 517.5C171.3 531.4 170.5 533.2 164.8 539.7C157.7 547.9 155.7 553.6 154.9 568.0C154.0 583.5 151.8 594.0 147.4 604.8C144.6 611.6 144.0 614.3 144.0 620.3C144.0 626.7 143.6 628.2 140.9 632.4C135.4 641.2 99.2 675.3 91.7 678.8C89.1 680.0 83.0 681.4 77.8 682.1C58.3 684.4 53.7 686.1 50.0 692.2C44.4 701.5 52.4 715.8 65.2 719.4C75.1 722.2 86.5 723.2 95.9 722.1C114.5 719.8 126.0 719.7 139.5 721.5C153.3 723.4 161.2 723.2 180.9 720.4C193.8 718.6 194.6 718.4 199.2 715.3C203.2 712.6 206.0 707.7 206.0 703.5C206.0 700.1 199.9 685.8 196.6 681.5C194.9 679.2 190.3 676.4 181.6 672.1C167.2 665.1 165.8 663.6 159.9 650.0C153.2 634.5 153.1 632.5 158.8 617.0C159.9 614.0 161.8 608.4 162.9 604.7C164.1 600.9 166.9 595.1 169.2 591.7C171.5 588.3 174.9 581.7 176.7 577.0C178.5 572.3 182.3 563.2 185.2 556.7C185.2 556.7 190.3 545.0 190.3 545.0C190.3 545.0 205.0 531.1 205.0 531.1C223.4 513.7 225.1 512.9 245.6 512.2C257.7 511.8 261.2 512.1 270.1 514.0C281.0 516.4 289.2 516.8 315.5 515.9C328.5 515.5 330.2 515.7 338.5 518.2C343.5 519.7 350.9 521.8 355.2 522.9C372.8 527.6 380.5 533.5 392.2 551.3C403.8 569.0 404.2 569.8 407.6 582.0C409.3 588.3 413.6 603.4 417.2 615.5C425.0 641.6 425.3 643.5 423.9 653.6C422.2 665.9 420.0 670.5 410.9 680.6C406.4 685.5 401.9 691.3 400.9 693.5C395.9 704.3 401.2 714.8 413.7 718.6C420.7 720.8 447.8 722.1 504.0 722.9C542.5 723.6 556.2 724.1 565.5 725.5C585.5 728.4 610.1 726.0 622.8 719.9C630.5 716.1 634.2 706.7 631.6 697.8C629.6 691.2 626.9 688.1 615.4 679.1C604.1 670.4 597.5 663.2 593.2 655.2C591.4 651.8 587.0 645.1 583.4 640.3C575.3 629.5 573.5 625.9 567.5 609.5C564.9 602.3 560.7 591.8 558.0 586.0C552.0 572.9 552.3 574.2 550.5 557.8C548.9 543.2 548.6 542.1 538.5 519.0C530.1 499.7 525.4 486.2 521.9 470.5C520.3 463.3 517.3 453.9 515.3 449.5C513.3 445.1 509.4 434.5 506.5 426.0C501.2 410.3 492.8 387.2 488.6 377.1C487.3 374.0 485.3 366.8 484.0 361.0C480.9 346.1 474.6 324.4 469.8 312.6C465.1 300.9 463.3 294.8 458.4 275.5C456.4 267.8 452.7 256.3 450.1 250.0C443.3 233.7 443.3 233.7 440.1 221.5C432.9 194.3 428.6 179.8 425.1 170.5C418.3 152.9 415.0 141.7 412.1 126.4C410.5 118.2 408.3 109.2 407.1 106.3C399.7 87.6 384.2 58.3 378.1 51.6C372.9 45.9 363.8 44.3 356.9 48.0C356.9 48.0 356.9 48.0 356.9 48.0M319.4 308.3C332.6 314.3 337.3 322.2 340.1 343.0C341.2 350.7 344.3 366.1 347.1 377.3C349.9 388.4 353.2 402.9 354.6 409.5C355.9 416.1 358.2 425.8 359.7 431.0C364.8 449.5 362.5 460.6 351.6 469.2C345.1 474.4 334.3 479.5 326.2 481.1C316.8 482.9 286.3 481.7 274.0 479.0C268.8 477.9 261.2 476.3 257.1 475.5C242.4 472.6 235.6 466.1 230.9 450.5C229.2 445.0 227.0 438.0 225.8 435.0C222.2 425.3 222.3 424.3 227.8 416.0C230.5 411.9 235.0 405.4 237.9 401.7C244.7 392.7 247.2 387.5 252.1 372.7C255.7 361.7 258.3 355.8 264.8 343.5C266.0 341.3 269.2 334.8 271.9 328.9C277.6 316.7 285.2 308.0 291.7 306.2C298.2 304.3 313.1 305.5 319.4 308.3C319.4 308.3 319.4 308.3 319.4 308.3Z"/>
</g>
</svg>