<!DOCTYPE svg PUBLIC "-//W3C//DTD SVG 20010904//EN" "http://www.w3.org/TR/2001/REC-SVG-20010904/DTD/svg10.dtd">
<svg xmlns="http://www.w3.org/2000/svg" version="1.0" width="606.000000pt" height="767.000000pt" viewBox="0 0 606.000000 767.000000" preserveAspectRatio="xMidYMid meet">
<metadata>
Created by potrace 1.13, written by Peter Selinger 2001-2015
</metadata>
<g fill="#000000" stroke="none">
<path d="M71.5 43.0C51.4 48.2 44.8 51.7 41.1 59.3C38.6 64.4 38.5 66.7 40.3 73.8C42.2 80.9 46.1 86.1 53.3 91.1C56.7 93.4 62.4 97.7 66.0 100.5C69.6 103.3 75.2 107.3 78.5 109.3C87.3 114.5 95.4 123.1 99.5 131.4C106.0 144.7 106.2 155.5 101.3 222.0C99.6 244.7 99.4 255.8 100.3 289.0C100.6 300.3 101.3 333.6 101.9 363.0C102.4 392.4 103.2 420.2 103.6 424.8C104.3 432.9 102.9 458.4 100.8 474.0C98.7 490.7 98.7 503.0 100.8 512.1C104.3 526.7 105.3 537.4 104.7 553.5C104.3 561.7 103.6 582.0 103.0 598.5C102.4 615.0 101.5 632.0 100.9 636.3C98.3 655.8 90.4 674.9 81.7 682.5C75.3 688.2 65.7 693.1 54.2 696.5C47.0 698.7 44.8 699.9 41.5 703.4C39.3 705.7 36.9 709.4 36.2 711.7C34.7 716.7 34.6 725.9 36.1 729.7C37.5 733.4 42.6 738.7 47.0 741.0C51.2 743.1 67.6 746.6 78.0 747.5C89.0 748.4 144.3 746.3 167.5 744.0C178.5 743.0 191.8 741.8 197.0 741.5C205.3 741.0 228.1 739.0 243.4 737.5C246.2 737.3 257.0 737.8 267.4 738.6C288.7 740.4 299.3 740.1 320.5 737.0C337.1 734.7 341.1 734.6 359.3 736.2C371.9 737.3 375.1 737.2 393.3 735.3C406.8 733.8 418.2 731.9 427.5 729.6C435.2 727.7 443.5 725.9 445.9 725.5C453.6 724.2 487.7 711.9 497.0 706.9C500.4 705.1 506.7 700.6 510.9 697.0C515.1 693.4 522.1 687.7 526.5 684.3C530.9 680.9 536.3 675.7 538.5 672.8C540.7 669.9 545.6 664.2 549.4 660.0C554.7 654.2 557.4 650.0 561.6 641.3C564.5 635.0 569.4 626.8 572.5 622.8C575.6 618.8 578.8 614.4 579.6 612.8C581.9 608.3 583.8 598.3 585.0 584.5C585.6 577.3 587.0 567.0 588.0 561.5C592.1 540.1 592.4 534.4 590.0 517.7C587.8 502.8 580.6 475.7 575.9 465.0C571.1 454.1 561.3 439.2 553.5 431.0C544.4 421.4 530.3 405.0 524.7 397.5C522.6 394.7 516.6 388.9 511.2 384.5C498.9 374.3 496.5 370.2 496.5 358.5C496.5 347.8 498.1 343.7 505.5 336.0C508.8 332.4 512.8 327.8 514.3 325.8C515.8 323.7 520.7 317.7 525.1 312.4C529.6 306.9 534.9 299.2 537.2 294.6C539.4 290.2 543.7 282.7 546.8 278.0C557.6 261.3 559.7 255.4 562.5 234.0C565.4 212.1 563.0 188.0 556.0 167.4C550.2 150.5 548.9 147.8 539.0 133.0C529.4 118.7 516.7 106.6 497.1 93.1C491.5 89.2 484.2 83.8 480.7 81.0C473.6 75.2 448.9 62.3 437.9 58.6C431.1 56.3 414.7 53.0 385.0 47.8C374.4 46.0 368.1 45.8 300.7 45.5C260.7 45.3 227.6 44.9 227.1 44.6C226.7 44.3 201.4 43.6 171.0 43.0C140.5 42.4 112.7 41.5 109.1 41.0C96.6 39.2 83.5 39.9 71.5 43.0C71.5 43.0 71.5 43.0 71.5 43.0M342.5 91.5C346.9 92.8 358.6 97.9 368.5 102.9C391.1 114.2 392.1 115.3 403.5 138.5C418.8 169.6 420.6 178.0 419.7 213.9C419.1 240.3 418.8 242.0 410.8 266.0C404.5 285.0 401.9 291.0 394.7 302.5C387.9 313.6 383.5 318.2 370.9 327.5C354.6 339.7 347.4 341.5 316.0 341.5C290.1 341.5 288.1 341.0 279.9 332.7C271.6 324.2 269.0 317.5 264.9 294.4C262.9 283.0 262.8 279.4 263.0 210.4C263.1 170.7 263.5 135.4 264.0 132.0C266.4 114.9 282.7 97.1 301.5 90.9C311.9 87.5 329.6 87.8 342.5 91.5C342.5 91.5 342.5 91.5 342.5 91.5M339.4 383.5C344.9 384.3 352.9 385.5 357.0 386.1C366.8 387.5 372.6 390.2 384.1 398.7C394.7 406.5 397.9 409.9 404.2 419.7C406.6 423.4 410.7 429.3 413.2 432.6C418.9 440.4 427.6 457.8 429.4 465.1C430.9 470.9 431.6 477.8 434.6 513.0C435.8 527.6 436.1 537.5 435.6 552.5C434.8 576.5 434.0 581.4 429.0 593.9C426.9 599.2 423.8 609.7 422.1 617.3C420.4 624.9 418.0 633.4 416.8 636.3C410.2 651.8 399.9 663.6 381.7 676.6C361.4 691.2 353.4 694.0 329.4 694.7C302.7 695.6 289.5 693.0 280.9 685.2C263.8 669.9 260.3 657.6 259.4 610.0C258.8 579.3 258.8 578.4 263.5 551.5C266.9 531.6 267.7 509.7 265.9 482.5C264.1 455.8 264.3 440.5 266.4 426.1C270.9 396.8 275.5 391.7 303.1 385.6C321.4 381.6 325.0 381.4 339.4 383.5C339.4 383.5 339.4 383.5 339.4 383.5Z"/>
</g>
</svg>