<!DOCTYPE svg PUBLIC "-//W3C//DTD SVG 20010904//EN" "http://www.w3.org/TR/2001/REC-SVG-20010904/DTD/svg10.dtd">
<svg xmlns="http://www.w3.org/2000/svg" version="1.0" width="552.000000pt" height="754.000000pt" viewBox="0 0 552.000000 754.000000" preserveAspectRatio="xMidYMid meet">
<metadata>
Created by potrace 1.13, written by Peter Selinger 2001-2015
</metadata>
<g fill="#000000" stroke="none">
<path d="M141.5 39.0C137.7 39.5 122.4 40.3 107.6 41.0C77.9 42.2 68.2 43.6 60.1 47.7C52.5 51.6 48.8 56.5 48.2 63.4C47.3 74.1 54.3 82.7 71.3 91.8C85.3 99.4 93.7 107.6 99.5 119.4C102.9 126.3 104.2 130.3 104.9 136.0C106.2 147.5 104.3 288.4 102.3 322.5C100.4 355.2 100.0 419.0 101.4 459.0C102.0 477.5 101.9 488.5 101.0 499.0C100.3 507.0 99.4 538.7 99.0 569.5C98.1 631.1 98.0 632.6 91.7 644.3C87.0 653.3 80.1 660.2 66.2 669.8C59.4 674.5 52.1 680.4 49.9 682.8C40.8 693.1 42.9 705.1 55.2 714.3C66.1 722.3 75.9 723.4 129.5 722.7C175.3 722.1 180.3 721.6 207.0 715.1C228.2 709.9 244.7 711.0 263.1 719.1C283.5 727.9 287.1 729.3 294.5 731.1C305.1 733.6 323.8 734.5 337.6 733.1C356.2 731.2 383.9 722.9 400.5 714.2C408.3 710.1 424.8 698.1 432.3 691.1C443.1 681.0 465.3 653.8 472.2 642.1C488.5 614.4 504.3 575.9 509.1 551.5C517.0 511.7 519.7 488.9 518.5 472.0C517.8 462.8 512.2 435.1 508.9 424.3C505.3 412.7 492.1 381.1 484.9 367.0C470.8 339.0 454.9 319.1 430.1 297.7C413.2 283.2 400.7 275.7 379.4 267.4C364.5 261.6 358.4 260.3 340.4 259.1C321.1 257.8 307.4 258.9 289.1 263.4C270.4 268.0 264.7 268.6 257.9 266.7C246.6 263.4 239.2 256.1 234.8 243.9C232.6 237.7 232.5 236.4 232.2 195.0C231.9 167.1 232.3 144.8 233.2 130.0C233.9 117.6 234.5 100.7 234.4 92.5C234.4 79.5 234.0 76.4 231.9 69.3C227.0 53.5 219.5 44.9 206.7 40.7C201.2 38.9 197.7 38.6 174.5 38.4C160.2 38.3 145.4 38.6 141.5 39.0C141.5 39.0 141.5 39.0 141.5 39.0M328.1 300.1C341.1 302.9 356.7 311.6 366.1 321.2C380.9 336.3 387.4 358.4 390.0 402.1C390.6 411.7 391.5 425.9 392.0 433.6C393.3 452.7 393.3 462.1 391.5 486.1C390.7 497.3 389.6 517.7 389.0 531.5C387.1 577.4 385.8 589.2 380.0 613.0C373.7 638.9 367.4 652.8 358.2 661.0C351.6 666.9 341.0 672.3 332.0 674.4C323.7 676.4 304.7 676.4 295.5 674.5C281.8 671.6 263.2 660.2 254.3 649.1C249.5 643.1 238.0 620.4 233.6 608.0C225.7 586.1 222.5 521.0 227.0 471.5C228.1 459.4 229.0 445.2 229.0 440.0C229.0 429.0 231.6 397.7 233.1 391.0C234.5 384.4 239.8 368.6 243.6 359.9C250.9 342.8 263.3 324.3 274.1 314.6C280.1 309.2 292.8 302.7 301.5 300.6C308.8 298.8 321.1 298.6 328.1 300.1C328.1 300.1 328.1 300.1 328.1 300.1Z"/>
</g>
</svg>