<!DOCTYPE svg PUBLIC "-//W3C//DTD SVG 20010904//EN" "http://www.w3.org/TR/2001/REC-SVG-20010904/DTD/svg10.dtd">
<svg xmlns="http://www.w3.org/2000/svg" version="1.0" width="606.000000pt" height="781.000000pt" viewBox="0 0 606.000000 781.000000" preserveAspectRatio="xMidYMid meet">
<metadata>
Created by potrace 1.13, written by Peter Selinger 2001-2015
</metadata>
<g fill="#000000" stroke="none">
<path d="M309.5 42.1C288.7 44.6 285.5 45.4 272.8 51.7C266.6 54.8 254.3 60.5 245.5 64.4C236.7 68.4 225.2 74.4 220.0 77.8C200.4 90.4 193.3 95.2 186.6 100.5C182.7 103.5 175.6 108.0 170.7 110.6C163.7 114.4 160.2 117.1 154.2 123.5C150.0 127.9 144.1 133.6 141.2 136.0C136.1 140.3 119.3 159.9 112.2 169.8C110.4 172.4 106.8 178.3 104.2 183.0C101.7 187.7 97.0 195.4 93.9 200.2C90.1 206.1 87.1 212.1 85.0 218.7C81.2 230.0 79.2 234.3 74.0 242.0C69.8 248.3 66.7 256.1 64.1 267.0C63.1 271.1 60.7 280.3 58.7 287.5C41.1 352.2 40.9 353.3 40.3 399.0C39.7 442.8 41.1 462.3 46.9 489.0C49.1 499.2 51.9 511.9 53.0 517.2C56.0 531.4 65.6 561.2 69.7 569.4C71.7 573.3 74.9 579.0 77.0 582.0C79.1 585.0 82.4 590.7 84.4 594.7C92.8 611.5 116.4 647.3 129.0 662.5C141.9 678.0 160.9 694.3 177.0 703.4C181.1 705.8 188.5 710.2 193.4 713.3C198.5 716.6 207.7 721.1 215.4 724.0C222.6 726.8 233.2 731.3 239.0 734.0C251.1 739.5 265.6 744.4 278.5 747.1C288.4 749.3 330.1 751.6 356.0 751.4C379.8 751.3 406.6 746.4 422.4 739.4C450.2 727.0 472.0 724.4 509.0 729.1C537.8 732.7 550.2 730.9 559.3 721.5C564.4 716.2 566.3 710.4 570.5 686.5C575.3 659.6 575.7 655.0 574.7 640.3C573.9 628.9 574.0 627.0 576.5 614.8C580.1 597.6 580.2 587.0 577.1 573.0C575.0 563.7 574.8 561.1 575.4 549.5C576.5 528.6 573.7 517.6 565.2 508.7C555.5 498.6 544.0 497.5 534.7 505.9C526.1 513.6 520.4 526.1 512.5 555.0C508.0 571.2 506.8 574.2 496.4 594.7C490.2 607.0 482.4 620.9 479.2 625.7C476.0 630.6 472.1 636.7 470.6 639.3C466.8 645.9 454.8 660.1 445.9 668.6C437.4 676.5 429.5 681.7 418.8 686.1C414.8 687.7 407.0 691.3 401.5 694.1C384.1 702.7 368.8 705.3 343.2 703.8C322.0 702.6 310.8 699.3 293.7 689.3C283.8 683.5 276.6 677.0 267.1 665.0C259.4 655.3 248.5 636.1 242.9 622.3C237.8 609.4 234.7 590.9 233.0 563.5C232.5 553.6 231.3 535.4 230.5 523.0C226.7 466.9 225.7 373.9 227.8 289.0C228.9 243.8 229.1 241.6 233.9 218.5C236.5 206.5 237.0 204.6 242.5 190.5C244.9 184.4 248.1 173.9 249.5 167.0C252.9 151.3 257.1 142.5 265.5 133.1C269.1 129.2 274.2 122.6 277.0 118.5C283.1 109.5 285.2 107.7 302.2 97.8C320.7 86.9 324.0 85.7 338.0 85.2C351.9 84.7 363.5 86.9 384.1 93.6C409.9 102.0 423.9 110.8 437.6 127.1C456.0 149.0 481.6 192.3 489.4 214.8C491.3 220.3 494.2 227.4 495.8 230.6C497.4 233.9 500.2 241.2 501.9 247.0C505.7 259.3 508.4 264.3 513.8 269.2C521.6 276.2 531.3 277.8 538.0 273.0C545.2 267.9 549.6 258.8 553.0 242.1C555.4 230.2 555.5 219.5 553.4 200.5C552.6 192.8 551.5 172.5 551.0 155.5C550.1 122.7 548.0 96.8 545.4 85.9C543.5 77.8 539.1 70.0 534.7 66.6C526.7 60.5 510.7 57.5 495.1 59.2C489.8 59.8 478.3 60.3 469.5 60.3C454.8 60.4 452.0 60.1 436.0 56.7C426.4 54.8 414.7 51.8 410.0 50.1C394.1 44.5 390.6 43.9 362.0 41.5C340.3 39.6 328.6 39.8 309.5 42.1C309.5 42.1 309.5 42.1 309.5 42.1Z"/>
</g>
</svg>