<!DOCTYPE svg PUBLIC "-//W3C//DTD SVG 20010904//EN" "http://www.w3.org/TR/2001/REC-SVG-20010904/DTD/svg10.dtd">
<svg xmlns="http://www.w3.org/2000/svg" version="1.0" width="444.000000pt" height="552.000000pt" viewBox="0 0 444.000000 552.000000" preserveAspectRatio="xMidYMid meet">
<metadata>
Created by potrace 1.13, written by Peter Selinger 2001-2015
</metadata>
<g fill="#000000" stroke="none">
<path d="M249.1 41.1C227.8 42.8 199.5 50.0 179.3 59.1C149.9 72.3 118.7 98.2 95.9 128.6C76.7 154.1 65.6 175.9 54.5 209.9C46.6 234.1 44.4 242.9 41.9 259.5C35.6 301.6 39.9 342.1 55.0 385.5C60.7 401.9 78.1 432.3 91.5 449.5C111.5 475.1 146.4 498.4 181.2 509.5C193.7 513.4 216.8 518.4 230.0 519.9C245.7 521.7 272.9 522.2 284.5 521.0C301.9 519.1 328.1 511.9 341.1 505.4C373.9 489.0 403.8 453.7 416.2 416.6C418.6 409.5 419.3 405.2 419.7 397.0C420.1 387.4 420.0 386.1 417.8 382.1C414.7 376.2 411.2 373.8 405.1 373.2C398.6 372.6 392.3 375.6 387.0 381.9C384.8 384.4 378.8 393.5 373.7 402.1C362.5 420.8 357.4 427.7 345.5 439.6C325.2 460.2 303.0 469.3 273.5 469.3C258.7 469.2 250.5 467.5 237.8 461.7C208.6 448.3 192.2 423.7 183.0 379.1C176.0 345.7 174.6 326.5 174.5 266.5C174.5 228.4 174.8 218.0 176.3 206.0C181.1 166.5 185.2 150.3 195.9 128.5C202.5 115.0 205.7 110.6 213.8 103.7C232.8 87.6 266.0 84.0 282.2 96.3C292.3 104.0 293.7 114.4 287.5 134.5C281.2 154.8 280.9 156.1 280.3 169.1C279.3 191.5 282.9 203.7 294.3 215.7C302.8 224.6 311.6 229.4 323.5 231.5C351.1 236.4 375.1 226.8 391.9 204.1C402.1 190.4 405.6 176.0 404.7 152.0C403.8 128.8 398.0 111.0 385.5 93.5C376.6 81.0 356.2 64.6 338.5 55.8C316.5 44.8 279.8 38.8 249.1 41.1C249.1 41.1 249.1 41.1 249.1 41.1Z"/>
</g>
</svg>