<!DOCTYPE svg PUBLIC "-//W3C//DTD SVG 20010904//EN" "http://www.w3.org/TR/2001/REC-SVG-20010904/DTD/svg10.dtd">
<svg xmlns="http://www.w3.org/2000/svg" version="1.0" width="741.000000pt" height="767.000000pt" viewBox="0 0 741.000000 767.000000" preserveAspectRatio="xMidYMid meet">
<metadata>
Created by potrace 1.13, written by Peter Selinger 2001-2015
</metadata>
<g fill="#000000" stroke="none">
<path d="M60.7 45.3C48.5 49.3 40.4 66.5 44.3 80.0C48.6 94.5 60.7 102.0 84.3 104.6C91.6 105.4 99.1 106.5 101.0 107.1C107.1 109.1 120.5 117.7 125.3 122.8C133.5 131.6 133.4 131.0 133.8 190.4C134.1 238.3 133.9 243.4 132.0 256.7C130.4 268.5 130.0 276.3 130.0 300.8C130.0 317.1 129.5 343.1 128.9 358.5C128.3 373.9 127.7 411.7 127.6 442.5C127.3 494.0 127.1 499.8 125.0 514.0C123.1 527.8 122.9 530.9 123.9 542.0C126.5 572.9 127.0 598.0 125.7 624.5C124.3 649.9 121.2 664.6 114.3 677.1C108.1 688.6 96.9 694.1 72.3 697.6C51.9 700.6 47.9 701.6 43.0 705.1C30.9 713.9 39.6 736.9 58.0 744.7C65.3 747.9 81.4 748.3 190.0 748.6C249.7 748.8 302.1 749.1 306.5 749.2C321.9 749.7 401.6 747.9 409.0 746.9C413.1 746.3 422.6 743.8 430.1 741.4C437.7 739.0 448.0 736.1 453.1 734.9C468.1 731.7 478.6 728.0 493.0 720.7C500.4 716.9 510.3 712.3 515.0 710.4C519.7 708.5 526.0 705.0 529.1 702.7C532.2 700.4 539.1 695.1 544.6 691.0C550.0 686.9 564.9 673.2 577.8 660.5C595.9 642.6 601.9 636.1 604.7 631.0C606.7 627.5 612.7 620.0 617.9 614.4C626.3 605.5 628.4 602.5 635.1 589.9C652.2 557.5 661.0 534.9 669.0 503.4C670.6 496.9 674.0 485.7 676.5 478.5C682.2 462.4 683.7 452.7 684.4 425.0C684.8 413.2 685.5 395.1 686.1 384.9C687.4 362.9 686.4 350.4 682.0 336.5C680.4 331.5 678.4 323.7 677.5 319.0C675.5 308.9 674.0 303.4 671.0 296.0C669.8 293.0 666.9 283.1 664.5 274.0C653.2 230.5 652.2 227.6 643.0 212.5C640.8 208.9 637.5 203.0 635.6 199.3C633.7 195.5 629.1 188.1 625.3 182.8C621.6 177.4 616.4 169.3 613.7 164.8C609.8 158.0 605.3 152.8 589.2 136.5C571.3 118.2 568.2 115.6 555.0 106.8C539.6 96.6 512.2 80.0 510.8 80.0C510.3 80.0 506.4 78.0 502.0 75.5C488.0 67.6 472.9 62.5 449.5 57.9C443.5 56.8 434.2 54.7 429.0 53.3C417.6 50.2 415.1 50.2 368.5 51.9C330.6 53.3 300.3 52.8 290.0 50.6C286.4 49.9 279.1 48.1 273.6 46.6C261.1 43.3 250.9 43.2 237.4 46.2C228.4 48.2 225.5 48.4 205.5 48.0C172.7 47.4 172.0 47.4 152.0 48.8C132.4 50.2 117.5 49.6 96.0 46.5C80.6 44.3 65.3 43.8 60.7 45.3C60.7 45.3 60.7 45.3 60.7 45.3M396.6 94.6C416.5 96.8 426.2 100.0 439.4 108.5C442.2 110.3 448.2 113.9 452.8 116.6C459.0 120.2 463.2 123.7 469.9 131.0C481.1 143.1 484.1 147.8 487.5 158.8C489.0 163.6 492.0 171.3 494.1 176.1C499.7 188.5 510.7 221.4 512.4 231.1C513.3 235.7 515.3 249.6 517.0 262.0C518.7 274.4 521.2 291.9 522.6 301.0C522.6 301.0 525.1 317.5 525.1 317.5C525.1 317.5 524.5 411.0 524.5 411.0C524.2 462.4 523.4 508.5 522.9 513.3C521.6 525.0 514.6 561.6 511.9 570.5C510.7 574.3 509.0 579.1 508.0 581.0C507.0 582.9 503.5 591.7 500.2 600.5C490.2 627.2 485.3 637.4 476.7 649.4C467.0 663.0 462.3 668.0 449.7 678.2C439.5 686.3 431.0 691.2 423.1 693.5C412.1 696.7 379.8 702.2 368.9 702.7C350.2 703.6 334.1 700.6 320.5 693.8C302.6 684.8 298.1 678.5 292.4 653.8C289.8 642.5 289.8 642.3 289.3 587.5C288.2 466.4 288.7 439.5 292.6 416.0C293.4 410.8 294.8 394.8 295.6 380.5C298.5 331.1 298.5 335.8 295.5 321.5C295.5 321.5 292.7 308.5 292.7 308.5C292.7 308.5 292.5 259.5 292.5 259.5C292.3 232.5 292.7 206.9 293.2 202.5C293.7 198.1 294.5 179.4 294.9 161.0C295.8 124.4 296.2 121.5 302.1 112.7C306.1 106.6 316.5 98.9 324.4 96.1C327.9 94.9 334.5 93.5 339.1 93.0C350.0 91.9 379.9 92.7 396.6 94.6C396.6 94.6 396.6 94.6 396.6 94.6Z"/>
</g>
</svg>