<!DOCTYPE svg PUBLIC "-//W3C//DTD SVG 20010904//EN" "http://www.w3.org/TR/2001/REC-SVG-20010904/DTD/svg10.dtd">
<svg xmlns="http://www.w3.org/2000/svg" version="1.0" width="566.000000pt" height="902.000000pt" viewBox="0 0 566.000000 902.000000" preserveAspectRatio="xMidYMid meet">
<metadata>
Created by potrace 1.13, written by Peter Selinger 2001-2015
</metadata>
<g fill="#000000" stroke="none">
<path d="M316.5 39.6C295.8 42.6 287.2 46.4 282.3 54.7C279.1 60.2 279.5 66.1 283.4 72.0C286.8 77.1 291.4 80.0 305.3 85.6C327.9 94.8 335.3 100.5 341.5 113.4C347.8 126.6 348.1 130.6 348.5 188.5C348.9 244.2 348.4 251.3 344.0 260.1C341.2 265.7 335.6 271.6 330.5 274.3C327.6 275.8 324.1 276.5 317.5 276.8C309.4 277.2 306.7 276.8 292.1 273.1C266.3 266.6 250.3 264.7 228.0 265.3C202.4 266.0 186.9 269.9 165.8 280.7C138.0 295.1 103.6 328.2 80.4 363.0C62.3 390.1 44.2 436.1 39.9 465.9C38.1 478.5 39.3 518.6 42.0 536.5C47.3 571.4 52.8 589.2 68.3 621.0C79.0 642.9 93.0 662.2 110.6 679.6C126.7 695.5 140.3 705.1 158.3 713.3C206.8 735.4 245.0 737.2 297.5 719.9C324.9 710.9 333.2 710.6 356.4 718.0C363.1 720.1 372.4 722.6 377.1 723.5C392.3 726.5 488.9 728.5 500.2 726.1C512.9 723.4 521.6 713.2 520.8 702.0C520.0 691.0 514.4 683.8 498.5 673.5C485.4 665.0 478.0 658.0 474.1 650.2C467.2 636.6 466.9 631.0 468.0 550.5C470.5 384.8 470.9 336.5 470.8 258.5C470.7 212.8 470.6 165.8 470.6 154.0C470.6 142.2 470.9 122.6 471.4 110.5C472.7 78.2 470.4 67.4 460.3 57.2C451.0 47.9 438.6 43.4 415.0 41.0C404.5 40.0 322.2 38.8 316.5 39.6C316.5 39.6 316.5 39.6 316.5 39.6M266.5 306.5C284.4 310.3 306.4 326.4 319.1 345.2C324.2 352.7 331.1 367.3 334.3 377.7C340.9 398.6 342.8 414.4 343.7 457.5C344.3 487.7 343.7 498.8 338.9 556.0C335.9 591.4 324.1 628.3 309.6 647.7C301.5 658.4 284.8 669.6 270.0 674.2C263.7 676.1 260.3 676.5 249.0 676.5C237.4 676.5 234.5 676.2 228.7 674.2C210.0 667.7 196.3 652.4 186.9 627.6C178.4 605.0 177.3 597.2 176.0 555.5C175.5 537.9 174.8 521.6 174.5 519.3C173.3 510.9 173.9 463.1 175.5 444.0C176.3 433.3 177.5 418.6 178.0 411.5C180.6 378.6 187.1 355.7 199.7 334.7C209.2 318.9 224.9 308.9 244.5 306.1C253.6 304.8 258.8 304.9 266.5 306.5C266.5 306.5 266.5 306.5 266.5 306.5Z"/>
</g>
</svg>