<!DOCTYPE svg PUBLIC "-//W3C//DTD SVG 20010904//EN" "http://www.w3.org/TR/2001/REC-SVG-20010904/DTD/svg10.dtd">
<svg xmlns="http://www.w3.org/2000/svg" version="1.0" width="485.000000pt" height="606.000000pt" viewBox="0 0 485.000000 606.000000" preserveAspectRatio="xMidYMid meet">
<metadata>
Created by potrace 1.13, written by Peter Selinger 2001-2015
</metadata>
<g fill="#000000" stroke="none">
<path d="M228.0 40.1C204.1 42.2 175.7 49.5 158.2 58.0C131.1 71.1 101.6 98.1 82.6 127.2C74.8 139.2 60.7 169.0 55.4 184.6C49.6 202.0 43.6 225.8 41.3 240.0C38.6 257.4 38.9 296.1 41.9 316.9C46.0 345.4 55.0 376.1 65.6 397.9C84.6 437.1 112.4 468.4 145.6 488.0C157.5 495.0 181.8 505.3 196.3 509.5C232.0 519.8 263.4 521.9 293.5 515.9C322.4 510.2 340.8 502.6 358.9 488.9C386.8 467.9 414.3 424.0 417.4 395.4C418.5 385.0 415.2 374.5 409.6 371.1C404.5 367.9 399.8 367.5 394.7 369.8C385.8 373.7 378.5 382.5 367.1 402.8C349.5 433.9 319.3 455.8 286.0 461.4C258.5 466.0 235.4 463.1 218.4 452.9C200.1 441.8 184.1 418.6 177.5 393.7C171.3 370.1 167.5 336.9 168.3 313.2C169.3 284.2 175.2 271.5 191.5 263.9C200.0 259.9 210.7 258.0 229.0 257.4C250.3 256.6 271.6 258.2 312.0 263.6C371.0 271.5 389.7 270.1 404.7 256.6C415.0 247.3 419.0 233.9 419.0 209.3C419.0 181.0 411.0 144.5 400.1 123.2C396.3 115.7 385.5 99.7 379.3 92.3C346.5 53.3 292.0 34.5 228.0 40.1C228.0 40.1 228.0 40.1 228.0 40.1M251.3 85.5C274.5 90.4 292.3 110.2 298.2 137.5C301.2 151.1 301.4 179.2 298.7 188.9C294.3 204.6 286.1 213.4 270.4 219.2C265.0 221.2 262.7 221.4 244.5 221.4C227.6 221.4 223.0 221.1 214.5 219.2C195.5 215.1 182.8 206.1 178.0 193.4C172.1 177.4 174.2 148.5 182.9 128.2C192.3 106.0 211.2 88.9 230.5 85.0C236.8 83.8 243.9 83.9 251.3 85.5C251.3 85.5 251.3 85.5 251.3 85.5Z"/>
</g>
</svg>