<!DOCTYPE svg PUBLIC "-//W3C//DTD SVG 20010904//EN" "http://www.w3.org/TR/2001/REC-SVG-20010904/DTD/svg10.dtd">
<svg xmlns="http://www.w3.org/2000/svg" version="1.0" width="916.000000pt" height="1198.000000pt" viewBox="0 0 916.000000 1198.000000" preserveAspectRatio="xMidYMid meet">
<metadata>
Created by potrace 1.13, written by Peter Selinger 2001-2015
</metadata>
<g fill="#000000" stroke="none">
<path d="M68.2 39.8C61.1 42.4 56.7 46.9 51.8 56.5C48.2 63.7 47.9 65.1 48.3 70.1C48.9 76.8 52.6 84.6 57.2 88.6C59.0 90.2 64.1 93.1 68.5 94.9C84.5 101.8 99.2 113.6 103.9 123.3C107.8 131.4 109.1 137.9 110.0 155.5C110.5 164.8 111.4 179.6 112.1 188.2C113.0 200.2 113.1 208.4 112.2 222.7C111.6 233.2 111.0 277.4 110.8 323.0C110.6 397.7 110.8 405.5 112.5 417.0C115.2 435.5 114.9 445.6 111.5 456.0C111.5 456.0 108.7 464.5 108.7 464.5C108.7 464.5 108.3 532.5 108.3 532.5C108.3 532.5 108.0 600.5 108.0 600.5C108.0 600.5 105.0 619.0 105.0 619.0C101.4 640.7 100.5 642.9 88.1 661.3C78.4 675.7 76.8 677.2 64.7 684.1C50.3 692.2 47.0 696.8 47.0 709.1C47.0 720.7 51.4 729.2 59.2 732.6C63.1 734.3 66.8 734.5 101.5 734.6C128.8 734.6 143.9 735.1 155.0 736.3C207.8 741.8 204.9 741.7 300.3 738.3C307.7 738.0 313.7 738.4 319.3 739.5C329.4 741.5 333.0 741.6 371.0 740.6C393.3 740.0 405.0 739.3 414.5 737.8C424.8 736.2 435.5 735.6 465.5 735.0C493.3 734.4 505.3 733.8 510.1 732.7C513.7 731.8 525.4 730.2 536.1 729.0C574.7 724.7 581.0 722.4 587.0 710.4C592.3 699.8 595.1 690.5 596.0 680.0C598.0 658.7 599.0 622.3 598.6 585.5C598.3 548.3 598.2 545.8 595.6 532.0C593.0 518.0 589.8 508.7 586.2 504.6C581.6 499.4 569.3 497.4 562.3 500.7C560.4 501.6 557.3 504.4 555.4 506.9C550.2 514.1 542.2 530.8 540.5 538.1C536.8 554.5 531.6 566.7 524.7 575.2C517.4 584.2 516.3 586.3 512.1 597.4C509.9 603.3 506.5 610.7 504.6 613.8C499.0 623.0 481.3 639.2 454.6 659.4C444.7 666.9 430.1 672.6 410.8 676.5C404.3 677.9 394.8 680.1 389.7 681.4C379.4 684.2 369.8 685.5 353.5 686.5C346.5 686.9 338.4 688.2 331.2 690.1C317.4 693.6 314.6 693.7 303.5 690.5C289.2 686.3 284.7 683.1 278.6 672.8C274.7 666.1 273.3 661.3 270.6 645.3C266.4 620.5 265.6 603.5 267.4 582.3C269.5 558.2 269.5 519.9 267.3 482.3C264.8 439.2 266.3 427.8 276.1 413.1C281.6 404.9 287.4 399.2 292.8 396.7C296.6 395.0 299.5 394.6 307.5 394.5C315.9 394.5 319.3 395.0 329.0 397.9C343.0 402.0 346.5 403.7 353.3 409.8C356.2 412.4 361.3 416.6 364.7 419.1C368.0 421.7 372.2 426.2 374.1 429.1C376.0 432.1 380.3 438.7 383.8 443.9C392.7 457.2 394.6 461.2 398.0 475.1C402.3 492.5 405.8 499.5 414.0 507.5C419.7 512.9 421.4 514.0 424.3 514.0C428.7 514.0 432.3 510.7 435.5 503.7C439.2 495.8 440.0 487.3 439.0 467.2C438.4 454.4 438.5 444.5 439.5 431.5C440.4 418.1 440.6 408.3 439.9 393.0C439.4 381.7 439.1 346.2 439.2 314.0C439.2 314.0 439.4 255.5 439.4 255.5C439.4 255.5 436.6 249.4 436.6 249.4C427.5 229.4 414.4 233.7 406.1 259.4C404.4 264.8 400.4 274.5 397.3 280.9C391.8 292.1 391.1 293.0 378.5 305.5C367.1 316.9 363.7 319.5 351.7 326.8C335.7 336.5 329.1 339.6 314.1 344.4C302.7 348.1 298.0 348.7 293.5 347.0C287.8 344.8 282.3 336.0 277.5 321.0C273.8 309.5 273.2 292.0 275.4 258.5C276.3 244.7 277.5 214.6 278.0 191.5C278.6 168.4 279.5 146.3 280.0 142.5C281.7 130.6 284.6 123.1 291.8 111.5C300.8 97.4 303.6 94.1 309.9 90.6C317.5 86.5 323.6 86.3 342.0 89.3C350.5 90.7 362.5 92.2 368.5 92.5C385.4 93.5 391.7 95.2 405.9 102.3C412.8 105.8 422.3 110.2 426.9 112.0C431.5 113.8 438.4 117.4 442.4 119.9C446.3 122.5 453.9 127.0 459.4 130.0C472.4 137.2 476.8 141.2 485.3 153.9C489.2 159.7 496.2 168.6 500.9 173.5C507.0 179.9 510.8 185.0 513.9 191.0C516.4 195.7 520.2 202.2 522.4 205.5C524.7 208.8 530.6 219.5 535.5 229.4C543.2 244.8 545.1 247.7 548.7 250.3C557.7 256.7 566.0 254.4 570.8 244.2C570.8 244.2 573.5 238.5 573.5 238.5C573.5 238.5 574.0 186.5 574.0 186.5C574.0 186.5 574.6 134.5 574.6 134.5C574.6 134.5 577.4 125.5 577.4 125.5C580.9 114.4 581.6 105.4 580.1 91.9C577.5 69.1 572.9 59.6 561.6 53.8C552.0 48.9 521.9 46.6 480.0 47.5C455.0 48.1 448.5 47.9 437.0 46.4C425.7 44.9 413.9 44.6 363.6 44.4C327.8 44.3 296.9 43.7 286.9 43.0C268.2 41.6 234.1 42.9 216.1 45.6C196.1 48.7 183.3 48.5 152.0 44.5C125.6 41.1 101.6 38.9 88.0 38.4C75.4 38.0 72.8 38.2 68.2 39.8C68.2 39.8 68.2 39.8 68.2 39.8Z"/>
</g>
</svg>