<!DOCTYPE svg PUBLIC "-//W3C//DTD SVG 20010904//EN" "http://www.w3.org/TR/2001/REC-SVG-20010904/DTD/svg10.dtd">
<svg xmlns="http://www.w3.org/2000/svg" version="1.0" width="390.000000pt" height="754.000000pt" viewBox="0 0 390.000000 754.000000" preserveAspectRatio="xMidYMid meet">
<metadata>
Created by potrace 1.13, written by Peter Selinger 2001-2015
</metadata>
<g fill="#000000" stroke="none">
<path d="M253.5 38.0C236.0 39.1 226.1 41.8 209.1 50.2C192.8 58.3 183.7 64.5 169.0 77.5C145.5 98.1 134.5 115.0 123.7 146.5C121.2 153.6 117.6 163.4 115.7 168.2C113.8 172.9 110.3 183.5 108.0 191.7C96.9 230.8 88.9 244.6 68.7 259.3C45.8 276.0 40.6 286.9 49.0 299.9C50.7 302.6 54.2 306.6 56.8 308.6C74.5 322.9 81.1 332.3 85.2 348.8C87.1 356.7 87.3 360.4 87.4 387.5C87.5 433.9 86.1 524.3 85.0 536.5C84.4 542.5 83.6 562.1 83.0 580.0C82.1 611.9 81.3 619.4 77.8 628.5C75.0 635.8 68.4 645.3 59.0 655.5C47.0 668.7 42.8 676.2 42.2 685.7C41.2 701.2 50.4 710.9 70.6 715.5C80.0 717.7 177.0 719.7 204.0 718.2C226.4 717.0 231.5 715.5 239.6 707.6C251.6 695.9 249.0 683.9 228.9 659.0C217.8 645.2 214.2 638.5 211.1 626.5C205.6 604.4 205.5 603.6 205.6 544.0C205.7 494.4 206.0 486.6 207.9 470.3C209.7 455.0 210.0 446.4 210.0 416.3C210.0 354.4 212.4 339.2 224.3 326.2C229.9 320.1 236.4 316.1 249.8 310.5C255.9 307.9 262.9 304.5 265.4 302.9C270.6 299.4 274.2 293.0 273.3 288.7C272.3 283.5 264.7 276.5 254.1 271.1C224.5 255.9 216.7 241.7 218.5 205.9C219.3 189.0 221.0 180.7 225.1 172.9C229.0 165.6 232.9 162.4 239.6 161.0C246.2 159.6 251.2 160.7 266.3 167.1C284.1 174.6 293.8 176.2 308.0 173.9C319.9 172.0 334.2 163.1 341.5 153.2C349.7 142.0 356.0 121.6 356.0 106.0C356.0 81.7 344.9 63.2 323.0 51.3C301.5 39.6 283.3 36.2 253.5 38.0C253.5 38.0 253.5 38.0 253.5 38.0Z"/>
<path d="M383.9 305.3C382.1 306.5 379.5 309.3 378.3 311.5C367.4 330.8 361.6 381.9 368.1 401.3C372.6 414.7 381.3 427.9 386.9 429.8C386.9 429.8 390.0 430.9 390.0 430.9C390.0 430.9 390.0 366.9 390.0 366.9C390.0 296.8 390.4 300.9 383.9 305.3C383.9 305.3 383.9 305.3 383.9 305.3Z"/>
<path d="M385.3 478.3C381.8 480.3 377.6 486.6 369.7 502.1C361.7 517.8 359.6 524.4 355.9 547.0C354.4 555.9 353.6 564.4 353.7 572.0C353.8 589.7 361.7 645.0 366.1 659.3C369.8 671.0 378.8 681.4 386.3 682.7C386.3 682.7 390.0 683.3 390.0 683.3C390.0 683.3 390.0 580.1 390.0 580.1C390.0 498.3 389.7 477.0 388.8 477.0C388.1 477.1 386.5 477.6 385.3 478.3C385.3 478.3 385.3 478.3 385.3 478.3Z"/>
</g>
</svg>