<!DOCTYPE svg PUBLIC "-//W3C//DTD SVG 20010904//EN" "http://www.w3.org/TR/2001/REC-SVG-20010904/DTD/svg10.dtd">
<svg xmlns="http://www.w3.org/2000/svg" version="1.0" width="619.000000pt" height="781.000000pt" viewBox="0 0 619.000000 781.000000" preserveAspectRatio="xMidYMid meet">
<metadata>
Created by potrace 1.13, written by Peter Selinger 2001-2015
</metadata>
<g fill="#000000" stroke="none">
<path d="M443.5 37.1C440.2 37.6 421.3 37.9 401.5 37.9C401.5 37.9 365.5 37.8 365.5 37.8C365.5 37.8 354.5 40.9 354.5 40.9C354.5 40.9 343.5 44.0 343.5 44.0C343.5 44.0 316.0 44.0 316.0 44.0C298.4 44.0 283.8 43.5 275.5 42.5C258.7 40.6 251.0 40.6 243.0 42.7C232.0 45.5 207.5 44.9 185.5 41.4C167.6 38.5 167.2 38.5 123.5 38.5C72.9 38.5 73.7 38.4 64.1 47.4C56.8 54.3 54.6 58.9 54.6 67.0C54.6 78.3 59.7 84.4 75.8 92.2C87.7 97.9 91.4 100.9 97.5 109.5C103.5 117.8 107.7 127.1 109.6 136.1C111.5 144.8 111.7 162.1 110.1 173.5C109.3 179.2 109.3 186.1 110.0 198.0C111.5 222.3 111.3 231.9 109.0 242.8C106.2 256.6 104.8 273.1 105.5 283.0C105.9 288.4 105.6 296.2 104.6 304.6C103.2 316.4 103.2 319.8 104.5 337.1C106.2 359.6 106.4 385.5 104.9 392.0C103.8 396.5 102.7 453.4 101.2 575.0C100.6 617.7 100.0 637.5 99.2 639.9C95.5 650.7 84.8 659.4 69.0 664.5C59.2 667.6 48.0 674.0 45.5 677.9C37.6 689.9 40.4 708.0 51.5 717.8C57.5 723.1 62.9 725.7 72.1 727.6C82.1 729.8 158.8 730.7 187.0 729.1C203.8 728.0 207.9 728.1 216.7 729.4C224.5 730.6 235.3 731.0 261.2 731.0C299.3 731.0 302.8 730.5 311.1 724.5C317.0 720.3 319.3 715.4 319.8 706.4C320.5 694.8 317.2 690.2 303.5 682.9C291.8 676.7 286.9 672.8 278.5 663.2C272.2 656.1 270.6 653.5 268.7 647.6C268.7 647.6 266.5 640.5 266.5 640.5C266.5 640.5 266.5 549.0 266.5 549.0C266.5 444.0 265.7 453.7 276.5 428.7C284.8 409.7 287.7 405.5 294.5 402.4C304.4 397.9 320.8 397.6 330.4 401.9C332.8 402.9 340.7 407.7 347.9 412.4C361.8 421.6 366.2 425.9 378.8 442.6C387.7 454.3 390.7 460.7 393.1 473.3C395.8 487.7 397.5 492.0 403.4 500.3C406.2 504.2 409.6 509.2 410.9 511.3C414.7 517.5 419.4 520.4 425.4 520.4C433.7 520.2 438.3 517.1 441.9 509.0C445.9 499.9 446.3 491.1 445.5 434.7C445.0 405.4 444.7 372.9 444.7 362.5C444.7 362.5 444.7 343.5 444.7 343.5C444.7 343.5 449.1 330.5 449.1 330.5C449.1 330.5 453.5 317.5 453.5 317.5C453.5 317.5 453.5 293.5 453.5 293.5C453.5 271.1 453.3 269.0 451.2 262.0C448.4 253.3 442.2 240.6 438.5 236.2C435.2 232.2 426.6 228.0 421.8 228.0C415.5 228.0 407.0 231.8 401.9 236.9C397.9 240.8 396.8 242.9 394.2 251.1C390.3 263.7 389.2 265.5 381.1 274.3C376.1 279.8 372.7 284.8 368.5 293.0C362.1 305.5 360.0 307.6 343.9 317.5C330.1 326.1 323.6 328.1 310.0 328.1C300.7 328.1 295.5 326.6 289.1 322.1C280.2 315.7 268.2 277.2 264.4 243.0C262.5 225.1 262.9 212.3 265.9 197.9C267.5 190.6 267.9 185.2 267.8 174.4C267.6 160.8 267.7 160.2 271.3 149.2C273.3 142.9 275.0 136.3 275.0 134.5C275.0 127.8 278.2 114.4 281.2 108.8C287.0 97.9 296.6 90.7 308.8 88.1C311.8 87.5 323.8 87.0 336.1 87.0C356.0 87.0 359.8 87.3 375.8 90.0C396.5 93.6 396.7 93.6 413.0 100.8C439.7 112.6 463.4 129.1 476.5 145.2C480.4 149.9 486.3 157.0 489.8 160.9C493.4 165.1 497.9 171.8 500.5 177.0C503.0 182.0 506.9 189.0 509.2 192.7C517.5 206.3 521.4 218.7 522.5 235.5C523.3 246.7 525.1 253.2 530.0 263.0C536.5 276.0 541.1 280.0 549.3 280.0C558.7 280.0 567.3 274.7 571.1 266.5C573.2 262.0 573.6 251.5 572.0 243.1C570.3 234.3 568.0 195.5 568.0 177.1C568.0 155.8 569.0 148.5 573.5 135.4C578.2 121.8 579.5 109.1 578.1 92.0C577.5 84.1 576.3 77.1 575.1 74.0C571.6 64.8 555.0 46.6 546.8 43.0C537.5 39.0 502.6 35.9 468.5 36.1C458.1 36.2 446.8 36.6 443.5 37.1C443.5 37.1 443.5 37.1 443.5 37.1Z"/>
</g>
</svg>