<!DOCTYPE svg PUBLIC "-//W3C//DTD SVG 20010904//EN" "http://www.w3.org/TR/2001/REC-SVG-20010904/DTD/svg10.dtd">
<svg xmlns="http://www.w3.org/2000/svg" version="1.0" width="714.000000pt" height="808.000000pt" viewBox="0 0 714.000000 808.000000" preserveAspectRatio="xMidYMid meet">
<metadata>
Created by potrace 1.13, written by Peter Selinger 2001-2015
</metadata>
<g fill="#000000" stroke="none">
<path d="M554.5 48.5C549.0 49.3 541.6 50.6 538.0 51.5C533.5 52.6 523.7 53.4 506.0 54.0C485.6 54.7 478.9 55.3 472.5 56.9C472.5 56.9 464.5 59.0 464.5 59.0C464.5 59.0 449.0 56.4 449.0 56.4C430.0 53.2 418.0 53.5 405.3 57.4C400.8 58.7 392.3 60.6 386.3 61.5C368.0 64.2 365.8 65.3 361.0 75.0C359.8 77.5 355.6 82.7 351.8 86.7C345.5 93.3 344.9 94.2 345.2 97.6C345.7 104.0 348.6 105.2 365.2 106.3C373.1 106.8 391.4 107.3 406.0 107.5C420.6 107.7 438.3 108.3 445.4 108.9C471.1 111.1 491.1 110.2 512.9 105.9C519.2 104.6 525.4 104.0 528.9 104.3C536.6 104.9 558.9 112.8 564.3 116.9C570.9 121.9 574.7 123.3 580.1 122.6C588.3 121.5 595.2 118.9 598.3 115.9C598.3 115.9 601.2 112.9 601.2 112.9C601.2 112.9 600.8 89.2 600.8 89.2C600.3 62.6 599.8 60.5 593.5 55.3C588.8 51.4 575.7 47.0 569.3 47.1C566.7 47.2 560.0 47.8 554.5 48.5C554.5 48.5 554.5 48.5 554.5 48.5Z"/>
<path d="M257.7 148.4C252.3 150.4 247.7 154.2 241.5 161.9C238.5 165.7 234.6 169.7 232.8 170.8C231.0 172.0 224.2 178.5 217.7 185.4C207.7 196.2 205.4 199.3 201.6 207.2C198.0 214.8 196.3 217.1 192.4 220.0C189.8 221.9 185.0 226.9 181.8 231.0C178.5 235.1 172.8 240.8 169.2 243.5C164.4 247.1 161.4 250.5 158.3 255.5C155.9 259.4 151.3 265.7 148.1 269.5C139.1 280.2 138.0 282.6 132.6 302.2C131.4 306.3 129.2 310.1 124.3 316.2C116.9 325.5 115.1 329.1 111.5 341.5C108.3 352.3 106.4 356.1 100.4 363.0C94.0 370.5 91.5 376.4 88.0 392.4C84.5 408.3 83.3 411.6 78.2 418.5C72.0 426.7 71.2 428.3 67.0 440.6C57.3 468.7 55.8 479.5 56.9 510.5C57.7 533.4 57.9 535.2 61.3 548.5C63.3 556.2 65.9 569.7 67.0 578.5C69.3 596.1 72.1 609.3 74.6 614.3C75.5 616.0 79.4 621.8 83.2 627.0C87.1 632.2 91.0 638.1 92.0 640.1C93.0 642.0 96.8 646.2 100.5 649.4C105.7 654.0 108.0 657.0 111.1 663.2C113.6 668.2 117.6 673.8 121.9 678.5C125.7 682.6 131.0 689.6 133.7 694.1C141.0 706.5 148.0 713.5 160.4 720.8C168.8 725.9 171.9 728.4 175.5 733.0C178.0 736.2 182.6 741.0 185.7 743.6C188.9 746.3 194.9 751.6 199.0 755.5C207.3 763.4 206.8 763.2 231.0 768.5C240.8 770.6 244.8 772.2 257.4 778.6C257.4 778.6 272.4 786.2 272.4 786.2C272.4 786.2 279.4 785.7 279.4 785.7C287.5 785.2 295.3 782.5 302.5 777.8C309.8 773.0 310.4 771.2 308.5 759.4C306.7 748.3 304.2 740.4 299.4 730.8C297.5 727.1 294.6 720.6 293.0 716.4C288.6 705.4 286.6 701.9 281.5 695.9C278.9 692.9 276.2 689.3 275.5 687.9C273.4 684.0 266.2 664.0 265.1 659.0C264.5 656.5 264.0 642.1 264.0 626.9C264.0 626.9 264.0 599.3 264.0 599.3C264.0 599.3 257.5 586.6 257.5 586.6C257.5 586.6 251.0 573.9 251.0 573.9C251.0 573.9 251.0 517.6 251.0 517.6C251.0 453.7 251.0 453.1 258.7 429.8C262.4 418.3 263.4 413.7 263.7 406.5C263.7 406.5 264.2 397.5 264.2 397.5C264.2 397.5 257.5 384.6 257.5 384.6C257.5 384.6 250.9 371.7 250.9 371.7C250.9 371.7 251.2 322.6 251.2 322.6C251.2 322.6 251.6 273.5 251.6 273.5C251.6 273.5 254.3 263.6 254.3 263.6C255.8 258.2 258.5 250.3 260.2 246.1C263.3 238.6 263.3 238.3 264.0 216.0C264.0 216.0 264.6 193.5 264.6 193.5C264.6 193.5 268.4 184.0 268.4 184.0C271.0 177.6 272.4 172.3 272.8 167.9C273.3 160.4 271.7 151.4 269.3 148.8C267.4 146.7 263.0 146.5 257.7 148.4C257.7 148.4 257.7 148.4 257.7 148.4Z"/>
<path d="M603.0 710.5C599.2 711.3 587.5 711.8 575.0 711.9C551.0 712.0 543.0 713.0 536.0 716.5C530.7 719.2 525.4 724.7 523.3 729.8C522.0 733.0 522.0 733.5 523.8 735.9C524.8 737.3 527.9 739.7 530.5 741.2C533.2 742.6 537.4 745.6 540.0 747.8C545.6 752.6 549.0 754.4 555.9 756.0C565.5 758.3 573.8 757.0 589.5 750.8C597.2 747.7 606.0 744.4 609.0 743.5C620.5 739.8 625.4 736.1 626.5 729.9C627.3 725.4 625.1 719.8 620.7 715.1C617.8 712.0 612.1 708.8 610.3 709.1C609.9 709.2 606.6 709.8 603.0 710.5C603.0 710.5 603.0 710.5 603.0 710.5Z"/>
</g>
</svg>