<!DOCTYPE svg PUBLIC "-//W3C//DTD SVG 20010904//EN" "http://www.w3.org/TR/2001/REC-SVG-20010904/DTD/svg10.dtd">
<svg xmlns="http://www.w3.org/2000/svg" version="1.0" width="512.000000pt" height="767.000000pt" viewBox="0 0 512.000000 767.000000" preserveAspectRatio="xMidYMid meet">
<metadata>
Created by potrace 1.13, written by Peter Selinger 2001-2015
</metadata>
<g fill="#000000" stroke="none">
<path d="M227.3 39.1C211.9 40.7 180.5 48.9 164.2 55.5C147.7 62.2 122.2 81.7 107.2 99.0C95.9 112.0 83.7 136.3 78.5 156.4C73.4 175.6 72.7 182.1 73.4 202.0C73.7 212.2 74.6 223.9 75.5 228.0C77.7 239.0 78.5 262.1 77.1 273.2C74.6 292.3 71.2 301.0 58.7 320.4C45.6 340.8 42.0 351.3 42.0 368.8C42.0 401.7 54.8 430.5 79.2 452.2C96.5 467.6 102.0 473.3 104.7 478.9C110.6 490.8 107.3 500.7 92.9 515.0C88.1 519.7 79.1 528.4 73.0 534.5C52.6 554.4 45.4 569.2 44.3 594.0C43.2 618.0 49.8 636.4 67.1 657.6C87.6 682.7 116.9 700.0 160.5 712.5C193.4 722.0 206.4 723.6 247.5 722.7C286.8 721.9 303.6 718.4 338.5 703.3C360.0 694.1 368.8 688.9 384.5 676.3C405.7 659.2 419.7 641.6 432.9 615.1C441.7 597.6 445.1 587.8 449.0 568.2C455.3 536.4 455.2 520.1 448.5 491.5C443.9 471.9 441.0 463.1 434.0 448.3C425.8 431.1 418.5 420.4 406.2 407.8C391.4 392.6 370.7 379.0 341.0 364.8C322.4 355.9 312.9 346.4 315.1 338.8C316.7 333.2 321.2 328.0 328.7 323.2C363.1 301.3 383.5 281.0 396.0 256.0C401.0 246.1 404.7 234.2 408.5 215.5C410.5 206.2 413.2 195.3 414.6 191.5C419.7 177.2 427.8 170.2 446.4 164.0C461.1 159.1 465.4 156.8 471.7 150.4C480.8 141.0 485.0 129.3 485.0 113.1C485.0 97.5 480.7 85.2 471.1 73.3C462.0 62.0 452.4 56.8 437.3 54.7C422.3 52.7 407.9 55.2 383.5 64.0C376.0 66.7 372.6 67.3 363.5 67.7C350.1 68.3 344.7 67.1 328.7 60.1C314.1 53.6 292.1 45.9 279.0 42.6C273.2 41.2 262.7 39.6 255.6 39.0C241.2 37.9 239.1 37.9 227.3 39.1C227.3 39.1 227.3 39.1 227.3 39.1M251.4 93.7C259.3 95.6 265.3 98.8 272.2 104.7C279.8 111.2 283.4 115.9 288.6 126.2C297.5 143.9 301.3 163.3 301.2 190.5C301.1 210.0 299.6 234.4 297.9 245.4C294.7 264.9 283.9 282.4 268.5 293.0C251.9 304.4 229.0 302.7 211.6 288.8C197.2 277.2 189.2 263.2 183.1 238.9C178.9 222.3 177.8 208.5 179.0 188.0C181.5 147.8 185.4 131.1 196.5 114.5C205.3 101.3 212.8 95.8 226.0 93.1C236.3 91.0 241.2 91.1 251.4 93.7C251.4 93.7 251.4 93.7 251.4 93.7M136.5 319.5C154.1 324.0 166.2 335.1 162.0 343.0C161.4 344.2 158.7 346.2 156.2 347.3C152.2 349.2 149.7 349.5 139.5 349.5C128.4 349.5 127.1 349.3 121.8 346.7C97.6 334.8 109.6 312.6 136.5 319.5C136.5 319.5 136.5 319.5 136.5 319.5M305.7 490.0C335.3 495.1 352.3 503.3 369.1 520.6C377.7 529.5 380.8 534.9 384.6 547.7C386.9 555.4 387.3 558.2 387.2 570.0C387.2 585.0 385.6 592.8 379.9 606.5C375.7 616.7 370.1 624.8 360.5 634.9C346.6 649.4 333.0 658.5 313.5 666.3C291.2 675.2 267.5 679.7 247.5 678.7C230.6 677.8 212.0 675.2 202.0 672.3C177.6 665.3 154.9 645.3 142.4 619.7C136.5 607.6 134.6 598.4 135.3 585.6C136.0 573.3 137.8 567.5 143.8 558.5C155.1 541.7 173.0 532.7 191.3 534.5C200.2 535.3 206.1 537.2 219.5 543.1C225.6 545.7 232.3 548.2 234.6 548.6C239.9 549.4 245.3 547.1 248.0 542.8C249.9 539.8 250.1 538.6 249.4 530.5C249.0 525.5 248.6 517.2 248.6 511.9C248.5 502.9 248.7 502.1 251.3 498.7C254.2 494.9 259.5 491.6 266.5 489.4C272.8 487.4 292.1 487.7 305.7 490.0C305.7 490.0 305.7 490.0 305.7 490.0Z"/>
</g>
</svg>