<!DOCTYPE svg PUBLIC "-//W3C//DTD SVG 20010904//EN" "http://www.w3.org/TR/2001/REC-SVG-20010904/DTD/svg10.dtd">
<svg xmlns="http://www.w3.org/2000/svg" version="1.0" width="525.000000pt" height="767.000000pt" viewBox="0 0 525.000000 767.000000" preserveAspectRatio="xMidYMid meet">
<metadata>
Created by potrace 1.13, written by Peter Selinger 2001-2015
</metadata>
<g fill="#000000" stroke="none">
<path d="M80.0 38.0C63.8 40.1 55.0 43.3 47.9 49.7C42.5 54.6 40.0 59.7 40.0 66.0C40.0 75.0 43.8 79.9 60.5 92.6C72.4 101.7 80.6 110.9 85.2 120.5C91.8 134.2 92.3 139.3 92.4 188.5C92.5 235.6 90.6 338.6 89.0 371.0C88.5 382.3 88.0 398.9 88.0 408.0C88.0 417.1 87.6 436.6 87.0 451.5C86.5 466.3 85.5 490.6 85.0 505.5C84.4 520.3 83.3 539.2 82.6 547.5C81.8 555.7 80.8 575.1 80.5 590.5C79.8 624.1 78.6 637.8 76.0 645.6C74.8 648.9 70.5 658.6 66.4 667.2C60.0 680.4 58.7 684.0 58.3 689.5C57.8 695.1 58.1 696.7 60.4 701.4C63.6 707.8 69.0 711.8 80.2 715.8C87.0 718.2 89.2 718.4 114.5 719.1C145.4 720.1 193.8 719.4 208.4 717.9C213.9 717.3 220.6 716.0 223.4 714.9C236.1 710.2 245.0 701.6 245.0 694.1C245.0 688.3 241.6 683.3 228.3 669.8C204.9 645.8 203.4 639.3 202.6 550.5C202.1 500.3 203.0 472.4 206.0 439.0C207.3 424.8 213.3 389.0 216.0 379.4C218.3 371.2 226.7 349.5 230.3 342.3C235.9 331.3 251.7 314.7 261.3 309.9C263.4 308.8 268.6 307.0 272.7 305.9C291.7 301.1 310.7 306.2 322.5 319.3C333.2 331.1 337.8 343.6 340.4 367.8C344.8 408.4 345.4 424.0 344.2 471.9C343.4 503.7 342.4 522.8 341.1 534.9C339.2 551.5 338.3 564.0 336.0 605.8C335.5 615.8 334.3 627.3 333.4 631.3C330.1 645.7 322.5 658.2 310.9 668.1C298.9 678.3 291.2 686.5 290.2 690.3C287.7 699.2 295.2 708.9 307.5 712.8C320.7 717.0 328.3 717.9 375.0 721.0C383.5 721.6 401.1 722.7 414.0 723.6C454.8 726.4 471.0 723.8 483.5 712.9C488.7 708.3 490.4 704.5 490.3 697.5C490.2 689.3 487.5 683.0 477.5 668.1C462.6 645.6 458.4 634.5 457.3 615.5C457.0 609.4 457.5 577.5 458.4 544.5C460.7 456.1 460.7 456.2 462.6 447.0C467.6 422.7 462.3 384.1 449.0 348.5C442.9 331.9 440.0 326.5 430.8 314.3C417.6 296.6 393.4 277.2 375.0 269.5C365.9 265.6 350.3 260.9 338.8 258.6C328.3 256.4 310.7 256.6 292.0 259.0C255.2 263.8 243.9 263.6 233.0 258.2C226.5 255.0 222.8 250.1 220.4 241.5C217.8 232.1 217.3 179.0 219.5 148.7C221.8 117.4 221.8 91.7 219.6 82.6C217.4 73.2 212.6 64.6 206.0 58.0C196.4 48.4 184.8 43.9 165.1 42.0C126.1 38.3 90.6 36.6 80.0 38.0C80.0 38.0 80.0 38.0 80.0 38.0Z"/>
</g>
</svg>