<!DOCTYPE svg PUBLIC "-//W3C//DTD SVG 20010904//EN" "http://www.w3.org/TR/2001/REC-SVG-20010904/DTD/svg10.dtd">
<svg xmlns="http://www.w3.org/2000/svg" version="1.0" width="269.000000pt" height="767.000000pt" viewBox="0 0 269.000000 767.000000" preserveAspectRatio="xMidYMid meet">
<metadata>
Created by potrace 1.13, written by Peter Selinger 2001-2015
</metadata>
<g fill="#000000" stroke="none">
<path d="M128.5 39.5C113.0 42.9 101.4 50.4 92.0 62.9C81.8 76.7 78.5 88.2 79.2 107.3C80.0 128.0 86.1 142.1 101.0 157.0C114.9 171.0 127.0 175.9 147.5 176.0C163.6 176.0 173.0 172.7 184.5 163.0C197.2 152.3 207.0 136.7 210.6 121.5C212.8 112.4 212.8 95.6 210.7 87.3C205.4 67.1 194.2 52.7 177.6 44.9C164.5 38.8 142.6 36.4 128.5 39.5C128.5 39.5 128.5 39.5 128.5 39.5Z"/>
<path d="M81.8 276.0C56.2 280.4 47.3 292.7 56.4 311.5C58.2 315.4 61.4 321.0 63.5 324.0C72.3 336.9 77.3 350.1 79.1 364.8C80.2 374.4 79.9 399.6 77.0 537.0C75.8 595.2 73.6 629.7 70.4 642.3C68.1 651.4 65.0 657.5 55.5 671.5C44.2 688.3 42.7 691.7 42.6 700.6C42.5 706.8 42.9 708.2 45.5 712.6C50.7 721.0 61.4 726.7 77.3 729.4C89.2 731.5 182.4 730.0 191.8 727.6C209.3 723.2 219.0 713.5 219.0 700.7C219.0 695.0 215.4 685.1 209.9 675.5C199.3 657.1 197.5 648.9 195.9 613.5C194.8 586.8 196.0 486.9 198.1 441.0C198.7 428.1 199.4 396.1 199.7 370.0C200.4 309.5 199.8 305.6 188.1 292.8C179.6 283.5 166.3 277.9 147.9 276.0C136.3 274.9 88.8 274.8 81.8 276.0C81.8 276.0 81.8 276.0 81.8 276.0Z"/>
</g>
</svg>