<!DOCTYPE svg PUBLIC "-//W3C//DTD SVG 20010904//EN" "http://www.w3.org/TR/2001/REC-SVG-20010904/DTD/svg10.dtd">
<svg xmlns="http://www.w3.org/2000/svg" version="1.0" width="350.000000pt" height="808.000000pt" viewBox="0 0 350.000000 808.000000" preserveAspectRatio="xMidYMid meet">
<metadata>
Created by potrace 1.13, written by Peter Selinger 2001-2015
</metadata>
<g fill="#000000" stroke="none">
<path d="M115.9 38.4C115.7 38.6 107.0 39.3 96.5 39.9C57.1 42.3 48.7 45.6 46.1 60.0C44.2 71.0 45.4 73.4 59.9 88.3C66.8 95.4 75.7 103.9 79.7 107.1C85.3 111.8 87.6 114.4 89.9 119.3C96.5 132.8 97.4 143.9 93.9 166.6C92.0 179.2 91.9 182.8 92.4 220.8C92.7 243.2 93.3 272.1 93.6 285.0C94.2 308.2 93.5 327.9 90.4 368.7C88.6 392.8 88.7 406.8 90.5 434.0C92.8 468.0 92.6 475.3 87.9 527.5C87.3 534.6 86.4 548.8 85.9 559.0C85.5 569.2 84.7 582.2 84.1 588.0C83.5 593.8 83.1 606.4 83.0 616.0C83.0 636.8 81.6 649.9 78.8 655.8C75.9 661.9 68.0 670.1 58.9 676.6C42.9 687.9 38.1 694.7 38.0 706.3C38.0 715.3 39.8 719.3 45.5 722.9C51.5 726.7 72.5 734.4 86.0 737.8C101.2 741.5 118.8 741.3 139.0 737.1C153.0 734.1 154.4 734.0 179.5 734.0C213.2 734.0 263.4 732.3 273.0 730.9C282.6 729.5 290.7 726.4 294.2 722.9C297.7 719.5 297.9 714.7 295.0 703.4C292.3 693.1 289.8 689.6 280.9 683.4C275.5 679.7 271.7 676.0 266.7 669.4C256.1 655.5 256.0 655.0 254.9 618.5C253.4 569.1 253.4 553.7 254.9 533.9C256.1 518.4 256.1 513.8 255.1 505.9C252.9 490.2 252.7 474.7 254.5 453.5C255.6 440.5 256.5 414.8 257.0 380.0C257.5 349.8 258.3 324.1 258.9 321.0C259.6 317.4 259.9 292.8 259.8 248.5C259.6 188.8 259.8 180.6 261.3 173.0C262.2 168.3 263.5 157.1 264.0 148.0C265.2 128.4 266.6 121.1 270.4 114.5C273.2 109.8 284.3 98.1 300.2 83.2C308.6 75.4 311.7 70.5 312.7 63.5C313.9 54.5 310.0 47.1 301.9 42.9C292.8 38.3 288.4 38.1 236.2 39.2C200.7 40.0 181.7 39.9 166.0 39.1C144.9 38.0 116.7 37.6 115.9 38.4C115.9 38.4 115.9 38.4 115.9 38.4Z"/>
</g>
</svg>