<!DOCTYPE svg PUBLIC "-//W3C//DTD SVG 20010904//EN" "http://www.w3.org/TR/2001/REC-SVG-20010904/DTD/svg10.dtd">
<svg xmlns="http://www.w3.org/2000/svg" version="1.0" width="471.000000pt" height="767.000000pt" viewBox="0 0 471.000000 767.000000" preserveAspectRatio="xMidYMid meet">
<metadata>
Created by potrace 1.13, written by Peter Selinger 2001-2015
</metadata>
<g fill="#000000" stroke="none">
<path d="M190.0 29.0C178.5 30.6 176.1 34.3 176.1 50.7C176.0 61.8 177.3 69.5 180.0 75.0C181.0 76.9 185.6 82.0 190.2 86.2C200.0 95.1 214.2 114.2 217.0 122.3C220.1 131.2 221.0 146.2 221.0 191.4C221.0 217.1 221.4 236.0 222.0 238.1C222.6 240.1 224.9 244.5 227.3 248.0C229.6 251.5 232.6 256.0 233.8 258.2C233.8 258.2 236.2 262.1 236.2 262.1C236.2 262.1 236.0 363.6 236.0 363.6C236.0 363.6 235.9 465.2 235.9 465.2C235.9 465.2 233.6 471.3 233.6 471.3C228.3 485.4 215.9 507.2 210.8 511.6C205.9 515.7 199.6 514.7 182.9 507.2C173.7 503.1 165.2 500.2 156.0 497.9C143.6 494.9 142.2 494.8 137.1 495.9C134.0 496.6 125.3 498.4 117.7 500.1C101.6 503.5 98.8 504.6 90.6 510.4C87.3 512.8 81.1 516.6 77.0 518.9C67.4 524.3 63.9 527.7 59.6 536.0C57.6 539.7 54.0 545.3 51.4 548.6C46.5 555.0 44.4 559.1 42.9 565.8C41.3 573.1 38.8 599.2 39.5 602.0C39.9 603.4 40.5 613.0 40.9 623.5C41.7 645.9 42.5 648.3 51.8 658.3C55.1 661.8 60.7 669.2 64.3 674.6C73.5 688.7 92.3 707.7 105.5 716.1C105.5 716.1 115.5 722.5 115.5 722.5C115.5 722.5 150.5 723.0 150.5 723.0C150.5 723.0 185.5 723.5 185.5 723.5C185.5 723.5 193.2 726.8 193.2 726.8C205.0 731.7 207.7 731.8 215.3 728.1C222.8 724.5 230.2 723.0 241.3 723.0C250.1 723.0 270.8 718.7 282.8 714.4C288.5 712.3 291.6 710.4 297.0 705.4C305.3 697.8 308.8 695.9 321.0 692.5C336.8 688.1 341.0 685.0 348.0 672.9C350.3 669.1 354.3 663.2 356.9 659.7C363.9 650.6 367.4 643.8 370.5 633.5C373.6 623.2 375.5 619.6 382.3 612.1C385.0 609.2 388.1 604.9 389.1 602.6C390.9 598.6 391.0 591.3 391.0 376.4C391.0 231.2 391.4 149.8 392.0 141.4C393.3 125.9 394.8 122.0 402.0 116.0C413.9 105.9 430.3 87.8 433.0 81.8C435.3 76.5 436.5 67.6 435.6 62.6C434.7 57.6 430.1 52.7 420.5 46.4C416.1 43.5 410.5 39.8 408.2 38.1C405.8 36.4 401.3 34.0 398.2 32.8C398.2 32.8 392.5 30.5 392.5 30.5C392.5 30.5 306.5 29.8 306.5 29.8C259.2 29.5 215.1 28.9 208.5 28.6C201.9 28.4 193.6 28.5 190.0 29.0C190.0 29.0 190.0 29.0 190.0 29.0Z"/>
</g>
</svg>