<!DOCTYPE svg PUBLIC "-//W3C//DTD SVG 20010904//EN" "http://www.w3.org/TR/2001/REC-SVG-20010904/DTD/svg10.dtd">
<svg xmlns="http://www.w3.org/2000/svg" version="1.0" width="364.000000pt" height="983.000000pt" viewBox="0 0 364.000000 983.000000" preserveAspectRatio="xMidYMid meet">
<metadata>
Created by potrace 1.13, written by Peter Selinger 2001-2015
</metadata>
<g fill="#000000" stroke="none">
<path d="M233.6 39.1C219.9 42.4 213.6 46.1 203.0 56.9C188.6 71.5 183.8 83.4 183.8 105.0C183.8 125.5 190.9 139.1 209.8 154.8C222.5 165.3 231.8 168.4 250.5 168.3C273.7 168.2 283.3 164.4 297.7 149.7C308.3 138.8 311.3 134.1 314.1 123.4C316.8 113.0 317.1 94.4 314.7 85.0C308.6 61.7 292.4 46.0 267.0 39.1C257.4 36.4 244.4 36.4 233.6 39.1C233.6 39.1 233.6 39.1 233.6 39.1Z"/>
<path d="M179.0 253.5C164.9 255.8 155.1 260.1 147.2 267.4C140.4 273.6 139.3 279.9 143.4 288.5C146.2 294.4 150.7 298.8 161.3 306.0C170.7 312.4 174.4 316.5 178.2 324.5C183.6 336.2 183.7 337.2 183.5 428.0C183.3 510.6 182.6 534.1 179.0 573.5C177.5 590.7 176.0 637.4 176.0 670.4C176.0 713.5 173.4 752.8 169.8 763.5C165.3 777.2 157.4 789.1 151.6 791.0C146.5 792.6 142.0 791.0 130.5 783.5C108.6 769.1 96.9 765.8 81.2 769.5C56.2 775.4 42.5 795.5 39.1 831.1C36.0 863.2 47.6 890.7 70.7 906.2C80.6 912.9 102.2 921.9 112.8 923.7C123.4 925.6 148.4 925.0 160.5 922.6C171.9 920.4 193.9 912.8 201.8 908.4C220.7 897.9 242.6 879.6 254.1 864.7C262.3 854.1 275.8 834.4 278.7 828.5C282.1 821.9 289.6 803.0 292.4 794.1C296.8 780.2 302.1 728.5 300.6 714.5C299.5 704.0 299.6 544.6 300.8 530.0C304.0 489.5 305.1 465.8 306.2 415.5C307.5 354.8 307.4 314.7 305.9 302.6C304.0 288.3 297.5 274.0 289.9 267.6C282.8 261.6 277.0 259.8 259.5 258.0C253.5 257.4 242.4 256.0 235.0 254.9C217.1 252.3 190.3 251.6 179.0 253.5C179.0 253.5 179.0 253.5 179.0 253.5Z"/>
</g>
</svg>