<!DOCTYPE svg PUBLIC "-//W3C//DTD SVG 20010904//EN" "http://www.w3.org/TR/2001/REC-SVG-20010904/DTD/svg10.dtd">
<svg xmlns="http://www.w3.org/2000/svg" version="1.0" width="566.000000pt" height="767.000000pt" viewBox="0 0 566.000000 767.000000" preserveAspectRatio="xMidYMid meet">
<metadata>
Created by potrace 1.13, written by Peter Selinger 2001-2015
</metadata>
<g fill="#000000" stroke="none">
<path d="M69.5 42.5C61.5 44.3 52.8 47.6 49.5 50.2C43.8 54.7 41.6 64.3 44.4 72.3C46.2 77.2 48.2 79.4 55.0 83.7C62.1 88.2 64.4 90.3 69.2 96.8C71.4 99.7 76.4 105.3 80.4 109.3C89.4 118.2 91.1 122.3 91.6 137.0C91.8 142.8 92.4 156.8 93.1 168.2C94.0 184.0 94.0 191.5 93.1 200.2C91.4 216.6 91.3 232.5 92.8 258.0C93.9 275.6 94.1 318.2 93.8 455.0C93.5 613.0 93.3 630.0 91.8 635.0C90.3 640.0 89.0 641.6 76.9 653.3C65.3 664.3 62.2 666.7 54.2 670.7C41.7 676.9 40.6 678.5 41.2 690.0C42.1 704.4 45.4 708.8 58.9 713.1C65.4 715.2 66.8 715.3 127.5 715.1C191.6 714.9 223.5 713.9 245.0 711.4C261.8 709.5 273.8 709.6 292.7 711.9C301.4 713.0 313.9 714.4 320.5 715.0C327.1 715.6 334.3 716.6 336.5 717.2C339.1 717.9 360.5 718.6 396.5 719.0C446.0 719.6 453.2 719.9 458.5 721.5C467.4 724.1 481.6 723.1 499.4 718.5C514.3 714.6 516.2 713.9 519.8 710.6C523.1 707.7 524.8 704.2 526.6 696.4C529.7 682.8 527.9 672.9 520.5 664.2C516.9 660.0 513.1 658.1 498.7 653.5C487.9 650.0 486.3 649.2 480.6 644.0C477.2 640.9 470.3 635.6 465.4 632.2C456.7 626.3 452.4 622.0 442.8 609.5C436.7 601.6 433.2 594.3 428.0 578.5C422.4 561.6 421.1 559.2 414.7 553.4C408.0 547.3 406.6 545.2 403.5 536.0C400.1 526.0 397.2 521.5 390.2 514.8C383.4 508.5 382.0 506.1 379.5 497.5C377.1 489.2 374.0 483.4 368.4 477.0C365.8 474.0 361.2 467.8 358.3 463.2C355.3 458.6 351.1 453.2 348.8 451.2C338.4 441.9 337.2 440.3 335.9 434.3C335.2 431.1 334.6 423.5 334.6 417.5C334.5 407.7 334.8 405.8 337.2 400.0C339.3 394.9 341.2 392.4 345.7 388.5C359.2 376.8 374.5 359.4 377.7 352.1C383.7 338.6 384.2 337.9 391.4 332.3C395.3 329.2 401.0 324.3 404.0 321.5C411.3 314.7 415.6 312.6 428.4 309.5C434.2 308.2 440.7 306.2 442.7 305.1C449.2 301.8 463.7 285.2 467.3 277.2C468.5 274.2 469.2 270.4 469.2 265.8C469.3 259.1 469.0 258.2 462.9 246.3C459.2 239.1 455.1 232.6 453.2 230.9C450.0 228.0 435.9 223.0 425.5 221.1C422.5 220.5 413.1 220.4 402.8 220.9C402.8 220.9 385.2 221.6 385.2 221.6C385.2 221.6 377.3 225.7 377.3 225.7C366.7 231.2 364.3 231.8 350.7 232.9C337.3 234.0 333.8 235.4 320.5 244.5C305.3 254.9 299.9 262.3 299.8 272.6C299.7 278.0 300.3 279.3 308.4 292.5C313.6 301.0 316.4 310.7 316.5 320.6C316.5 328.4 316.3 329.0 311.5 338.3C308.8 343.6 304.2 351.2 301.3 355.2C298.4 359.2 291.3 369.5 285.6 378.0C279.9 386.5 272.9 396.2 270.1 399.5C267.3 402.8 262.4 408.9 259.1 413.1C255.5 417.7 251.8 421.2 249.8 422.1C244.8 424.2 236.7 423.9 233.4 421.4C226.1 416.0 224.2 409.2 223.3 386.0C222.8 372.7 222.2 368.0 220.3 361.5C216.4 348.6 216.3 342.1 219.8 320.0C222.9 300.7 222.9 299.9 223.4 255.0C223.9 204.1 223.9 203.9 231.4 182.6C236.6 168.1 237.4 163.1 236.2 152.3C235.2 144.1 234.9 143.3 228.9 132.5C228.9 132.5 225.5 126.5 225.5 126.5C225.5 126.5 225.7 112.0 225.7 112.0C225.9 100.5 225.4 94.3 223.5 82.5C220.7 65.6 218.0 58.8 212.2 54.0C206.9 49.5 193.5 43.3 186.6 42.1C177.4 40.4 77.2 40.8 69.5 42.5C69.5 42.5 69.5 42.5 69.5 42.5M240.9 553.2C242.9 555.5 247.9 561.0 252.0 565.4C262.4 576.7 266.2 581.5 270.6 589.0C272.7 592.6 277.2 599.2 280.6 603.6C287.6 612.8 288.9 616.8 289.7 631.5C290.2 640.1 290.1 640.7 287.3 645.0C283.0 651.5 277.8 654.7 269.5 655.9C252.5 658.3 232.9 651.3 227.4 640.8C226.6 639.3 225.1 632.2 223.9 625.0C222.8 617.7 221.0 609.3 219.9 606.2C217.1 598.0 217.3 586.2 220.5 578.5C221.9 575.2 224.0 568.9 225.1 564.5C229.3 548.2 233.8 545.0 240.9 553.2C240.9 553.2 240.9 553.2 240.9 553.2Z"/>
</g>
</svg>