<!DOCTYPE svg PUBLIC "-//W3C//DTD SVG 20010904//EN" "http://www.w3.org/TR/2001/REC-SVG-20010904/DTD/svg10.dtd">
<svg xmlns="http://www.w3.org/2000/svg" version="1.0" width="579.000000pt" height="781.000000pt" viewBox="0 0 579.000000 781.000000" preserveAspectRatio="xMidYMid meet">
<metadata>
Created by potrace 1.13, written by Peter Selinger 2001-2015
</metadata>
<g fill="#000000" stroke="none">
<path d="M121.0 40.7C101.3 41.6 79.1 46.0 71.8 50.4C61.0 56.9 57.3 67.3 62.5 76.7C66.5 84.2 72.9 90.2 85.4 98.4C102.9 109.8 107.5 115.4 111.7 130.1C113.3 135.9 113.5 140.6 113.4 178.0C113.3 200.8 112.7 223.9 112.1 229.2C110.5 243.2 110.7 299.1 112.5 319.4C114.1 338.4 113.6 350.8 109.9 378.3C108.3 390.3 107.9 396.7 108.4 405.3C110.1 435.3 110.2 474.7 108.6 506.5C107.8 524.6 106.8 551.0 106.5 565.0C105.9 589.9 101.8 632.8 98.8 645.0C97.0 652.2 93.2 658.9 87.6 664.5C81.1 671.0 75.6 674.2 60.1 680.5C44.3 686.8 41.8 689.5 41.2 700.0C40.9 705.6 41.2 707.8 42.9 711.4C47.5 720.7 56.3 726.2 72.1 729.4C90.6 733.1 162.7 734.9 187.0 732.2C194.2 731.4 217.8 730.8 250.0 730.6C296.2 730.2 303.0 730.4 316.5 732.1C325.1 733.2 341.1 734.3 354.0 734.6C366.4 734.9 382.1 735.9 389.0 736.8C398.8 738.1 409.1 738.5 437.0 738.5C475.3 738.5 476.7 738.4 515.0 731.4C535.8 727.5 541.4 724.3 550.9 710.5C559.8 697.7 561.2 691.0 563.0 655.0C564.5 624.1 565.6 614.7 569.6 598.6C573.3 583.4 573.8 576.4 571.6 568.2C570.8 565.2 569.9 557.6 569.5 551.2C569.0 541.0 566.6 524.8 562.9 506.0C560.8 495.8 557.5 492.0 550.5 492.0C547.7 492.0 545.0 492.9 541.9 494.9C533.1 500.6 530.4 504.6 510.7 541.0C505.3 551.2 496.0 566.9 490.2 576.0C484.4 585.1 476.6 597.6 472.8 603.9C469.0 610.2 463.9 617.9 461.4 621.1C455.7 628.2 436.3 645.8 427.2 651.9C417.5 658.4 385.5 675.0 379.6 676.7C376.8 677.4 366.9 678.5 357.5 679.0C348.2 679.5 335.4 680.5 329.1 681.1C309.4 683.1 296.3 680.6 286.3 673.0C281.3 669.3 275.7 661.1 274.0 655.0C270.8 643.8 269.5 588.9 271.8 562.0C272.9 549.9 273.0 537.2 272.3 504.0C271.7 477.0 271.7 445.7 272.4 418.0C272.9 394.1 273.3 361.4 273.1 345.5C273.0 329.5 273.4 307.7 274.1 297.0C274.8 286.3 275.4 267.1 275.5 254.5C275.8 202.8 277.2 137.0 278.1 130.1C279.5 119.2 282.5 114.5 293.7 105.5C304.2 97.1 307.3 95.3 320.0 90.5C324.9 88.6 330.7 85.9 333.0 84.4C343.2 77.6 346.5 66.3 340.7 58.6C337.1 53.9 329.1 48.6 321.8 46.0C310.2 42.0 304.5 41.7 240.0 42.3C191.5 42.8 174.7 42.6 160.5 41.5C143.5 40.1 136.2 40.0 121.0 40.7C121.0 40.7 121.0 40.7 121.0 40.7Z"/>
</g>
</svg>