<!DOCTYPE svg PUBLIC "-//W3C//DTD SVG 20010904//EN" "http://www.w3.org/TR/2001/REC-SVG-20010904/DTD/svg10.dtd">
<svg xmlns="http://www.w3.org/2000/svg" version="1.0" width="256.000000pt" height="741.000000pt" viewBox="0 0 256.000000 741.000000" preserveAspectRatio="xMidYMid meet">
<metadata>
Created by potrace 1.13, written by Peter Selinger 2001-2015
</metadata>
<g fill="#000000" stroke="none">
<path d="M92.5 38.7C85.1 39.8 72.8 43.1 67.9 45.3C52.0 52.3 47.7 66.7 56.7 83.2C59.0 87.2 62.8 94.0 65.3 98.2C67.7 102.5 70.9 109.5 72.3 113.9C77.2 128.6 78.0 137.2 79.0 187.0C80.1 241.9 79.4 397.6 77.9 430.5C77.3 443.7 77.0 482.8 77.1 522.5C77.4 583.3 77.3 593.0 75.7 604.0C72.4 628.5 69.9 635.1 56.8 653.8C46.1 669.1 43.7 673.9 43.2 681.1C42.5 691.0 46.5 698.8 55.4 704.9C66.1 712.3 79.8 713.5 145.1 712.6C172.9 712.2 198.6 711.5 202.1 710.9C214.0 709.0 222.8 703.6 227.8 695.1C230.0 691.3 230.5 689.3 230.5 683.5C230.5 675.0 227.9 669.4 217.3 654.4C201.9 632.8 199.8 624.5 198.0 579.8C197.1 557.2 196.5 499.7 196.8 466.0C196.9 456.9 197.1 409.2 197.4 360.0C197.6 310.8 198.3 244.2 198.9 212.0C201.4 78.6 201.4 83.1 199.6 75.1C197.5 65.2 194.7 59.7 188.4 53.5C182.3 47.4 175.4 43.8 163.8 40.9C156.4 39.0 152.2 38.7 125.5 38.5C109.0 38.3 94.2 38.4 92.5 38.7C92.5 38.7 92.5 38.7 92.5 38.7Z"/>
</g>
</svg>