<!DOCTYPE svg PUBLIC "-//W3C//DTD SVG 20010904//EN" "http://www.w3.org/TR/2001/REC-SVG-20010904/DTD/svg10.dtd">
<svg xmlns="http://www.w3.org/2000/svg" version="1.0" width="781.000000pt" height="781.000000pt" viewBox="0 0 781.000000 781.000000" preserveAspectRatio="xMidYMid meet">
<metadata>
Created by potrace 1.13, written by Peter Selinger 2001-2015
</metadata>
<g fill="#000000" stroke="none">
<path d="M644.5 43.2C627.3 44.3 598.6 44.7 572.5 44.1C530.5 43.3 511.6 50.5 498.7 72.1C491.0 85.3 486.5 100.0 482.4 125.5C481.0 134.3 478.5 147.1 476.9 154.0C475.3 160.9 472.8 173.5 471.4 182.0C470.0 191.0 467.1 203.3 464.6 211.5C462.2 219.2 459.5 230.2 458.6 236.0C455.8 253.8 454.3 259.4 449.7 269.6C443.6 283.3 439.7 295.4 433.5 320.7C428.7 339.8 427.3 344.0 422.0 354.7C415.7 367.3 410.8 373.4 404.6 376.4C394.3 381.3 383.2 374.5 373.2 357.3C367.7 348.0 365.9 343.0 361.0 324.9C358.7 316.5 355.5 306.0 353.9 301.6C352.2 297.1 347.8 281.6 344.0 267.0C340.2 252.4 335.1 234.7 332.6 227.6C330.0 220.3 326.4 207.2 324.5 197.8C322.6 188.5 319.0 174.7 316.5 167.2C314.1 159.7 310.3 147.2 308.2 139.5C299.4 108.2 293.6 89.3 291.5 85.0C285.4 73.0 274.7 62.0 264.4 57.4C257.0 54.1 243.6 50.2 235.5 49.0C231.6 48.4 195.8 47.6 154.2 47.1C74.9 46.1 72.3 46.2 63.2 50.9C55.3 54.9 49.0 65.2 49.0 74.2C49.0 79.3 52.2 85.8 56.8 90.2C58.8 92.2 66.8 97.5 74.5 101.9C82.9 106.8 90.0 111.6 92.2 114.1C104.8 128.0 111.1 160.4 106.9 190.5C106.1 196.6 105.7 212.2 105.8 239.0C105.9 260.7 105.5 285.0 105.0 293.0C104.2 303.3 104.3 312.2 105.1 323.7C106.0 336.9 105.9 344.6 104.6 366.2C102.9 394.9 102.3 449.8 103.4 473.5C104.0 485.9 103.8 491.0 102.2 502.5C100.4 515.3 100.3 520.8 100.6 568.5C101.1 629.6 99.9 648.4 94.8 658.4C91.9 664.1 76.6 678.8 69.2 683.0C50.1 693.9 47.3 696.6 44.4 707.9C40.9 721.9 46.3 733.0 58.8 737.4C65.0 739.6 78.8 740.3 91.8 739.2C99.4 738.5 110.0 738.5 123.8 739.2C159.9 740.9 180.4 740.8 189.5 738.6C199.7 736.3 203.9 734.1 208.2 729.0C212.2 724.4 214.0 719.2 214.0 712.4C213.9 702.2 206.9 695.1 192.4 690.5C174.6 684.9 166.6 678.7 156.8 662.3C150.3 651.5 149.1 646.2 148.0 621.0C147.5 609.2 146.6 595.2 146.1 590.0C143.9 568.2 143.8 551.2 145.9 530.9C149.0 501.0 150.7 436.2 149.1 410.8C147.7 388.4 147.5 390.9 153.9 351.5C156.1 338.3 158.1 323.9 158.4 319.5C159.3 305.4 163.9 297.0 170.8 297.0C178.7 297.0 196.4 319.5 202.0 336.8C203.8 342.1 206.4 348.9 208.0 351.9C212.3 360.5 219.9 378.7 222.5 386.5C223.7 390.3 226.9 403.8 229.4 416.4C232.5 431.2 235.7 443.7 238.6 451.9C241.1 458.8 244.7 470.1 246.6 477.0C248.6 483.9 252.1 495.9 254.6 503.6C257.0 511.4 260.4 524.0 262.1 531.6C266.0 549.6 275.5 583.8 283.0 606.5C286.2 616.4 289.8 628.2 291.0 632.8C292.1 637.4 293.9 643.5 295.0 646.3C296.0 649.2 298.7 658.0 300.9 666.0C305.4 682.4 313.4 704.2 318.7 714.3C324.5 725.3 333.9 731.0 346.4 731.0C357.2 731.0 360.8 727.1 368.9 706.5C373.4 694.9 380.6 667.4 384.9 644.8C388.8 624.2 390.3 619.0 395.0 607.4C400.5 594.0 401.5 590.1 405.0 568.5C407.5 553.6 409.3 546.0 413.6 533.5C420.1 514.1 421.3 509.0 424.0 488.7C426.9 466.6 429.4 454.0 434.0 439.8C436.1 433.0 439.5 421.0 441.6 413.0C452.3 371.0 469.8 335.1 484.7 324.6C498.2 315.1 507.3 329.4 510.0 364.0C510.5 370.9 511.0 400.3 511.0 429.5C511.1 458.6 511.5 489.2 512.0 497.5C514.3 535.2 514.3 539.3 511.6 570.7C510.2 587.3 509.0 606.2 509.0 612.7C509.0 626.3 506.8 638.5 502.1 650.4C496.7 664.4 489.9 673.0 474.0 686.0C464.6 693.6 462.6 696.8 462.2 704.9C461.4 718.2 467.3 724.2 485.6 729.0C503.6 733.7 519.6 735.2 552.5 735.5C575.6 735.7 586.3 736.2 594.5 737.5C622.2 741.7 675.3 737.3 693.3 729.3C699.4 726.5 704.6 721.6 705.6 717.4C706.6 713.5 705.5 704.9 703.5 700.7C702.5 698.6 699.4 694.7 696.6 692.2C682.2 679.0 674.4 670.1 670.3 662.4C668.0 658.0 665.6 652.2 665.0 649.5C663.6 643.4 663.6 623.1 665.0 597.5C665.6 587.0 666.5 552.4 667.0 520.5C667.6 481.3 668.4 457.5 669.5 447.0C671.5 427.9 673.3 251.2 671.7 231.5C671.2 224.9 671.0 215.0 671.4 209.5C673.4 172.5 675.2 149.9 676.6 143.7C680.3 126.8 688.7 115.6 704.1 106.6C720.4 97.2 729.2 90.8 732.1 86.2C740.0 73.8 734.3 56.7 719.8 49.4C710.2 44.5 700.2 42.8 679.0 42.5C668.3 42.3 652.8 42.6 644.5 43.2C644.5 43.2 644.5 43.2 644.5 43.2Z"/>
</g>
</svg>