<!DOCTYPE svg PUBLIC "-//W3C//DTD SVG 20010904//EN" "http://www.w3.org/TR/2001/REC-SVG-20010904/DTD/svg10.dtd">
<svg xmlns="http://www.w3.org/2000/svg" version="1.0" width="794.000000pt" height="592.000000pt" viewBox="0 0 794.000000 592.000000" preserveAspectRatio="xMidYMid meet">
<metadata>
Created by potrace 1.13, written by Peter Selinger 2001-2015
</metadata>
<g fill="#000000" stroke="none">
<path d="M286.0 41.7C276.1 42.8 264.1 45.7 249.6 50.5C224.8 58.7 222.0 59.3 208.5 59.3C198.4 59.3 194.0 58.8 180.5 55.7C155.0 50.0 149.9 49.5 113.5 49.5C81.3 49.5 80.3 49.6 73.1 51.9C59.0 56.5 52.5 64.2 52.7 76.0C52.8 84.1 54.5 88.8 62.0 101.5C78.4 129.3 80.4 142.4 80.5 226.5C80.7 319.9 79.4 407.9 77.6 418.8C75.1 434.0 69.7 444.9 57.4 459.8C38.2 483.1 41.2 504.7 64.6 511.9C73.1 514.6 84.8 515.7 116.9 517.1C155.1 518.6 202.8 516.4 218.4 512.4C227.5 510.0 235.8 505.4 242.2 499.0C247.1 494.0 248.0 492.6 248.0 489.5C248.0 484.0 244.9 479.0 233.9 466.7C217.5 448.4 211.8 438.6 208.4 423.0C207.5 419.0 206.6 405.4 206.0 387.5C205.5 371.5 204.9 355.1 204.6 351.0C203.9 338.4 205.8 228.2 207.0 216.5C207.6 210.4 209.0 200.0 210.1 193.2C212.5 178.8 222.6 141.1 227.0 130.8C233.0 116.2 246.0 102.8 258.4 98.1C288.4 86.9 314.8 101.2 322.9 133.1C330.0 161.0 333.6 247.0 332.0 351.0C331.1 404.9 330.3 419.4 327.6 431.1C324.4 445.1 320.3 451.5 304.2 468.3C297.4 475.4 292.0 481.9 290.9 484.5C289.1 488.5 289.1 489.2 290.4 492.4C293.9 500.9 307.6 509.8 322.2 513.4C332.9 516.0 342.8 516.2 403.0 515.2C455.1 514.3 460.1 514.1 467.2 512.2C489.1 506.3 500.3 493.1 494.7 479.9C493.9 478.0 488.5 471.0 482.8 464.3C467.1 446.0 461.1 433.1 459.1 413.3C458.5 407.9 457.6 390.9 457.0 375.5C456.5 360.1 455.5 337.7 454.9 325.7C454.2 310.4 454.2 295.0 454.9 273.7C456.6 224.5 456.9 221.2 459.5 204.5C460.9 195.7 463.2 181.3 464.5 172.5C469.1 143.1 472.9 131.9 483.0 118.6C490.8 108.3 505.8 98.6 517.8 96.1C543.2 90.8 565.9 104.5 575.0 130.5C580.2 145.4 580.7 150.6 584.2 227.5C585.9 263.5 585.8 382.6 584.1 403.5C581.3 437.9 576.3 449.9 556.1 471.3C544.5 483.4 543.0 485.6 543.0 489.3C543.0 500.1 560.2 510.6 585.2 515.1C591.3 516.2 662.1 518.9 685.1 519.0C715.0 519.0 732.0 513.7 738.7 502.3C741.1 498.3 741.5 496.4 741.5 490.4C741.5 484.3 741.0 482.4 737.8 475.9C735.7 471.9 731.4 465.2 728.1 461.1C720.3 451.3 715.4 442.9 713.0 435.2C709.0 422.3 708.7 414.3 709.6 338.5C710.9 233.1 710.8 175.4 709.2 164.5C706.5 145.6 699.8 126.5 691.4 113.8C685.8 105.3 664.5 83.6 654.7 76.4C626.5 55.6 596.9 46.6 557.0 46.6C538.6 46.6 529.7 47.7 513.5 52.0C498.7 55.9 492.0 58.7 476.7 67.1C459.0 77.0 453.3 79.1 443.5 79.7C431.6 80.5 425.5 78.6 400.5 66.1C372.0 51.8 355.1 46.1 331.5 42.5C322.3 41.1 295.7 40.7 286.0 41.7C286.0 41.7 286.0 41.7 286.0 41.7Z"/>
</g>
</svg>