<!DOCTYPE svg PUBLIC "-//W3C//DTD SVG 20010904//EN" "http://www.w3.org/TR/2001/REC-SVG-20010904/DTD/svg10.dtd">
<svg xmlns="http://www.w3.org/2000/svg" version="1.0" width="592.000000pt" height="592.000000pt" viewBox="0 0 592.000000 592.000000" preserveAspectRatio="xMidYMid meet">
<metadata>
Created by potrace 1.13, written by Peter Selinger 2001-2015
</metadata>
<g fill="#000000" stroke="none">
<path d="M281.8 41.6C269.8 43.4 258.8 46.1 243.5 51.0C215.7 59.9 207.4 60.4 183.3 54.6C158.1 48.7 127.0 45.6 91.5 45.5C69.8 45.5 69.4 45.5 64.0 48.1C50.0 54.8 44.9 67.1 49.9 81.6C51.0 84.6 55.1 92.5 59.1 99.2C72.9 122.3 75.2 131.7 75.3 165.5C75.5 202.1 73.1 360.4 72.0 383.5C70.5 416.4 68.4 426.1 58.4 445.0C47.5 465.9 46.6 468.1 46.2 475.2C46.0 478.9 46.3 483.5 47.0 485.6C48.9 491.3 57.0 499.3 64.1 502.5C74.8 507.3 83.6 508.3 109.5 507.5C122.2 507.1 147.4 506.5 165.5 506.0C200.3 505.2 204.9 504.6 214.3 499.9C225.1 494.4 230.0 487.5 230.0 477.9C229.9 470.7 226.9 463.7 218.8 452.0C207.7 435.9 204.2 427.5 200.8 409.0C198.9 398.5 198.7 392.9 198.4 345.5C198.2 296.5 198.4 285.7 201.1 250.0C205.0 196.4 212.5 156.2 222.3 136.5C229.3 122.3 239.5 111.3 252.9 103.4C269.4 93.7 285.9 92.5 301.5 99.9C314.7 106.1 323.9 117.0 329.1 132.4C336.1 153.4 337.3 171.8 337.4 266.5C337.5 365.9 335.6 398.1 328.4 421.3C324.4 434.2 321.0 439.3 307.0 453.5C291.9 468.9 289.6 472.7 290.2 481.6C291.0 494.5 302.1 503.6 321.2 507.1C327.2 508.2 383.6 509.3 442.5 509.4C463.4 509.5 468.4 509.2 473.0 507.8C489.7 502.6 498.0 490.2 495.3 474.5C494.1 467.4 490.9 460.8 482.6 447.5C475.0 435.5 471.3 427.8 468.8 418.9C466.8 412.0 466.6 408.4 466.2 367.0C466.0 341.2 466.3 305.7 467.1 282.6C468.6 233.6 467.5 201.8 463.5 182.5C456.0 145.7 438.2 109.3 416.7 86.4C407.1 76.2 401.4 71.6 388.8 63.7C358.9 44.9 316.4 36.2 281.8 41.6C281.8 41.6 281.8 41.6 281.8 41.6Z"/>
</g>
</svg>