<!DOCTYPE svg PUBLIC "-//W3C//DTD SVG 20010904//EN" "http://www.w3.org/TR/2001/REC-SVG-20010904/DTD/svg10.dtd">
<svg xmlns="http://www.w3.org/2000/svg" version="1.0" width="687.000000pt" height="767.000000pt" viewBox="0 0 687.000000 767.000000" preserveAspectRatio="xMidYMid meet">
<metadata>
Created by potrace 1.13, written by Peter Selinger 2001-2015
</metadata>
<g fill="#000000" stroke="none">
<path d="M585.5 42.7C575.7 43.7 558.7 44.2 528.5 44.4C481.2 44.6 480.6 44.7 470.7 51.0C463.9 55.3 461.2 61.3 462.8 68.7C464.9 78.8 472.2 84.7 489.6 90.6C505.5 95.9 512.3 99.5 519.4 106.4C529.1 115.9 533.5 128.0 536.5 153.6C538.5 170.4 538.4 188.6 536.3 204.0C534.3 219.4 533.9 260.7 535.7 282.4C536.7 294.8 536.7 299.9 535.5 312.9C533.1 338.1 530.5 346.7 523.6 352.7C519.2 356.7 516.7 357.4 509.1 356.8C504.2 356.5 502.4 355.7 496.9 351.8C488.0 345.5 477.3 333.9 472.1 325.0C469.7 320.9 465.8 314.8 463.5 311.5C461.2 308.2 457.8 302.8 456.0 299.5C454.1 296.2 448.3 287.0 443.0 279.0C437.7 271.0 430.8 260.2 427.6 255.0C424.4 249.8 419.5 241.7 416.6 237.0C411.1 228.3 402.5 213.1 391.7 193.5C388.4 187.4 381.9 176.2 377.2 168.5C372.5 160.8 366.6 150.0 364.0 144.5C359.3 134.5 338.7 102.6 325.8 85.3C317.8 74.6 301.8 59.8 293.4 55.3C290.1 53.5 284.1 51.1 280.0 49.9C272.9 47.9 269.8 47.7 224.5 47.0C198.1 46.5 161.5 45.7 143.2 45.0C99.3 43.4 85.7 43.8 76.6 47.3C58.3 54.1 50.3 66.2 55.9 78.5C57.9 83.1 63.2 88.0 69.1 91.1C71.4 92.2 79.3 95.1 86.8 97.6C107.6 104.3 113.9 109.5 118.0 122.9C121.4 133.8 121.5 141.7 118.5 157.0C116.5 167.3 115.7 175.7 115.0 192.5C114.5 204.6 113.4 219.9 112.6 226.5C110.7 241.2 110.6 257.5 112.2 278.6C113.2 292.4 113.1 297.7 111.6 316.6C110.0 336.8 107.5 413.8 107.8 432.5C107.9 436.9 108.0 477.2 108.0 522.0C108.1 624.7 107.6 633.5 99.8 648.8C94.0 660.2 84.7 667.8 64.8 677.4C53.2 683.1 46.5 688.7 43.4 695.5C40.1 702.5 40.2 708.9 43.8 716.5C48.6 726.6 58.2 732.2 74.0 733.9C80.0 734.6 108.3 734.8 151.5 734.6C225.2 734.1 224.4 734.2 234.8 728.5C237.6 727.0 240.8 724.8 241.9 723.6C245.6 719.7 251.0 709.6 251.0 706.8C251.0 700.9 244.4 691.4 236.6 686.1C230.8 682.1 225.0 680.3 210.1 678.1C185.5 674.3 178.3 669.3 172.4 652.0C168.0 638.9 166.0 625.9 165.0 604.1C164.4 592.8 163.6 577.9 163.0 571.0C161.7 553.4 161.8 532.9 163.4 516.0C164.4 504.9 164.5 494.5 163.9 471.5C162.7 429.8 161.4 402.9 160.0 393.4C158.4 382.1 159.3 310.8 161.3 282.9C163.8 249.4 167.3 230.3 173.2 217.0C182.0 197.2 196.0 198.7 210.1 221.1C217.5 232.8 224.2 242.5 230.6 250.7C238.0 260.2 247.6 275.4 258.3 294.9C262.6 302.8 268.9 313.6 272.2 318.9C275.6 324.2 281.4 334.3 285.1 341.3C288.9 348.3 295.7 359.3 300.3 365.8C311.7 381.6 325.8 405.4 334.0 422.6C337.7 430.4 344.8 443.0 349.7 450.6C354.6 458.3 361.2 468.8 364.3 474.0C367.5 479.2 373.9 488.9 378.5 495.5C383.2 502.1 389.1 510.9 391.6 515.0C394.2 519.1 400.5 528.5 405.8 535.8C412.3 545.0 418.0 554.7 424.1 566.8C430.0 578.8 436.1 589.2 443.0 599.0C448.6 607.0 458.4 622.3 464.7 633.0C471.1 643.7 476.8 653.4 477.5 654.6C481.9 661.6 497.2 690.3 501.7 700.0C509.4 716.4 514.9 724.7 523.4 732.8C529.5 738.6 532.0 740.2 536.6 741.6C549.6 745.4 562.3 738.2 568.4 723.6C571.3 716.7 571.9 703.5 572.0 647.0C572.0 616.5 572.5 580.9 573.1 568.0C573.7 555.1 574.4 522.4 574.5 495.5C574.8 458.8 575.3 443.2 576.5 433.5C579.0 412.5 579.9 372.9 580.4 261.0C581.0 143.5 581.5 127.2 584.9 119.5C589.3 109.6 596.8 104.4 611.8 101.0C616.6 99.9 623.7 98.3 627.5 97.4C641.1 94.2 652.0 87.0 655.4 78.8C659.9 68.2 653.2 52.7 641.8 46.9C632.0 41.9 608.7 40.2 585.5 42.7C585.5 42.7 585.5 42.7 585.5 42.7Z"/>
</g>
</svg>