<!DOCTYPE svg PUBLIC "-//W3C//DTD SVG 20010904//EN" "http://www.w3.org/TR/2001/REC-SVG-20010904/DTD/svg10.dtd">
<svg xmlns="http://www.w3.org/2000/svg" version="1.0" width="700.000000pt" height="821.000000pt" viewBox="0 0 700.000000 821.000000" preserveAspectRatio="xMidYMid meet">
<metadata>
Created by potrace 1.13, written by Peter Selinger 2001-2015
</metadata>
<g fill="#000000" stroke="none">
<path d="M340.0 40.5C335.9 41.3 325.0 44.4 315.9 47.4C306.7 50.5 294.1 54.3 287.9 56.0C281.6 57.7 269.4 62.2 260.8 66.0C252.1 69.9 239.9 74.7 233.6 76.9C219.9 81.6 215.8 83.7 206.0 90.5C201.9 93.3 194.7 97.9 190.1 100.6C180.0 106.5 158.5 126.3 150.9 136.5C148.1 140.3 143.9 145.5 141.5 148.0C139.2 150.5 132.7 158.8 127.1 166.5C121.5 174.2 115.4 182.5 113.5 185.0C111.6 187.5 107.5 193.8 104.3 199.0C101.2 204.2 96.0 212.4 92.8 217.2C86.3 226.8 78.1 243.6 73.0 257.5C71.2 262.4 67.6 271.3 64.9 277.1C62.2 282.9 59.6 290.1 59.0 293.1C58.5 296.1 57.3 303.0 56.4 308.5C55.5 314.0 53.8 321.2 52.5 324.5C49.1 333.6 45.2 351.3 44.1 362.5C43.5 368.0 41.9 378.1 40.4 385.0C38.2 395.5 37.7 400.9 37.3 418.5C36.4 454.5 39.4 483.4 46.5 507.0C47.8 511.5 51.2 523.9 54.0 534.5C59.7 556.6 63.5 568.0 72.6 590.3C80.8 610.5 84.3 617.4 92.2 629.1C95.7 634.3 100.1 641.3 101.9 644.7C103.7 648.1 108.4 654.7 112.2 659.2C120.5 669.0 148.0 696.6 153.0 700.0C154.9 701.4 160.1 705.8 164.5 710.0C168.9 714.1 177.0 720.4 182.5 723.8C188.0 727.3 194.9 731.9 197.9 734.0C200.9 736.2 208.0 739.8 213.7 742.0C219.4 744.2 229.8 749.4 236.8 753.6C250.9 761.9 256.2 763.8 276.0 767.6C299.0 771.9 356.5 773.1 389.6 769.9C404.3 768.5 421.9 764.0 428.3 760.0C438.2 753.7 443.5 751.2 456.7 746.6C485.5 736.6 505.7 724.4 528.3 703.5C535.8 696.4 542.0 690.3 542.0 689.8C542.0 689.4 547.6 683.3 554.4 676.2C581.7 648.0 586.8 642.4 589.5 637.0C591.0 634.0 594.2 628.5 596.6 624.7C602.3 616.0 604.7 611.1 610.5 597.0C613.0 590.7 616.6 583.0 618.5 580.0C624.3 570.2 626.2 565.8 631.5 549.0C634.7 539.1 637.2 528.9 637.9 523.6C638.6 518.1 640.7 509.8 643.5 501.6C650.6 481.0 653.7 452.7 652.0 425.0C651.5 416.5 651.0 397.8 651.0 383.5C650.9 344.0 648.9 330.6 639.4 307.4C635.5 297.9 633.5 291.2 632.0 282.4C628.3 261.4 627.4 258.7 620.7 246.6C617.2 240.3 612.9 231.3 611.2 226.8C605.1 210.7 586.2 175.3 579.0 166.5C575.8 162.7 569.8 154.1 565.5 147.5C554.8 131.0 551.7 127.4 543.6 122.2C539.7 119.7 532.2 113.4 526.9 108.1C511.6 92.6 502.2 85.0 494.3 81.3C490.4 79.5 486.5 78.0 485.8 78.0C483.2 78.0 468.5 70.3 462.1 65.5C453.3 59.0 449.9 57.7 432.6 54.0C424.4 52.3 413.1 49.3 407.6 47.3C387.0 40.2 357.9 37.3 340.0 40.5C340.0 40.5 340.0 40.5 340.0 40.5M369.5 91.0C407.3 93.2 407.7 93.4 439.0 122.1C444.2 126.9 451.0 132.7 454.0 134.9C460.8 140.0 466.3 148.1 469.0 156.8C470.1 160.4 472.6 171.7 474.5 181.9C476.3 192.1 478.6 203.8 479.5 207.9C482.2 220.3 484.0 241.5 484.0 261.0C484.0 284.2 485.3 298.5 488.6 313.6C490.5 322.5 491.4 330.2 492.0 344.5C492.5 354.9 493.4 369.3 494.0 376.5C495.4 392.6 494.8 470.5 493.1 483.5C492.5 488.4 491.6 506.2 491.1 523.0C491.1 523.0 490.2 553.5 490.2 553.5C490.2 553.5 486.6 564.5 486.6 564.5C480.1 584.5 477.0 600.8 475.0 625.0C473.6 641.8 471.9 648.5 466.8 657.8C464.6 661.9 461.3 668.8 459.4 673.2C455.7 681.9 447.6 694.4 441.9 700.1C439.9 702.1 435.4 705.7 431.9 708.1C428.4 710.4 422.6 714.7 419.0 717.6C407.1 727.1 397.3 730.4 376.0 732.1C359.7 733.4 324.2 732.5 315.3 730.5C305.7 728.3 297.3 723.8 286.9 715.3C281.8 711.0 274.2 705.1 270.2 702.1C256.0 691.7 245.8 673.9 237.0 644.5C231.3 625.4 230.8 621.2 228.0 575.0C227.4 565.4 226.2 549.8 225.3 540.5C222.5 510.5 220.1 384.7 222.0 359.5C222.6 350.1 223.6 323.8 224.0 301.0C224.5 276.4 225.2 258.1 225.9 256.1C228.7 247.3 231.2 231.2 232.5 212.8C234.2 190.5 236.6 178.3 243.1 158.2C248.2 142.4 250.0 138.3 255.8 129.6C261.6 120.9 283.1 98.9 288.5 96.2C292.8 94.1 304.1 91.5 316.0 90.1C324.2 89.0 341.8 89.3 369.5 91.0C369.5 91.0 369.5 91.0 369.5 91.0Z"/>
</g>
</svg>