<!DOCTYPE svg PUBLIC "-//W3C//DTD SVG 20010904//EN" "http://www.w3.org/TR/2001/REC-SVG-20010904/DTD/svg10.dtd">
<svg xmlns="http://www.w3.org/2000/svg" version="1.0" width="525.000000pt" height="592.000000pt" viewBox="0 0 525.000000 592.000000" preserveAspectRatio="xMidYMid meet">
<metadata>
Created by potrace 1.13, written by Peter Selinger 2001-2015
</metadata>
<g fill="#000000" stroke="none">
<path d="M242.5 40.7C215.4 43.9 182.3 55.7 160.6 70.0C141.5 82.5 120.3 101.5 108.6 116.5C101.1 126.2 83.8 150.9 78.1 160.3C72.3 169.8 62.7 189.2 59.7 197.5C56.1 207.8 47.4 239.9 45.1 252.0C39.1 283.5 38.5 314.1 43.4 336.7C44.8 343.4 49.0 358.1 52.6 369.5C57.7 385.9 60.9 393.7 67.5 407.1C84.1 440.2 95.6 456.9 112.2 472.2C139.4 497.1 153.4 506.4 179.4 516.5C201.6 525.2 214.9 527.4 243.5 527.5C268.7 527.5 274.4 526.6 305.8 518.1C327.3 512.2 335.7 508.8 347.6 501.4C381.9 479.9 414.8 440.5 432.0 400.5C446.5 366.7 451.9 344.5 454.5 308.5C455.2 299.2 452.8 257.6 450.9 244.0C449.3 232.9 444.3 207.0 442.0 197.8C439.8 189.2 429.8 163.6 425.0 154.0C413.0 130.2 391.8 101.6 372.9 83.6C348.6 60.5 320.0 47.2 282.5 41.5C273.5 40.2 250.7 39.7 242.5 40.7C242.5 40.7 242.5 40.7 242.5 40.7M260.0 95.1C277.8 98.0 295.9 110.1 304.9 125.4C321.4 153.1 327.5 217.5 324.0 327.0C321.3 410.5 311.6 445.6 286.3 462.1C274.9 469.5 265.3 472.3 250.5 472.4C235.0 472.5 227.3 470.2 214.5 461.6C187.7 443.4 179.6 419.6 177.0 351.5C176.5 337.7 175.5 312.5 174.9 295.4C173.6 261.5 174.1 236.4 176.5 217.0C177.3 210.1 178.7 196.2 179.5 186.0C182.2 152.9 186.5 138.4 198.7 119.8C204.2 111.5 209.9 106.4 218.8 101.7C231.5 95.0 245.7 92.8 260.0 95.1C260.0 95.1 260.0 95.1 260.0 95.1Z"/>
</g>
</svg>