<!DOCTYPE svg PUBLIC "-//W3C//DTD SVG 20010904//EN" "http://www.w3.org/TR/2001/REC-SVG-20010904/DTD/svg10.dtd">
<svg xmlns="http://www.w3.org/2000/svg" version="1.0" width="566.000000pt" height="767.000000pt" viewBox="0 0 566.000000 767.000000" preserveAspectRatio="xMidYMid meet">
<metadata>
Created by potrace 1.13, written by Peter Selinger 2001-2015
</metadata>
<g fill="#000000" stroke="none">
<path d="M101.4 45.1C79.4 47.9 66.1 58.2 66.0 72.2C66.0 78.8 68.1 84.6 76.0 99.0C91.5 127.5 94.6 146.4 92.9 204.1C92.5 221.4 91.6 241.8 91.0 249.5C90.3 258.3 90.0 296.8 90.1 353.5C90.2 437.3 89.9 456.0 87.0 525.0C86.5 537.9 85.8 561.8 85.5 578.0C84.4 632.2 82.7 637.1 54.1 669.2C45.1 679.4 42.6 684.6 42.6 693.0C42.7 700.5 44.9 705.7 50.2 710.6C60.0 719.9 68.3 721.1 125.0 721.5C146.2 721.7 172.7 722.3 184.1 723.0C207.0 724.3 229.5 723.2 237.7 720.4C253.7 715.0 259.7 700.9 252.3 686.5C250.0 682.2 247.2 678.6 236.6 666.4C228.7 657.3 222.1 644.5 219.6 633.5C217.0 621.4 215.7 599.8 215.7 566.0C215.7 530.6 216.6 521.9 221.3 511.8C224.7 504.3 228.2 500.5 234.8 497.3C243.2 493.2 253.4 493.5 274.3 498.4C296.5 503.6 307.5 505.0 330.5 505.6C348.3 506.2 351.6 506.0 360.5 504.1C391.5 497.7 409.6 487.6 434.6 462.6C452.7 444.5 459.8 434.2 473.0 407.5C488.6 375.6 490.9 369.1 496.4 341.0C501.9 313.3 502.5 307.3 502.4 283.5C502.4 261.8 501.5 251.7 497.4 229.0C487.5 173.6 453.1 114.9 411.6 82.6C402.3 75.3 385.8 64.5 378.5 60.7C365.6 54.2 340.9 47.8 321.2 45.9C303.7 44.2 291.6 46.1 264.9 54.5C234.4 64.2 230.5 64.3 197.5 55.3C171.6 48.2 167.5 47.5 142.5 45.5C122.2 43.9 111.2 43.8 101.4 45.1C101.4 45.1 101.4 45.1 101.4 45.1M314.0 95.2C324.9 97.5 338.7 106.8 346.8 117.1C353.5 125.8 361.3 139.7 363.8 147.7C366.4 155.9 371.5 178.7 373.5 191.3C375.7 205.2 377.0 236.3 377.0 278.0C377.0 312.0 376.7 318.4 374.0 346.5C370.7 380.8 366.9 409.2 363.9 420.9C360.4 434.7 351.6 449.7 342.7 456.9C329.3 467.7 306.8 472.7 290.5 468.5C283.4 466.7 269.9 460.4 263.2 455.8C260.6 454.1 255.6 449.9 252.1 446.6C230.0 425.5 222.7 405.3 217.0 349.5C211.4 295.2 212.6 256.5 222.1 189.8C229.1 140.1 231.3 131.3 239.4 120.3C245.4 112.1 252.2 106.4 261.5 102.0C277.3 94.3 297.7 91.6 314.0 95.2C314.0 95.2 314.0 95.2 314.0 95.2Z"/>
</g>
</svg>