<!DOCTYPE svg PUBLIC "-//W3C//DTD SVG 20010904//EN" "http://www.w3.org/TR/2001/REC-SVG-20010904/DTD/svg10.dtd">
<svg xmlns="http://www.w3.org/2000/svg" version="1.0" width="619.000000pt" height="767.000000pt" viewBox="0 0 619.000000 767.000000" preserveAspectRatio="xMidYMid meet">
<metadata>
Created by potrace 1.13, written by Peter Selinger 2001-2015
</metadata>
<g fill="#000000" stroke="none">
<path d="M108.5 43.1C78.5 45.6 72.2 47.0 63.6 52.9C57.4 57.2 54.8 61.1 54.8 66.4C54.8 75.5 61.9 83.7 76.0 91.1C85.8 96.2 95.2 104.6 102.2 114.4C109.8 125.3 110.1 127.0 111.0 163.5C111.5 181.1 112.4 199.5 113.0 204.5C113.8 210.1 114.0 216.7 113.5 222.0C113.1 226.7 112.7 265.6 112.6 308.5C112.4 364.5 112.0 389.7 111.0 397.8C109.5 411.3 110.4 417.3 115.6 429.6C117.5 434.0 119.7 440.8 120.5 444.6C123.8 461.0 124.9 499.4 123.8 562.0C123.2 593.6 122.9 595.9 116.0 615.0C113.4 622.1 111.6 629.1 111.3 633.3C110.8 638.7 110.0 641.3 107.3 645.8C105.4 648.9 101.6 656.0 99.0 661.5C96.3 667.0 92.7 673.2 91.0 675.3C89.3 677.3 80.9 683.8 72.4 689.7C63.9 695.5 56.5 701.1 56.0 702.1C54.6 704.6 55.7 706.8 59.4 708.8C62.0 710.2 67.0 710.5 90.5 711.1C105.9 711.4 119.9 712.1 121.5 712.5C123.2 712.9 131.3 715.4 139.5 718.0C157.2 723.7 168.3 726.6 176.5 727.5C179.8 727.9 187.2 729.3 193.0 730.7C206.7 734.1 217.0 734.2 231.0 731.0C240.5 728.8 243.5 728.6 262.8 728.8C274.6 729.0 287.8 728.6 292.2 728.0C315.2 724.8 323.7 717.7 318.6 705.7C316.2 700.0 306.3 691.8 295.0 686.0C282.0 679.3 272.4 670.2 267.0 659.6C267.0 659.6 263.5 652.6 263.5 652.6C263.5 652.6 263.2 626.1 263.2 626.1C263.1 611.5 263.3 574.3 263.8 543.5C263.8 543.5 264.6 487.5 264.6 487.5C264.6 487.5 267.2 482.5 267.2 482.5C270.6 476.0 274.2 472.7 287.7 463.7C295.5 458.5 300.5 455.9 304.0 455.1C310.3 453.7 323.7 453.7 339.5 455.0C346.1 455.6 358.0 456.1 366.0 456.2C382.8 456.4 387.3 455.4 401.3 448.4C407.5 445.3 412.8 443.4 418.4 442.4C439.7 438.7 449.3 435.9 462.9 429.3C476.0 423.0 476.4 422.7 488.6 410.5C495.4 403.7 504.5 395.3 509.0 391.9C513.7 388.2 519.2 382.7 522.4 378.5C527.7 371.4 532.0 367.4 540.9 360.8C546.3 356.7 547.3 354.8 555.4 333.0C558.9 323.4 563.2 312.3 565.0 308.5C572.0 293.3 572.1 292.6 573.1 265.5C573.5 251.7 574.4 233.5 574.9 225.0C576.6 198.3 575.0 189.9 565.3 174.0C563.1 170.4 559.7 164.1 557.7 160.0C555.7 155.9 551.2 148.9 547.6 144.5C544.0 140.1 536.9 131.3 531.8 125.0C526.6 118.5 519.7 111.3 516.0 108.5C512.4 105.8 505.9 100.0 501.5 95.8C494.7 89.3 491.3 87.0 480.0 81.2C472.6 77.4 463.6 72.7 460.0 70.8C456.4 68.8 449.0 65.6 443.5 63.7C417.7 54.8 396.6 51.0 361.0 49.0C350.3 48.4 338.6 47.2 335.0 46.3C329.4 45.0 318.8 44.7 260.9 44.4C223.5 44.3 188.1 43.7 181.9 43.1C168.8 41.9 123.3 41.9 108.5 43.1C108.5 43.1 108.5 43.1 108.5 43.1M353.3 79.0C365.6 82.2 371.4 84.8 380.8 90.9C385.6 94.1 391.3 97.7 393.6 98.8C398.4 101.2 404.4 107.6 406.4 112.4C407.2 114.3 408.6 118.7 409.4 122.1C410.3 125.5 412.6 130.8 414.5 133.9C416.8 137.8 419.0 143.7 421.4 153.0C423.3 160.4 427.0 173.2 429.6 181.5C443.2 224.7 444.2 232.2 439.1 251.5C436.5 261.0 435.9 266.1 434.5 288.5C432.5 321.4 430.0 338.3 425.3 351.5C423.4 357.0 420.3 366.1 418.5 371.6C414.6 383.4 413.1 386.7 409.8 389.6C405.7 393.4 401.1 395.1 389.7 397.0C383.5 398.1 373.3 400.5 366.9 402.4C331.8 413.1 303.2 414.9 285.5 407.4C280.1 405.2 274.5 399.6 272.1 394.1C269.9 388.9 268.0 375.6 268.0 364.8C268.0 361.2 267.1 352.2 265.9 344.8C264.6 336.6 263.6 324.3 263.3 312.5C262.6 285.6 263.9 278.8 275.6 251.0C278.9 243.2 279.0 238.7 277.2 205.0C275.0 166.2 275.8 146.5 280.1 129.7C282.7 119.4 284.7 115.6 293.1 104.3C302.0 92.4 311.9 84.3 324.0 79.3C331.2 76.3 342.6 76.2 353.3 79.0C353.3 79.0 353.3 79.0 353.3 79.0Z"/>
</g>
</svg>