<!DOCTYPE svg PUBLIC "-//W3C//DTD SVG 20010904//EN" "http://www.w3.org/TR/2001/REC-SVG-20010904/DTD/svg10.dtd">
<svg xmlns="http://www.w3.org/2000/svg" version="1.0" width="741.000000pt" height="983.000000pt" viewBox="0 0 741.000000 983.000000" preserveAspectRatio="xMidYMid meet">
<metadata>
Created by potrace 1.13, written by Peter Selinger 2001-2015
</metadata>
<g fill="#000000" stroke="none">
<path d="M337.3 37.0C333.4 37.4 326.6 38.9 322.3 40.3C318.0 41.7 309.3 44.2 302.8 45.9C290.2 49.1 285.0 51.4 273.6 58.9C269.4 61.6 262.6 65.2 258.3 66.9C244.4 72.6 243.4 73.1 231.9 80.6C225.6 84.7 215.0 90.8 208.2 94.2C201.0 97.8 193.6 102.3 190.4 105.2C187.3 107.9 182.3 111.7 179.2 113.7C171.4 118.6 152.8 137.0 147.0 145.5C144.4 149.3 138.8 156.2 134.6 160.7C130.0 165.8 125.7 171.7 123.5 176.1C121.5 180.0 117.1 186.8 113.7 191.3C110.3 195.8 105.4 202.8 103.0 206.8C100.5 210.9 95.3 219.1 91.3 225.0C83.4 236.9 64.6 272.6 60.6 283.2C58.3 289.3 56.1 300.3 50.0 337.0C47.9 349.8 46.4 356.5 41.5 375.3C38.7 385.8 38.6 386.4 39.9 395.3C40.5 400.4 41.8 407.9 42.6 412.0C43.7 417.2 44.4 429.3 44.9 451.0C44.9 451.0 45.6 482.5 45.6 482.5C45.6 482.5 52.3 499.4 52.3 499.4C56.1 508.8 61.8 521.2 65.0 527.0C72.1 539.9 73.8 544.1 77.9 558.9C81.5 571.7 83.1 575.1 90.5 586.5C93.4 590.9 97.0 597.0 98.5 600.0C102.7 608.4 108.2 615.9 114.5 622.0C117.6 625.0 121.9 630.0 124.0 633.1C126.1 636.2 130.3 640.7 133.2 643.0C136.1 645.4 143.0 651.7 148.6 656.9C164.0 671.6 181.5 686.6 194.7 696.5C220.1 715.5 226.0 720.2 228.9 723.7C233.8 729.5 240.0 742.6 240.0 747.0C240.0 752.5 235.1 761.3 226.4 771.5C217.4 781.9 213.9 788.8 213.3 797.4C212.6 805.9 214.4 811.6 219.1 816.3C219.1 816.3 223.0 820.3 223.0 820.3C223.0 820.3 229.8 819.7 229.8 819.7C241.6 818.8 246.5 816.5 256.0 807.5C267.2 796.8 269.0 795.6 280.1 791.9C288.5 789.1 290.4 788.8 298.5 789.2C306.4 789.5 308.3 790.0 313.9 793.0C318.9 795.7 321.4 797.9 325.2 803.0C331.9 812.1 337.5 823.2 342.0 836.3C352.7 867.8 355.1 874.5 358.3 880.2C360.1 883.7 364.3 891.4 367.6 897.4C372.3 906.2 374.7 909.4 379.9 913.9C383.4 917.0 389.6 922.5 393.6 926.1C402.4 934.0 408.5 937.4 425.1 943.6C431.9 946.2 440.0 949.5 443.0 951.0C450.8 954.9 462.4 958.7 470.0 959.9C473.6 960.4 486.2 961.6 498.0 962.6C518.4 964.2 520.5 964.2 536.0 962.6C558.3 960.3 562.7 959.2 583.0 951.7C592.6 948.1 606.3 943.7 613.5 942.0C628.0 938.4 630.1 937.5 638.0 931.5C641.0 929.2 646.5 925.2 650.1 922.7C661.8 914.5 667.0 905.9 667.7 893.6C668.2 884.7 666.3 881.2 658.9 877.5C651.5 873.7 643.1 873.3 630.0 876.0C617.4 878.6 613.5 880.2 604.0 886.9C594.4 893.6 587.8 895.9 574.2 897.3C561.5 898.6 555.5 897.8 546.3 893.5C538.2 889.8 527.4 882.4 521.4 876.3C516.4 871.4 515.9 870.3 512.1 858.2C509.6 850.4 505.0 839.3 500.1 829.5C493.6 816.6 490.7 812.0 485.0 805.5C476.7 796.1 472.4 789.9 467.3 779.9C464.0 773.3 463.5 771.6 463.2 763.2C462.6 749.3 463.4 747.8 479.5 732.7C486.9 725.8 495.7 718.4 499.1 716.3C502.4 714.2 509.8 709.5 515.4 705.8C521.1 702.1 530.4 696.6 536.1 693.4C550.3 685.7 550.1 685.9 571.1 665.5C602.3 635.4 615.3 618.9 634.5 585.0C643.9 568.5 654.7 545.4 658.0 535.0C659.7 529.2 662.7 520.7 664.6 516.0C669.1 505.1 671.2 496.5 674.9 475.0C680.3 443.7 680.5 440.0 677.9 421.6C675.9 406.6 675.8 404.2 676.8 386.5C677.9 367.9 677.4 358.2 675.1 349.2C674.5 347.2 672.9 338.5 671.5 330.0C668.6 312.9 667.6 309.0 663.1 297.9C661.5 293.8 659.1 285.0 657.9 278.5C656.0 267.7 647.3 238.1 643.8 230.5C638.5 218.8 626.5 198.2 620.3 190.1C616.3 184.8 610.8 177.7 608.2 174.3C605.6 170.9 601.5 164.8 599.1 160.8C589.9 145.6 587.9 143.2 579.7 136.9C575.2 133.4 569.0 127.9 566.0 124.6C563.0 121.4 557.1 116.0 553.0 112.7C548.9 109.3 543.2 104.5 540.3 101.9C537.5 99.4 531.4 95.4 526.7 93.1C522.1 90.7 514.7 86.1 510.4 82.8C500.9 75.6 497.6 73.9 484.5 69.0C479.0 67.0 471.4 63.4 467.6 61.1C463.9 58.8 458.7 56.1 456.1 55.1C449.4 52.4 424.4 46.4 410.5 44.0C403.9 42.9 394.4 41.1 389.4 40.0C384.4 38.9 375.2 37.8 368.9 37.5C362.6 37.2 354.6 36.8 351.0 36.6C347.4 36.4 341.3 36.6 337.3 37.0C337.3 37.0 337.3 37.0 337.3 37.0M381.4 90.1C410.2 94.3 417.4 96.8 432.8 108.4C446.9 119.1 452.1 124.4 456.9 133.3C459.2 137.5 463.4 144.0 466.2 147.7C475.2 159.7 477.6 166.1 481.0 187.0C484.5 208.8 484.4 208.5 490.3 222.1C496.7 236.6 497.7 241.6 500.1 272.0C501.9 295.0 502.2 303.5 501.7 336.0C501.3 365.9 501.5 375.8 502.7 385.0C503.9 394.6 504.0 398.9 503.0 410.5C502.4 418.2 502.0 434.8 502.2 447.5C502.2 447.5 502.4 470.5 502.4 470.5C502.4 470.5 498.6 484.5 498.6 484.5C495.2 497.2 494.8 500.0 494.4 514.0C494.1 523.9 493.0 534.6 491.5 543.5C490.1 551.2 488.6 563.1 488.0 570.0C486.5 587.2 484.7 596.8 480.6 610.1C478.7 616.4 475.5 628.0 473.5 636.0C471.5 644.0 468.9 653.0 467.6 656.0C464.4 664.0 442.9 696.1 438.6 699.4C432.9 703.7 411.1 714.7 404.5 716.5C400.0 717.8 392.9 718.4 375.6 718.7C350.3 719.3 338.6 718.3 325.3 714.4C314.8 711.4 287.7 698.4 282.8 694.1C279.0 690.8 265.9 672.1 260.1 661.9C257.3 656.9 251.8 642.3 244.5 620.3C243.0 615.8 241.1 605.4 239.5 592.5C237.3 575.0 236.9 568.5 237.1 549.7C237.1 549.7 237.4 527.5 237.4 527.5C237.4 527.5 233.4 516.0 233.4 516.0C233.4 516.0 229.5 504.5 229.5 504.5C229.5 504.5 229.5 447.5 229.5 447.5C229.5 397.3 229.7 389.3 231.3 380.5C232.4 374.1 233.4 360.8 234.0 343.5C234.6 328.6 235.9 308.6 236.9 299.0C238.0 289.4 239.2 273.1 239.5 262.9C240.2 242.0 241.4 234.5 246.0 223.9C247.8 219.8 251.4 210.0 254.0 202.0C256.6 194.0 263.9 176.3 270.1 162.5C270.1 162.5 281.5 137.5 281.5 137.5C281.5 137.5 295.0 123.9 295.0 123.9C302.5 116.4 310.7 109.1 313.5 107.5C316.3 106.0 321.8 102.3 325.8 99.4C341.0 88.4 354.4 86.1 381.4 90.1C381.4 90.1 381.4 90.1 381.4 90.1Z"/>
</g>
</svg>