<!DOCTYPE svg PUBLIC "-//W3C//DTD SVG 20010904//EN" "http://www.w3.org/TR/2001/REC-SVG-20010904/DTD/svg10.dtd">
<svg xmlns="http://www.w3.org/2000/svg" version="1.0" width="525.000000pt" height="754.000000pt" viewBox="0 0 525.000000 754.000000" preserveAspectRatio="xMidYMid meet">
<metadata>
Created by potrace 1.13, written by Peter Selinger 2001-2015
</metadata>
<g fill="#000000" stroke="none">
<path d="M228.0 41.1C207.8 43.6 181.4 50.6 166.5 57.4C133.0 72.8 105.1 98.9 81.4 137.0C74.1 148.8 65.4 165.3 62.0 174.0C59.0 181.5 47.0 225.2 44.9 236.4C39.2 265.6 37.7 292.6 40.5 314.1C45.1 349.3 51.3 371.6 63.8 397.4C75.2 420.9 85.2 435.0 105.4 455.8C120.6 471.4 127.2 476.3 147.3 486.5C164.8 495.4 175.9 499.7 188.4 502.5C204.9 506.2 246.3 503.0 266.0 496.5C288.9 489.0 302.0 489.1 313.3 496.9C321.7 502.6 326.0 512.8 328.6 533.2C330.0 544.1 330.2 551.9 329.7 577.5C329.1 610.7 328.1 620.6 323.5 636.3C320.0 648.5 316.6 654.8 305.5 669.6C293.2 685.9 290.6 690.8 290.6 698.1C290.5 711.4 303.3 720.7 324.8 723.1C330.9 723.7 357.8 724.0 397.5 723.8C457.4 723.4 460.8 723.3 467.1 721.4C484.5 716.0 493.2 705.8 491.6 692.5C490.8 685.6 485.3 674.8 478.2 666.4C469.3 655.8 460.3 642.0 457.6 634.8C453.1 622.9 453.0 620.4 454.0 553.0C454.5 518.1 455.3 469.7 455.6 445.5C456.1 415.9 455.9 390.8 455.0 368.7C454.1 343.9 454.0 332.0 454.9 319.7C456.1 301.6 457.7 251.8 458.6 206.5C459.2 175.2 462.6 132.1 465.6 119.1C466.4 115.5 469.2 105.5 471.7 97.0C480.2 68.9 477.5 58.0 460.5 50.5C448.3 45.1 443.5 44.5 414.0 44.6C382.0 44.6 379.5 45.1 359.0 54.4C331.6 66.9 326.8 66.9 300.0 55.2C276.5 44.9 263.5 41.4 245.9 40.6C240.2 40.3 232.1 40.5 228.0 41.1C228.0 41.1 228.0 41.1 228.0 41.1M267.4 88.6C283.1 92.6 297.9 102.9 310.6 118.5C326.0 137.6 332.2 157.6 338.1 207.4C342.1 240.3 341.7 331.4 337.5 355.6C333.3 379.9 320.2 413.0 308.5 429.0C305.8 432.6 299.1 440.0 293.5 445.6C285.0 454.1 281.9 456.4 274.3 460.3C262.8 466.0 256.4 467.3 243.6 466.8C227.1 466.0 211.1 459.3 200.4 448.4C181.4 429.1 172.9 399.9 171.0 347.5C168.1 268.9 167.8 240.9 169.4 228.0C170.2 221.1 171.4 209.4 172.0 202.0C173.5 183.4 179.5 147.1 182.6 138.0C191.7 111.4 208.7 95.6 235.5 88.9C244.4 86.7 259.3 86.5 267.4 88.6C267.4 88.6 267.4 88.6 267.4 88.6Z"/>
</g>
</svg>