<!DOCTYPE svg PUBLIC "-//W3C//DTD SVG 20010904//EN" "http://www.w3.org/TR/2001/REC-SVG-20010904/DTD/svg10.dtd">
<svg xmlns="http://www.w3.org/2000/svg" version="1.0" width="969.000000pt" height="1185.000000pt" viewBox="0 0 969.000000 1185.000000" preserveAspectRatio="xMidYMid meet">
<metadata>
Created by potrace 1.13, written by Peter Selinger 2001-2015
</metadata>
<g fill="#000000" stroke="none">
<path d="M233.5 44.1C217.1 45.5 207.5 49.9 202.5 58.4C199.4 63.6 199.1 73.1 201.7 82.3C204.7 93.0 212.1 97.0 225.8 95.5C236.7 94.2 262.7 94.9 269.5 96.6C272.8 97.5 279.5 100.1 284.4 102.6C290.3 105.5 294.7 107.0 297.2 107.0C302.4 107.0 312.3 110.4 319.3 114.7C323.7 117.3 326.9 120.6 332.5 128.0C336.6 133.4 340.4 138.1 340.8 138.4C342.6 139.5 381.5 139.3 384.2 138.2C385.7 137.6 388.6 134.6 390.6 131.6C395.2 124.6 398.4 123.2 411.3 122.1C419.3 121.5 424.0 120.5 431.6 117.8C437.1 115.8 444.2 113.4 447.5 112.5C456.2 110.0 467.0 104.8 471.3 101.1C475.7 97.2 476.1 93.9 472.5 90.6C468.4 86.7 469.2 85.8 476.3 86.5C486.3 87.6 489.9 88.9 494.4 93.1C500.6 98.7 504.4 100.0 515.0 100.0C530.4 100.0 542.6 96.1 547.4 89.7C552.1 83.3 548.1 66.8 540.2 59.8C534.8 55.1 519.4 48.1 511.7 46.8C505.1 45.7 504.6 45.8 496.2 49.0C481.6 54.5 472.3 59.7 467.1 65.1C467.1 65.1 462.4 70.1 462.4 70.1C462.4 70.1 457.6 67.9 457.6 67.9C454.9 66.8 447.4 64.7 440.8 63.4C434.3 62.1 424.3 59.7 418.7 58.1C404.8 54.0 397.8 53.0 382.0 53.0C368.2 53.0 349.9 51.2 333.0 48.3C325.6 47.0 316.7 46.6 292.5 46.5C272.3 46.5 260.1 46.1 257.5 45.3C251.3 43.6 244.4 43.2 233.5 44.1C233.5 44.1 233.5 44.1 233.5 44.1Z"/>
<path d="M341.4 307.7C339.4 309.1 336.9 314.9 335.9 320.8C334.5 328.1 332.6 331.6 329.1 333.4C325.8 335.1 305.1 337.0 297.5 336.3C290.9 335.7 287.2 338.1 282.0 346.2C277.3 353.4 275.9 357.9 275.9 366.0C275.8 371.1 276.5 373.1 280.5 380.9C286.6 392.6 292.2 399.0 298.7 401.2C302.3 402.5 305.3 404.8 310.2 409.9C315.7 415.6 318.1 417.2 323.8 419.4C331.9 422.5 333.3 424.5 335.0 435.5C336.3 443.6 339.2 450.7 341.5 451.6C343.5 452.4 356.1 443.9 360.2 439.0C364.5 433.8 367.0 426.0 368.1 414.1C370.2 391.4 371.7 386.4 378.5 380.0C383.3 375.4 386.8 368.4 388.6 359.8C390.5 351.0 390.8 327.9 389.2 322.4C387.2 315.5 385.5 314.7 372.2 313.9C363.2 313.4 358.8 312.6 353.0 310.6C342.9 306.9 342.7 306.9 341.4 307.7C341.4 307.7 341.4 307.7 341.4 307.7Z"/>
<path d="M405.5 532.0C401.1 532.4 396.0 533.9 391.9 535.8C388.3 537.5 381.4 539.6 376.6 540.4C366.4 542.2 362.6 544.2 360.3 549.0C357.5 554.9 357.5 560.9 360.5 574.1C363.3 586.7 363.5 596.5 361.3 606.5C358.9 617.2 364.0 623.8 376.7 626.6C381.0 627.5 388.1 629.6 392.5 631.2C398.8 633.6 402.7 634.3 411.0 634.7C423.2 635.3 424.1 635.0 433.4 627.1C436.7 624.3 443.0 620.2 447.4 617.9C465.1 608.8 469.2 603.5 471.1 587.7C472.5 575.4 471.9 572.4 466.4 565.1C464.0 561.9 460.0 555.0 457.6 549.8C452.9 539.7 449.2 535.3 443.3 533.2C438.8 531.5 415.9 530.8 405.5 532.0C405.5 532.0 405.5 532.0 405.5 532.0Z"/>
<path d="M218.3 666.3C214.5 667.7 211.2 670.6 205.1 677.9C202.7 680.8 197.9 685.4 194.4 688.1C190.1 691.6 187.4 694.7 185.6 698.2C182.6 704.3 182.5 705.8 184.6 712.9C186.9 720.9 191.9 725.5 207.2 734.1C207.2 734.1 220.5 741.5 220.5 741.5C220.5 741.5 243.5 741.8 243.5 741.8C266.2 742.1 266.6 742.0 278.3 739.1C291.4 735.8 297.8 732.4 303.5 725.7C305.4 723.5 307.2 720.3 307.6 718.5C308.5 713.6 306.1 695.0 303.8 689.7C299.2 679.0 287.8 672.8 269.5 671.0C264.0 670.5 253.0 668.9 245.1 667.5C229.5 664.8 223.3 664.5 218.3 666.3C218.3 666.3 218.3 666.3 218.3 666.3Z"/>
</g>
</svg>