<!DOCTYPE svg PUBLIC "-//W3C//DTD SVG 20010904//EN" "http://www.w3.org/TR/2001/REC-SVG-20010904/DTD/svg10.dtd">
<svg xmlns="http://www.w3.org/2000/svg" version="1.0" width="431.000000pt" height="539.000000pt" viewBox="0 0 431.000000 539.000000" preserveAspectRatio="xMidYMid meet">
<metadata>
Created by potrace 1.13, written by Peter Selinger 2001-2015
</metadata>
<g fill="#000000" stroke="none">
<path d="M275.7 41.5C263.4 43.2 256.4 45.6 237.5 54.1C209.5 66.8 206.9 66.9 172.0 56.1C151.7 49.8 142.9 48.7 112.0 48.6C74.7 48.6 62.1 51.0 53.0 59.9C42.5 70.0 44.1 82.0 58.4 102.5C71.9 121.9 75.5 131.6 77.0 152.0C78.0 166.9 76.5 342.6 75.1 368.0C74.0 387.6 70.7 418.8 68.5 429.0C66.8 437.1 64.8 442.0 57.7 456.6C52.0 468.1 49.0 476.5 49.0 480.9C49.0 490.2 56.7 499.7 67.5 503.8C79.6 508.5 88.8 509.1 140.2 509.0C194.3 508.9 205.6 508.3 213.9 504.5C225.1 499.4 231.0 491.1 231.0 480.5C231.0 472.6 228.2 466.1 219.7 453.8C202.3 428.9 200.9 420.6 201.0 346.7C201.0 286.5 201.9 271.3 207.5 232.5C209.9 215.4 212.6 196.1 213.5 189.6C216.1 170.6 222.7 147.4 229.4 134.3C238.9 115.4 261.0 113.6 266.0 131.1C266.6 133.0 267.5 140.6 268.0 148.0C270.2 177.3 274.9 190.0 287.7 202.0C316.8 229.1 365.0 225.0 387.6 193.3C398.2 178.6 402.5 163.9 402.3 143.0C402.2 127.3 399.9 116.6 393.2 101.2C387.1 87.1 383.3 81.4 373.5 71.4C360.5 58.2 342.2 47.1 326.1 42.8C316.1 40.1 289.9 39.5 275.7 41.5C275.7 41.5 275.7 41.5 275.7 41.5Z"/>
</g>
</svg>