<!DOCTYPE svg PUBLIC "-//W3C//DTD SVG 20010904//EN" "http://www.w3.org/TR/2001/REC-SVG-20010904/DTD/svg10.dtd">
<svg xmlns="http://www.w3.org/2000/svg" version="1.0" width="539.000000pt" height="808.000000pt" viewBox="0 0 539.000000 808.000000" preserveAspectRatio="xMidYMid meet">
<metadata>
Created by potrace 1.13, written by Peter Selinger 2001-2015
</metadata>
<g fill="#000000" stroke="none">
<path d="M240.0 38.6C238.1 38.8 231.6 39.5 225.5 40.0C211.5 41.4 208.8 42.1 195.9 48.0C189.8 50.9 181.3 53.8 175.9 55.0C170.3 56.3 162.6 59.0 157.0 61.7C151.8 64.2 143.6 67.9 138.9 70.0C118.4 78.9 101.6 94.3 84.4 120.0C78.3 129.1 71.0 141.0 68.0 146.5C65.1 152.0 61.4 158.4 59.8 160.8C54.6 168.4 51.1 177.2 49.5 187.0C48.6 192.2 46.3 202.6 44.3 210.0C40.9 223.2 40.8 224.1 39.9 252.0C38.9 283.2 39.1 286.2 42.6 302.8C45.8 317.7 47.7 322.8 54.7 335.7C57.9 341.7 62.5 350.5 64.9 355.5C69.0 364.2 70.0 365.3 90.1 385.2C114.6 409.5 118.4 412.0 163.0 434.7C183.6 445.2 199.1 451.1 215.0 454.5C228.6 457.4 235.1 459.5 244.5 464.2C252.2 468.1 258.8 470.5 281.5 477.5C305.1 484.9 336.0 500.2 365.7 519.2C369.4 521.6 376.4 528.1 383.4 535.7C393.6 546.6 395.7 549.6 400.0 558.4C410.1 579.3 413.9 594.3 412.0 605.1C409.9 617.2 402.0 644.2 398.9 650.0C394.8 657.7 384.9 670.0 376.0 678.3C369.9 684.1 366.6 686.2 353.3 692.6C335.7 701.1 321.7 706.1 308.5 708.6C295.3 711.0 252.9 710.1 238.5 707.0C224.9 704.1 212.1 699.7 202.6 694.7C187.7 686.8 156.3 659.5 142.5 642.5C132.2 629.7 130.6 627.1 126.4 616.2C124.4 610.9 120.1 600.0 117.0 592.0C113.8 584.0 109.8 572.3 108.1 566.0C100.6 539.0 97.7 532.1 89.5 522.0C80.6 510.9 72.6 507.0 63.1 509.1C57.1 510.4 53.8 512.3 50.0 516.7C41.6 526.2 40.1 535.0 40.0 573.5C40.0 594.3 39.6 599.9 37.3 615.5C34.9 631.9 34.6 636.2 34.6 664.5C34.5 691.8 34.7 696.3 36.4 702.5C40.8 719.1 46.6 726.8 57.9 731.1C66.8 734.5 73.0 734.6 87.0 731.7C107.7 727.4 114.3 726.7 126.3 727.3C142.4 728.3 148.4 730.0 165.4 738.9C173.7 743.2 183.9 748.0 188.0 749.5C192.1 751.0 200.6 754.5 206.8 757.2C224.1 764.8 226.8 765.2 263.4 765.7C306.8 766.4 310.8 765.9 338.1 756.7C360.5 749.1 371.5 743.8 390.8 731.3C409.8 719.1 429.1 702.2 438.8 689.5C441.3 686.2 447.0 679.7 451.5 675.0C456.2 670.0 461.3 663.5 463.5 659.5C465.6 655.6 469.9 647.7 473.1 641.9C477.1 634.8 480.9 625.6 484.9 613.9C488.1 604.3 492.2 592.5 493.9 587.7C496.5 580.7 497.4 576.1 498.3 565.7C499.8 547.7 499.7 533.4 497.7 521.5C496.8 516.0 495.6 505.9 495.0 499.0C492.7 472.1 492.0 468.2 487.4 453.3C479.6 427.8 479.2 427.1 466.4 413.0C462.2 408.3 456.4 400.9 453.4 396.5C445.1 383.8 431.8 369.8 420.5 361.6C415.0 357.6 406.9 351.8 402.5 348.6C398.1 345.4 391.8 341.4 388.5 339.8C385.2 338.1 379.8 334.9 376.5 332.5C368.1 326.6 363.7 324.5 353.0 321.5C347.9 320.1 339.2 317.0 333.6 314.6C320.7 309.1 318.1 308.5 296.5 306.0C274.6 303.4 263.7 300.2 248.7 291.9C242.6 288.5 232.9 284.3 226.2 282.0C209.5 276.5 186.2 266.0 178.7 260.7C172.1 256.0 167.0 250.4 161.0 241.5C159.1 238.7 155.8 234.2 153.6 231.5C149.1 225.7 140.0 207.2 137.5 198.6C136.0 193.4 135.9 190.9 137.0 174.2C138.3 153.4 139.4 148.8 146.3 135.5C150.8 126.9 155.6 121.6 171.0 108.2C181.0 99.5 185.8 96.7 198.6 92.4C206.3 89.8 207.3 89.7 241.5 88.9C275.0 88.1 276.8 88.1 284.5 90.1C295.2 92.8 302.1 96.7 312.8 105.9C322.3 114.0 325.8 117.8 333.4 127.8C336.0 131.2 340.6 136.6 343.5 139.8C348.3 145.0 353.2 152.5 364.1 171.0C366.2 174.6 371.3 185.7 375.4 195.8C384.7 218.4 387.1 222.9 393.0 228.4C405.9 240.4 421.0 241.1 431.3 230.1C436.8 224.3 438.8 218.5 440.0 204.9C441.4 189.7 441.3 108.4 439.9 101.8C437.3 89.6 427.1 76.0 416.3 70.3C407.6 65.6 400.3 64.6 384.2 65.6C376.7 66.0 361.5 66.4 350.5 66.4C329.8 66.3 320.9 65.1 313.7 61.3C311.9 60.4 306.0 57.8 300.5 55.5C295.0 53.2 287.5 49.3 283.7 46.7C280.0 44.2 274.6 41.3 271.7 40.4C266.6 38.9 247.5 37.7 240.0 38.6C240.0 38.6 240.0 38.6 240.0 38.6Z"/>
</g>
</svg>