<!DOCTYPE svg PUBLIC "-//W3C//DTD SVG 20010904//EN" "http://www.w3.org/TR/2001/REC-SVG-20010904/DTD/svg10.dtd">
<svg xmlns="http://www.w3.org/2000/svg" version="1.0" width="404.000000pt" height="552.000000pt" viewBox="0 0 404.000000 552.000000" preserveAspectRatio="xMidYMid meet">
<metadata>
Created by potrace 1.13, written by Peter Selinger 2001-2015
</metadata>
<g fill="#000000" stroke="none">
<path d="M170.9 41.6C144.4 46.4 116.8 61.0 97.2 80.8C75.4 102.8 59.9 133.7 54.5 165.9C52.0 180.8 52.8 203.8 56.4 217.3C59.1 228.0 66.3 243.1 73.9 254.5C84.5 270.4 103.4 287.1 123.5 298.3C134.2 304.2 158.3 314.9 173.7 320.6C217.3 336.5 243.8 349.6 259.7 362.8C287.9 386.3 290.6 420.9 266.1 445.0C257.5 453.5 250.1 457.8 238.5 461.2C231.5 463.2 228.3 463.5 213.5 463.5C199.4 463.4 195.0 463.1 187.8 461.2C170.9 457.0 157.1 449.6 141.0 436.3C122.8 421.1 114.0 408.1 100.4 376.5C93.4 360.0 90.6 354.7 87.1 350.8C80.0 342.8 73.2 340.5 65.5 343.4C49.3 349.6 40.7 378.4 40.6 426.0C40.6 444.1 40.9 447.4 42.8 454.4C45.3 463.5 49.2 470.1 55.5 475.9C63.1 482.9 68.7 485.0 93.5 490.0C114.3 494.2 124.7 497.2 138.6 502.9C155.6 509.9 178.2 517.8 185.9 519.6C196.4 522.0 222.6 522.5 234.2 520.6C245.6 518.7 261.9 513.5 274.0 507.9C306.0 492.9 336.9 461.4 353.6 426.7C366.5 399.7 371.4 362.6 366.1 331.6C362.9 313.0 359.7 303.1 352.9 290.0C344.3 273.7 334.6 260.5 319.5 245.0C292.3 216.9 291.6 216.5 263.4 212.5C241.2 209.4 205.6 198.2 184.5 187.7C160.6 175.8 143.4 158.6 138.5 141.5C132.0 119.2 148.4 96.0 174.5 90.5C193.0 86.6 212.1 89.9 232.3 100.3C253.3 111.2 262.7 122.3 279.1 155.7C293.2 184.6 297.0 188.9 307.1 187.7C319.7 186.2 329.4 175.5 333.4 158.5C336.8 143.9 338.2 111.9 336.0 98.2C333.4 82.4 327.0 73.4 313.6 67.1C305.1 63.0 300.3 61.7 277.5 57.4C269.8 55.9 255.6 52.3 245.9 49.4C220.7 41.9 210.0 40.0 192.7 40.1C184.9 40.1 175.1 40.8 170.9 41.6C170.9 41.6 170.9 41.6 170.9 41.6Z"/>
</g>
</svg>