<!DOCTYPE svg PUBLIC "-//W3C//DTD SVG 20010904//EN" "http://www.w3.org/TR/2001/REC-SVG-20010904/DTD/svg10.dtd">
<svg xmlns="http://www.w3.org/2000/svg" version="1.0" width="377.000000pt" height="754.000000pt" viewBox="0 0 377.000000 754.000000" preserveAspectRatio="xMidYMid meet">
<metadata>
Created by potrace 1.13, written by Peter Selinger 2001-2015
</metadata>
<g fill="#000000" stroke="none">
<path d="M180.2 40.0C172.9 41.5 165.5 45.5 151.5 55.5C144.1 60.8 131.8 68.5 124.3 72.7C116.7 76.8 108.3 81.5 105.7 83.2C96.4 89.2 87.6 101.6 84.5 113.6C83.7 116.8 82.0 132.1 80.9 147.5C77.6 194.1 75.0 201.5 55.5 219.4C43.3 230.6 40.5 235.3 40.5 244.0C40.6 252.8 42.6 256.4 56.1 271.3C73.9 291.0 77.6 300.7 78.7 330.5C79.4 351.2 76.7 442.0 73.7 494.0C72.0 525.1 72.2 558.1 74.4 570.5C79.7 601.5 88.8 624.3 104.1 645.1C109.6 652.6 121.3 664.0 128.4 668.9C136.4 674.4 151.1 680.8 162.0 683.5C177.1 687.3 200.5 688.0 214.1 685.2C240.4 679.8 260.7 666.2 276.8 643.5C288.6 626.8 295.1 610.5 305.6 571.6C313.5 542.1 310.5 518.4 298.0 512.0C292.1 509.0 287.1 509.4 281.4 513.2C273.0 518.9 270.7 523.8 261.6 556.5C255.2 579.2 246.8 593.0 235.8 598.4C224.6 604.0 212.7 600.0 205.1 588.2C201.0 581.6 199.1 574.4 198.0 560.0C196.8 543.8 196.8 385.5 198.0 368.5C198.6 361.3 199.5 346.0 200.0 334.5C201.2 310.8 202.7 302.2 207.0 293.4C212.7 281.8 222.2 274.9 243.0 267.5C257.1 262.5 259.9 261.0 264.7 255.7C271.9 247.9 272.8 239.2 267.0 232.6C263.6 228.8 256.5 224.9 242.6 219.1C223.3 211.1 214.6 201.7 210.3 184.3C208.2 175.6 208.0 154.6 209.9 122.5C210.6 109.3 211.2 91.1 211.3 82.0C211.3 63.4 209.7 56.1 204.0 48.2C199.0 41.2 189.7 38.1 180.2 40.0C180.2 40.0 180.2 40.0 180.2 40.0Z"/>
</g>
</svg>