<!DOCTYPE svg PUBLIC "-//W3C//DTD SVG 20010904//EN" "http://www.w3.org/TR/2001/REC-SVG-20010904/DTD/svg10.dtd">
<svg xmlns="http://www.w3.org/2000/svg" version="1.0" width="929.000000pt" height="1171.000000pt" viewBox="0 0 929.000000 1171.000000" preserveAspectRatio="xMidYMid meet">
<metadata>
Created by potrace 1.13, written by Peter Selinger 2001-2015
</metadata>
<g fill="#000000" stroke="none">
<path d="M83.5 39.6C72.6 42.0 66.3 45.5 58.5 53.5C50.5 61.6 46.6 68.5 44.5 78.5C42.5 88.2 42.4 146.3 44.4 160.0C47.9 183.4 49.3 197.4 49.4 208.5C49.5 222.0 47.6 243.7 45.4 255.2C43.7 263.7 43.4 274.7 44.5 280.1C46.8 290.5 52.0 294.5 62.5 293.8C70.5 293.3 74.1 290.9 81.1 281.3C88.7 271.1 91.2 266.3 98.4 248.7C105.1 232.2 106.2 230.3 114.5 220.8C117.4 217.5 122.4 210.0 125.6 204.2C130.9 194.8 133.4 191.6 148.9 175.5C158.4 165.6 169.2 153.9 172.9 149.5C183.6 136.6 190.5 130.4 204.6 121.1C220.4 110.6 226.7 108.4 238.4 109.3C251.2 110.2 260.4 116.0 265.7 126.4C267.0 129.0 269.5 137.1 271.1 144.4C272.8 151.6 275.5 161.8 277.1 167.0C280.5 177.5 280.6 183.5 277.5 194.0C275.0 202.8 274.1 225.4 274.6 264.8C274.6 264.8 275.2 301.5 275.2 301.5C275.2 301.5 272.1 317.0 272.1 317.0C264.4 356.4 262.8 364.3 260.0 376.6C256.3 392.6 256.2 399.8 259.5 414.4C260.8 420.5 263.1 431.2 264.5 438.2C265.9 445.2 268.1 453.8 269.4 457.2C271.7 463.4 271.7 464.0 272.0 508.0C272.4 580.2 270.1 634.2 265.5 656.1C263.3 667.0 260.4 672.4 253.4 678.9C245.9 686.0 240.6 689.2 230.6 693.0C226.5 694.5 221.0 697.0 218.3 698.5C215.7 700.0 209.9 702.5 205.5 704.1C193.8 708.4 190.0 713.2 194.1 718.4C198.0 723.3 201.4 724.3 215.5 724.8C222.7 725.1 241.7 724.7 257.8 724.0C284.6 722.8 288.1 722.8 299.6 724.4C306.5 725.4 315.3 727.3 319.3 728.6C343.7 737.0 356.5 738.4 397.5 737.0C445.4 735.3 455.2 733.9 463.7 727.4C475.4 718.5 470.9 705.8 451.0 691.2C446.9 688.1 441.3 683.4 438.7 680.6C432.7 674.3 423.8 661.0 419.7 652.2C416.0 644.3 416.1 650.6 417.8 567.5C418.6 527.7 419.3 510.2 420.4 504.0C422.5 492.3 422.3 481.5 420.0 465.6C418.2 453.0 418.1 449.9 419.0 422.3C419.8 400.9 419.8 385.5 418.9 367.5C417.7 340.4 418.0 323.7 420.0 295.1C421.1 280.3 421.1 273.9 420.2 263.1C418.6 245.4 418.7 239.0 420.6 224.0C421.9 214.0 422.0 208.1 421.3 194.5C420.2 171.2 420.5 159.9 422.9 143.5C425.7 123.6 428.8 116.0 437.1 108.6C444.2 102.1 448.8 100.6 459.9 101.3C474.4 102.1 477.4 103.5 504.2 121.4C514.9 128.6 531.0 142.5 535.1 148.1C537.5 151.4 544.5 158.8 550.6 164.6C566.9 179.8 573.8 190.7 580.5 212.5C585.1 227.3 589.2 235.2 594.2 239.2C599.6 243.4 601.7 248.3 603.6 260.2C605.5 273.0 607.5 279.2 610.7 283.0C614.0 286.9 618.6 287.1 623.0 283.4C629.7 277.7 629.5 279.4 629.7 227.5C630.0 170.5 631.4 132.2 633.5 122.0C635.9 110.4 638.0 94.3 638.0 87.8C638.0 76.5 632.7 67.0 621.6 58.6C606.8 47.2 598.1 45.9 572.4 50.8C557.8 53.6 554.4 53.9 529.5 54.4C512.6 54.7 498.7 55.4 492.5 56.4C479.9 58.3 471.4 58.4 457.5 56.5C451.4 55.7 439.4 55.1 430.5 55.2C421.7 55.2 411.6 54.7 408.0 54.1C404.4 53.4 391.2 52.5 378.5 52.0C364.9 51.5 350.0 50.3 342.0 49.1C322.9 46.2 302.6 44.9 288.0 45.6C279.7 46.0 270.4 45.7 260.1 44.6C249.0 43.5 240.0 43.2 228.6 43.6C219.7 44.0 204.6 43.7 195.0 43.1C171.7 41.6 123.1 39.1 105.0 38.5C94.0 38.1 88.8 38.4 83.5 39.6C83.5 39.6 83.5 39.6 83.5 39.6Z"/>
</g>
</svg>