<!DOCTYPE svg PUBLIC "-//W3C//DTD SVG 20010904//EN" "http://www.w3.org/TR/2001/REC-SVG-20010904/DTD/svg10.dtd">
<svg xmlns="http://www.w3.org/2000/svg" version="1.0" width="700.000000pt" height="808.000000pt" viewBox="0 0 700.000000 808.000000" preserveAspectRatio="xMidYMid meet">
<metadata>
Created by potrace 1.13, written by Peter Selinger 2001-2015
</metadata>
<g fill="#000000" stroke="none">
<path d="M222.5 39.5C211.7 41.8 210.2 41.8 148.4 41.9C107.8 42.0 83.3 42.4 79.5 43.1C72.7 44.4 58.2 50.4 51.1 54.9C44.5 59.2 42.6 63.3 42.6 73.1C42.6 79.5 43.1 81.4 45.2 85.1C49.0 91.5 60.2 100.7 69.0 104.7C73.1 106.6 78.7 109.1 81.3 110.3C87.8 113.1 96.3 122.4 98.4 128.7C101.5 138.4 103.7 168.2 102.0 180.0C101.4 184.1 100.3 206.2 99.6 229.0C98.4 262.6 97.8 272.2 96.2 279.5C92.5 296.1 91.7 311.9 93.0 336.4C93.7 349.6 94.0 372.4 93.8 393.0C93.4 422.5 93.1 428.3 91.5 433.0C89.2 440.4 88.3 472.8 90.0 489.6C90.7 496.1 91.6 515.7 92.0 533.0C92.6 559.4 93.1 567.3 95.3 582.0C98.3 601.9 100.4 608.7 106.6 618.2C112.7 627.8 113.8 630.0 118.7 644.0C124.1 659.5 126.3 664.0 133.8 673.7C140.8 682.9 142.9 684.8 153.5 692.6C157.9 695.7 163.7 700.3 166.3 702.6C171.7 707.4 192.5 718.3 204.0 722.4C208.1 723.9 216.6 727.8 222.8 731.1C222.8 731.1 234.1 737.1 234.1 737.1C234.1 737.1 249.2 739.1 249.2 739.1C276.4 742.5 308.7 749.7 323.5 755.6C330.4 758.4 330.7 758.4 357.0 758.8C380.2 759.1 385.3 758.9 397.5 757.1C413.0 754.7 418.8 753.3 429.7 748.9C433.8 747.3 447.0 743.6 459.0 740.6C478.8 735.8 482.2 734.6 493.2 729.0C507.7 721.7 519.0 714.1 522.9 709.1C524.4 707.1 528.3 700.4 531.4 694.2C536.4 684.6 538.4 681.7 545.9 674.2C555.1 665.1 560.6 656.8 570.0 638.0C577.2 623.6 578.9 616.6 580.0 596.0C581.1 576.1 582.0 570.2 586.1 557.5C590.4 544.0 591.8 536.8 593.0 522.6C594.2 508.5 594.9 504.0 597.9 492.3C599.0 488.0 600.6 480.2 601.5 474.9C603.0 465.4 603.0 465.3 600.4 455.9C596.9 443.2 596.1 423.3 598.4 406.5C599.6 397.1 599.8 392.9 599.0 387.0C597.2 373.9 596.2 318.1 596.1 233.5C596.0 129.8 596.2 127.7 608.8 115.7C615.3 109.6 623.1 104.9 641.3 95.9C654.9 89.3 657.9 86.6 660.6 79.3C662.6 73.6 662.4 64.6 660.1 60.2C657.7 55.5 648.6 46.9 643.2 44.1C636.1 40.5 618.5 41.6 608.2 46.2C604.0 48.1 601.2 48.4 583.0 48.8C544.6 49.5 535.2 49.3 523.0 47.0C494.7 41.9 494.7 41.9 489.6 43.4C483.1 45.4 475.3 50.6 471.9 55.3C468.3 60.2 468.1 65.9 471.1 74.7C474.2 84.1 478.9 87.9 493.1 92.5C499.3 94.5 506.3 97.1 508.5 98.2C510.7 99.3 518.4 106.3 525.7 113.7C540.9 129.3 540.7 128.8 544.5 151.3C547.4 168.4 547.7 180.1 545.4 188.0C544.3 191.9 543.6 199.4 543.3 213.5C542.8 230.8 543.1 235.8 545.1 250.5C547.2 265.9 547.4 270.7 547.3 301.0C547.1 323.7 547.5 339.5 548.5 350.0C552.1 389.9 553.0 447.8 550.1 458.5C549.5 460.7 548.6 472.2 548.0 484.0C546.8 512.8 545.3 529.0 543.0 538.0C540.6 547.7 539.3 555.3 538.0 567.0C536.7 579.0 534.1 588.2 527.8 604.0C520.5 621.9 516.6 629.3 511.1 635.4C508.5 638.3 504.2 643.9 501.7 647.8C498.7 652.5 495.2 656.2 491.3 659.1C488.1 661.4 482.7 665.9 479.3 669.1C475.0 673.1 468.4 677.3 456.8 683.5C447.8 688.3 436.9 694.7 432.5 697.6C420.1 705.9 418.7 706.2 396.5 705.5C361.1 704.3 342.0 702.4 331.1 698.9C329.3 698.3 324.1 694.4 319.6 690.3C315.2 686.1 308.3 680.6 304.4 677.9C295.4 671.8 294.2 670.3 288.9 657.8C286.6 652.3 282.1 643.7 278.9 638.9C271.4 627.6 270.2 623.5 268.4 606.0C267.6 598.0 266.6 588.6 266.0 585.0C264.5 575.2 264.8 555.7 266.6 544.5C267.9 536.3 268.4 519.3 269.1 449.5C269.8 382.8 271.3 270.6 272.3 212.5C272.3 209.2 272.0 195.2 271.5 181.5C270.8 157.8 270.8 156.1 272.8 148.0C274.0 143.3 276.8 135.9 279.0 131.5C283.7 122.0 299.1 101.5 303.9 98.3C305.8 97.0 312.1 94.5 317.8 92.8C329.6 89.2 333.2 86.5 335.1 79.7C336.9 73.5 336.7 61.1 334.8 57.5C329.4 47.5 315.7 42.1 295.5 42.0C290.0 42.0 275.6 40.9 263.5 39.5C237.5 36.6 236.7 36.6 222.5 39.5C222.5 39.5 222.5 39.5 222.5 39.5Z"/>
</g>
</svg>