<!DOCTYPE svg PUBLIC "-//W3C//DTD SVG 20010904//EN" "http://www.w3.org/TR/2001/REC-SVG-20010904/DTD/svg10.dtd">
<svg xmlns="http://www.w3.org/2000/svg" version="1.0" width="566.000000pt" height="606.000000pt" viewBox="0 0 566.000000 606.000000" preserveAspectRatio="xMidYMid meet">
<metadata>
Created by potrace 1.13, written by Peter Selinger 2001-2015
</metadata>
<g fill="#000000" stroke="none">
<path d="M82.1 42.1C68.9 43.3 62.5 44.6 56.1 47.5C45.6 52.4 41.1 59.0 41.0 69.5C41.0 77.9 44.0 83.6 56.2 98.8C67.3 112.6 73.5 124.1 76.4 136.3C79.5 148.8 80.1 175.9 79.8 283.5C79.6 387.6 79.6 388.6 81.7 400.0C86.6 426.0 98.8 450.3 117.9 471.9C126.7 481.8 146.5 496.6 160.5 503.5C172.3 509.4 192.1 515.0 213.1 518.6C235.1 522.2 269.6 516.8 296.0 505.6C319.6 495.5 328.7 495.4 357.3 505.0C373.2 510.4 382.7 511.7 415.3 513.1C448.9 514.5 480.8 513.9 489.8 511.6C506.1 507.5 513.2 499.8 513.2 486.2C513.2 477.7 509.8 471.8 497.3 458.7C485.6 446.5 481.2 440.4 477.5 431.3C470.9 415.0 470.3 398.3 472.0 273.0C472.7 222.7 473.5 165.7 473.7 146.5C474.0 124.5 473.8 107.6 473.1 100.9C469.3 64.8 456.5 51.6 420.5 46.8C408.5 45.2 351.8 45.2 332.8 46.8C310.4 48.8 301.3 51.9 295.3 59.6C291.6 64.5 290.9 73.0 293.8 78.7C297.1 85.1 300.6 88.6 310.4 95.3C322.0 103.2 331.6 112.8 335.7 120.6C342.9 134.1 346.1 157.1 346.5 198.4C347.1 249.9 345.5 318.8 343.1 339.5C338.9 375.5 332.8 405.4 326.0 422.4C319.8 438.2 307.9 452.6 296.0 458.9C273.6 470.9 247.9 467.2 230.5 449.6C215.2 434.1 210.5 417.1 208.0 369.0C207.4 358.2 206.5 343.8 206.0 337.0C203.7 306.6 205.0 236.2 209.6 151.2C211.6 112.6 211.7 89.7 209.7 80.2C205.4 60.3 192.0 48.4 169.4 44.5C152.4 41.7 102.8 40.3 82.1 42.1C82.1 42.1 82.1 42.1 82.1 42.1Z"/>
</g>
</svg>