<!DOCTYPE svg PUBLIC "-//W3C//DTD SVG 20010904//EN" "http://www.w3.org/TR/2001/REC-SVG-20010904/DTD/svg10.dtd">
<svg xmlns="http://www.w3.org/2000/svg" version="1.0" width="539.000000pt" height="552.000000pt" viewBox="0 0 539.000000 552.000000" preserveAspectRatio="xMidYMid meet">
<metadata>
Created by potrace 1.13, written by Peter Selinger 2001-2015
</metadata>
<g fill="#000000" stroke="none">
<path d="M66.0 44.0C48.3 46.5 38.9 55.8 40.3 69.3C41.2 78.7 44.3 83.3 60.0 99.5C68.1 107.7 76.5 117.2 78.7 120.5C91.2 139.3 110.6 179.1 118.9 203.2C122.3 212.9 127.5 225.9 130.4 232.2C133.3 238.4 138.7 250.7 142.5 259.5C153.8 286.4 161.9 304.8 169.5 321.0C173.5 329.5 179.9 344.4 183.8 354.0C187.7 363.6 192.3 374.6 194.0 378.5C195.8 382.3 200.1 392.5 203.5 401.0C207.0 409.5 212.4 422.6 215.5 430.0C218.6 437.4 224.8 452.3 229.2 463.0C238.9 486.9 242.7 493.9 250.0 501.2C255.7 506.9 262.4 510.0 269.0 510.0C278.2 510.0 288.9 503.3 296.3 492.8C303.1 483.3 306.2 476.2 312.5 456.5C315.6 446.6 320.7 432.2 323.7 424.5C331.9 403.6 343.6 373.2 349.0 358.5C353.2 347.2 358.6 333.8 374.0 296.5C376.0 291.5 380.0 282.5 382.8 276.5C385.6 270.4 389.5 261.2 391.4 256.0C393.3 250.8 398.5 238.2 403.0 228.0C413.9 203.3 416.1 198.0 422.7 181.0C429.8 162.3 446.4 129.5 453.1 120.5C456.0 116.6 464.3 107.6 471.6 100.5C485.9 86.6 491.5 78.8 492.6 71.3C494.5 58.8 482.6 48.1 463.5 45.0C455.4 43.7 411.0 43.7 401.4 45.1C390.9 46.5 384.1 49.3 378.5 54.2C372.6 59.4 370.0 64.8 370.0 72.0C370.0 79.0 372.6 85.1 381.8 100.4C391.3 116.1 392.5 120.1 392.4 136.5C392.4 153.8 389.5 165.7 379.5 191.0C375.3 201.7 369.6 217.0 366.8 225.0C358.2 250.3 348.8 266.3 337.3 275.7C331.1 280.7 325.7 282.3 317.5 281.8C306.5 281.1 295.3 273.3 286.6 260.2C282.6 254.0 260.5 205.7 249.7 179.5C244.3 166.4 236.6 142.7 234.9 134.1C233.2 125.3 234.3 116.4 237.9 109.2C239.6 105.9 244.8 99.1 249.8 93.6C259.9 82.6 263.0 77.3 263.0 70.7C263.0 64.8 261.9 62.1 258.0 58.1C252.6 52.7 244.5 49.3 231.6 46.9C222.3 45.1 75.9 42.6 66.0 44.0C66.0 44.0 66.0 44.0 66.0 44.0Z"/>
</g>
</svg>