<!DOCTYPE svg PUBLIC "-//W3C//DTD SVG 20010904//EN" "http://www.w3.org/TR/2001/REC-SVG-20010904/DTD/svg10.dtd">
<svg xmlns="http://www.w3.org/2000/svg" version="1.0" width="754.000000pt" height="835.000000pt" viewBox="0 0 754.000000 835.000000" preserveAspectRatio="xMidYMid meet">
<metadata>
Created by potrace 1.13, written by Peter Selinger 2001-2015
</metadata>
<g fill="#000000" stroke="none">
<path d="M80.9 39.4C80.7 39.6 76.5 40.3 71.7 40.9C66.8 41.5 60.2 42.7 56.9 43.6C39.1 48.6 32.4 68.5 43.3 84.7C47.0 90.2 50.5 92.4 64.9 98.1C84.0 105.7 89.7 109.8 99.7 123.4C109.1 136.2 113.6 145.4 120.3 166.0C123.3 175.1 128.2 188.6 131.3 196.0C137.9 212.2 139.5 217.6 141.5 229.4C143.4 241.2 151.6 268.1 156.8 279.6C161.3 289.6 163.1 295.4 165.6 308.0C166.5 312.7 168.1 318.7 169.2 321.5C173.7 332.8 180.3 358.8 184.0 380.0C189.4 410.0 192.3 421.6 196.5 430.0C198.4 433.8 201.3 440.3 203.0 444.5C204.6 448.6 207.7 455.5 209.9 459.8C212.0 464.0 214.9 470.6 216.3 474.5C217.7 478.3 220.8 486.4 223.3 492.5C225.7 498.5 229.6 509.1 231.8 516.0C234.1 522.9 238.1 533.7 240.9 540.1C246.9 554.1 247.5 556.3 249.5 571.0C251.2 582.9 255.4 597.4 262.2 614.4C264.3 619.8 268.5 634.2 271.5 646.4C274.9 660.5 279.2 674.9 283.3 686.0C286.9 695.6 291.2 708.2 293.0 714.0C297.4 728.4 315.7 763.7 321.2 768.4C333.2 778.7 359.6 774.7 368.5 761.2C373.1 754.2 382.9 729.2 388.5 710.1C393.9 691.5 403.1 666.0 410.8 648.0C414.8 638.6 420.1 623.9 428.4 598.5C430.7 591.3 434.6 581.7 437.0 577.0C439.3 572.4 443.0 563.4 445.0 557.0C447.1 550.7 451.8 539.3 455.4 531.8C459.0 524.3 464.3 511.4 467.0 503.3C469.8 495.2 474.3 484.4 476.9 479.4C482.6 468.7 486.1 458.5 488.9 443.8C491.3 431.1 494.4 423.0 501.4 411.0C504.6 405.7 508.6 396.6 511.5 388.3C514.2 380.7 518.0 371.1 520.0 367.0C526.7 353.6 529.6 343.6 532.5 324.5C535.2 306.1 537.0 300.2 541.5 294.8C544.5 291.2 548.4 283.7 549.4 279.6C549.8 278.0 550.3 270.3 550.5 262.6C551.2 239.2 553.3 233.3 564.8 220.9C572.4 212.8 575.0 208.5 577.5 199.5C579.7 191.9 584.9 180.4 588.8 174.8C593.4 168.0 597.6 159.2 601.9 146.9C606.4 133.8 610.3 124.8 613.1 120.8C614.2 119.3 618.8 115.8 623.3 113.1C627.8 110.4 634.2 106.6 637.5 104.6C640.8 102.6 647.2 99.8 651.8 98.5C656.3 97.1 663.9 94.8 668.8 93.4C675.8 91.3 678.2 90.1 681.1 87.0C690.3 77.4 688.3 57.5 677.5 50.4C672.5 47.1 663.9 45.9 632.0 44.0C614.1 42.9 595.0 41.5 589.5 41.0C584.0 40.4 569.8 39.7 558.0 39.3C534.4 38.7 527.7 39.6 518.2 44.4C511.9 47.6 503.4 55.3 501.0 60.1C498.1 65.8 498.3 74.2 501.6 80.8C506.0 89.6 511.4 94.2 525.7 101.2C536.2 106.4 539.0 108.2 541.2 111.5C545.7 118.0 547.3 127.8 546.7 146.5C546.1 165.3 543.7 176.1 536.7 190.0C536.7 190.0 532.5 198.5 532.5 198.5C532.5 198.5 532.7 213.8 532.7 213.8C533.0 235.8 531.1 244.6 523.0 258.8C511.1 279.3 505.9 289.6 503.0 297.7C499.2 308.4 498.2 310.2 491.4 319.1C485.2 327.3 480.7 336.2 476.6 348.6C475.1 353.1 472.1 359.7 469.9 363.1C463.9 372.6 461.3 378.5 458.6 388.7C457.3 393.7 454.6 401.4 452.7 405.7C450.8 410.0 447.8 418.0 446.0 423.5C442.0 435.9 441.9 436.1 434.0 445.6C423.2 458.6 418.9 462.7 414.3 464.0C410.6 465.1 409.7 465.0 405.8 463.1C399.6 460.2 393.3 454.5 391.0 449.9C388.8 445.6 380.5 422.8 375.8 408.0C374.2 402.8 370.8 394.7 368.3 390.2C362.1 378.6 355.4 360.0 351.9 344.1C350.3 336.7 347.6 327.5 345.9 323.6C338.8 307.3 337.8 304.3 334.5 289.7C332.5 281.1 329.2 270.1 326.9 264.5C319.7 247.2 311.2 221.0 308.1 206.6C306.0 197.1 303.7 189.8 300.6 183.2C282.4 143.4 280.0 121.9 291.9 104.6C296.2 98.4 299.8 95.7 308.7 92.0C318.2 88.1 324.7 83.4 328.6 77.9C330.9 74.6 331.5 72.4 331.8 67.0C332.2 60.4 332.1 60.1 328.6 56.2C323.6 50.7 313.3 45.5 303.0 43.4C293.1 41.4 277.9 41.8 259.0 44.6C250.0 45.9 244.6 46.0 234.0 45.4C226.6 45.0 201.9 44.6 179.2 44.5C134.8 44.3 127.9 43.9 106.5 40.9C93.6 39.1 81.9 38.4 80.9 39.4C80.9 39.4 80.9 39.4 80.9 39.4Z"/>
</g>
</svg>