<!DOCTYPE svg PUBLIC "-//W3C//DTD SVG 20010904//EN" "http://www.w3.org/TR/2001/REC-SVG-20010904/DTD/svg10.dtd">
<svg xmlns="http://www.w3.org/2000/svg" version="1.0" width="700.000000pt" height="539.000000pt" viewBox="0 0 700.000000 539.000000" preserveAspectRatio="xMidYMid meet">
<metadata>
Created by potrace 1.13, written by Peter Selinger 2001-2015
</metadata>
<g fill="#000000" stroke="none">
<path d="M148.0 36.1C142.4 38.7 131.2 41.6 124.0 42.5C121.0 42.9 117.2 43.8 115.5 44.5C111.8 46.0 81.0 76.2 78.2 81.0C77.1 82.9 75.0 88.1 73.5 92.5C68.1 108.9 58.5 131.5 52.6 141.8C44.4 156.1 41.8 162.5 41.8 168.0C41.8 179.3 48.8 184.6 66.2 186.6C74.0 187.5 76.7 186.2 84.0 177.9C92.5 168.4 99.5 165.1 105.0 168.0C108.0 169.6 110.3 179.1 109.8 187.6C109.4 194.1 108.9 195.5 104.7 202.1C99.4 210.2 99.6 209.1 99.9 232.5C100.2 255.3 99.2 261.4 94.0 269.5C84.8 283.7 83.6 291.4 84.3 332.7C84.6 349.7 85.2 365.2 85.8 367.2C86.3 369.3 88.1 373.0 89.6 375.5C98.6 389.9 98.7 390.4 104.0 417.5C107.1 433.4 109.5 440.7 112.8 444.3C113.7 445.3 117.8 448.5 122.0 451.5C126.1 454.4 132.7 460.1 136.5 464.2C146.9 475.1 147.4 475.2 188.0 475.7C230.8 476.3 234.7 475.5 250.1 461.8C254.7 457.7 262.3 451.5 267.0 448.0C271.7 444.5 278.1 438.8 281.3 435.3C284.5 431.8 290.4 426.9 294.3 424.4C298.3 421.8 304.5 416.9 308.3 413.3C314.2 407.6 315.4 406.9 317.8 407.5C321.5 408.4 324.2 411.1 330.8 420.5C335.7 427.6 341.9 435.6 352.4 448.5C354.2 450.7 358.7 454.2 362.4 456.4C366.0 458.5 371.9 462.9 375.5 466.0C379.1 469.2 383.3 472.2 384.8 472.8C386.3 473.4 392.8 474.6 399.4 475.4C410.2 476.8 411.9 477.4 419.9 481.7C427.4 485.8 429.2 486.4 434.0 486.3C437.6 486.2 441.9 485.2 446.0 483.5C456.6 479.0 466.6 477.0 482.0 476.1C492.9 475.4 497.9 474.7 502.2 473.0C507.5 471.0 510.2 469.2 524.3 458.1C526.9 456.1 533.4 451.9 538.7 448.9C547.2 444.1 549.9 441.8 562.6 428.5C583.6 406.4 590.4 397.5 599.5 379.8C603.8 371.4 610.0 360.9 613.3 356.5C620.0 347.4 623.1 341.6 625.0 334.5C626.9 327.2 630.3 320.0 634.8 313.3C641.5 303.5 642.0 301.7 644.1 284.7C647.2 258.9 649.9 247.1 655.6 234.2C660.2 223.7 661.1 217.9 661.7 193.5C662.2 170.9 661.7 158.7 658.5 122.5C656.5 100.4 655.6 98.1 646.8 92.5C643.3 90.3 635.7 83.9 629.8 78.3C620.3 69.2 618.4 67.9 612.7 66.1C603.9 63.4 592.5 62.7 579.7 63.9C566.3 65.2 560.5 67.6 554.5 74.2C543.6 86.3 541.7 96.9 547.0 117.2C548.7 123.9 551.1 131.2 552.3 133.2C553.6 135.6 558.2 139.8 564.9 144.8C579.4 155.5 579.4 155.5 593.7 160.5C611.9 166.8 611.7 166.6 614.2 187.1C616.6 207.4 616.2 212.8 611.1 226.7C608.9 232.6 605.8 242.0 604.1 247.6C602.4 253.2 597.9 263.8 594.2 271.2C590.4 278.7 586.1 288.7 584.5 293.6C583.0 298.5 578.8 308.2 575.3 315.3C571.8 322.3 567.9 330.9 566.6 334.4C565.2 337.9 561.5 345.0 558.2 350.2C555.0 355.3 550.6 362.6 548.5 366.5C541.8 378.8 536.5 385.2 524.6 395.9C518.2 401.6 511.6 407.9 510.0 410.1C505.8 415.3 495.9 421.7 489.1 423.6C486.0 424.4 479.2 426.6 474.0 428.3C466.8 430.7 462.8 431.4 457.5 431.4C449.5 431.3 428.0 426.7 423.5 424.1C415.7 419.6 410.6 407.6 406.8 385.4C404.1 369.3 404.3 368.1 412.8 345.2C419.5 327.6 421.0 321.1 421.0 310.7C421.0 306.9 422.1 297.2 423.5 289.1C424.8 281.1 427.3 264.5 429.0 252.4C432.0 230.6 436.5 210.8 440.8 200.9C445.2 190.8 449.1 176.4 452.0 159.7C453.7 150.1 456.2 136.9 457.6 130.4C461.0 114.6 461.9 90.0 459.6 79.1C457.9 71.0 454.2 63.8 450.5 61.4C449.1 60.5 443.4 58.6 437.7 57.2C418.9 52.6 401.7 54.0 387.0 61.5C380.6 64.8 377.7 68.3 373.1 78.2C370.5 84.0 367.3 88.9 363.5 93.0C360.4 96.4 357.0 101.1 356.0 103.4C353.5 108.9 350.3 124.3 349.1 136.5C347.8 149.1 346.7 152.8 342.0 161.5C339.3 166.5 337.4 172.0 335.5 180.5C331.6 198.2 327.1 215.9 325.4 219.9C324.6 221.9 321.9 226.4 319.5 230.0C315.4 236.0 315.0 237.2 314.1 245.5C313.0 256.5 309.5 275.7 307.4 282.5C306.5 285.2 303.2 292.7 300.0 299.0C292.8 313.4 289.1 323.7 285.1 341.5C278.3 371.0 275.5 376.7 261.4 390.2C256.5 394.7 248.4 402.8 243.3 408.1C232.9 418.8 227.7 422.0 214.5 425.2C204.2 427.8 199.8 427.1 195.5 422.5C190.3 417.1 188.5 409.6 188.5 394.0C188.6 369.1 190.8 343.8 194.1 330.0C195.7 323.1 198.0 311.4 199.1 304.0C201.4 287.9 204.0 277.9 207.9 270.2C211.2 263.6 212.5 258.5 214.5 243.7C215.3 237.8 217.3 229.0 219.0 224.2C230.3 192.0 231.4 185.7 231.5 150.5C231.5 127.0 231.4 125.1 229.2 118.0C227.9 113.9 225.8 108.5 224.5 105.9C223.2 103.4 221.2 97.6 220.1 93.1C216.3 77.7 213.3 73.0 198.6 58.7C184.0 44.4 180.8 42.2 167.9 37.4C157.6 33.5 154.2 33.3 148.0 36.1C148.0 36.1 148.0 36.1 148.0 36.1M119.5 121.4C124.2 126.1 124.0 131.6 118.8 137.5C114.8 142.1 112.3 141.8 109.3 136.5C106.7 131.8 106.4 128.0 108.5 124.0C111.3 118.6 115.7 117.6 119.5 121.4C119.5 121.4 119.5 121.4 119.5 121.4Z"/>
</g>
</svg>