<!DOCTYPE svg PUBLIC "-//W3C//DTD SVG 20010904//EN" "http://www.w3.org/TR/2001/REC-SVG-20010904/DTD/svg10.dtd">
<svg xmlns="http://www.w3.org/2000/svg" version="1.0" width="592.000000pt" height="592.000000pt" viewBox="0 0 592.000000 592.000000" preserveAspectRatio="xMidYMid meet">
<metadata>
Created by potrace 1.13, written by Peter Selinger 2001-2015
</metadata>
<g fill="#000000" stroke="none">
<path d="M362.0 45.5C351.3 47.2 343.8 50.0 336.9 54.8C330.1 59.6 326.5 64.8 324.4 73.0C322.9 78.7 322.9 81.1 323.9 93.0C325.9 116.2 322.8 131.1 313.4 142.7C307.2 150.2 294.5 154.6 285.4 152.1C276.1 149.6 269.0 142.3 262.2 128.0C258.9 121.2 258.5 119.5 258.2 110.4C257.9 103.2 258.3 98.1 259.6 92.4C262.3 80.6 262.1 71.6 259.0 65.5C254.2 55.8 241.1 49.6 222.1 48.0C216.3 47.5 192.4 46.6 169.0 46.0C82.6 43.9 68.0 44.8 55.4 53.2C48.6 57.8 46.0 62.1 46.0 68.4C46.1 77.7 50.7 84.8 62.5 93.5C76.9 104.2 87.3 114.3 97.7 128.0C107.5 140.9 112.6 148.6 129.1 175.8C135.9 187.1 155.7 218.3 171.3 242.5C184.9 263.6 189.9 276.5 190.7 293.0C191.2 301.8 190.9 304.9 189.1 312.0C186.1 323.2 180.9 334.3 171.8 348.1C167.7 354.4 162.6 362.2 160.5 365.5C153.7 376.2 134.5 401.4 126.0 410.9C116.1 421.9 97.2 438.2 84.3 446.8C67.4 458.1 57.0 470.1 57.0 478.0C57.0 489.0 66.1 497.8 81.4 501.7C91.9 504.4 144.5 504.4 157.0 501.7C172.5 498.4 183.0 490.3 186.0 479.4C187.8 473.2 186.8 460.4 183.5 447.5C177.4 423.7 180.7 402.8 193.5 383.5C203.7 368.1 212.6 362.5 226.5 362.5C233.4 362.6 235.2 363.0 240.0 365.5C246.8 369.2 262.3 384.7 266.9 392.3C268.7 395.4 271.6 401.9 273.3 406.7C276.0 414.5 276.3 416.8 276.3 426.5C276.2 436.4 275.8 438.9 272.1 451.4C267.6 466.4 266.8 475.3 269.4 481.4C271.6 486.7 277.5 492.6 283.1 494.9C294.6 499.9 297.7 500.1 377.5 501.1C457.9 502.1 462.9 501.9 477.2 497.4C494.7 491.9 500.9 478.4 493.1 463.2C489.8 456.7 484.1 451.0 470.6 440.8C464.0 435.7 456.5 429.7 454.1 427.5C447.3 421.3 433.5 403.9 425.2 391.1C421.1 384.7 415.2 376.1 412.1 372.0C405.5 363.0 391.0 341.9 383.2 329.7C380.0 324.9 372.9 313.9 367.2 305.3C361.5 296.7 355.0 286.1 352.8 281.6C350.6 277.2 346.5 269.5 343.8 264.6C341.0 259.6 337.6 252.6 336.3 249.0C329.3 230.6 329.3 209.3 336.1 195.7C339.5 189.1 364.7 151.6 369.4 146.3C371.7 143.6 376.1 138.3 379.3 134.3C385.8 126.1 402.9 111.5 419.7 99.7C426.0 95.3 432.7 90.1 434.6 88.2C444.3 78.2 444.3 64.8 434.8 56.4C430.1 52.2 421.4 48.2 413.2 46.3C403.7 44.2 373.0 43.7 362.0 45.5C362.0 45.5 362.0 45.5 362.0 45.5Z"/>
</g>
</svg>