<!DOCTYPE svg PUBLIC "-//W3C//DTD SVG 20010904//EN" "http://www.w3.org/TR/2001/REC-SVG-20010904/DTD/svg10.dtd">
<svg xmlns="http://www.w3.org/2000/svg" version="1.0" width="552.000000pt" height="619.000000pt" viewBox="0 0 552.000000 619.000000" preserveAspectRatio="xMidYMid meet">
<metadata>
Created by potrace 1.13, written by Peter Selinger 2001-2015
</metadata>
<g fill="#000000" stroke="none">
<path d="M264.8 43.8C264.8 43.8 261.7 46.7 261.7 46.7C261.7 46.7 261.4 58.1 261.4 58.1C260.5 95.4 257.0 100.4 229.5 103.5C221.7 104.4 216.2 106.9 208.7 112.8C201.2 118.8 196.0 121.5 187.7 123.8C178.3 126.4 108.8 126.2 92.0 123.6C74.4 120.8 65.2 120.5 56.7 122.5C42.9 125.9 40.1 128.7 36.9 142.5C34.8 151.7 34.8 152.2 36.5 156.6C38.6 162.2 53.2 177.1 59.9 180.5C64.6 182.8 71.2 184.4 81.0 185.5C84.0 185.9 88.8 187.3 91.7 188.6C96.2 190.7 97.8 192.5 104.0 201.3C107.9 206.9 113.0 213.8 115.4 216.6C119.1 221.0 120.0 223.1 122.4 232.5C123.9 238.4 125.7 244.7 126.5 246.6C128.0 250.3 151.2 276.4 156.5 280.5C162.5 285.0 164.8 289.1 167.6 300.0C171.1 313.9 173.0 317.6 180.8 326.4C192.4 339.3 205.5 362.9 206.7 372.9C207.6 380.8 206.5 384.1 200.6 390.6C197.6 393.9 193.2 400.5 190.7 405.5C188.2 410.5 184.8 415.9 183.0 417.7C181.3 419.5 177.2 424.2 174.0 428.1C170.8 432.0 165.1 438.1 161.3 441.5C156.2 446.1 153.2 449.9 150.5 455.2C144.5 466.7 140.9 472.0 133.2 480.2C129.3 484.4 124.9 490.2 123.5 492.9C121.8 496.4 118.7 499.9 113.7 504.0C109.8 507.3 104.3 512.7 101.6 516.1C98.9 519.5 94.8 523.4 92.6 524.8C84.0 530.2 82.1 532.8 78.8 543.5C75.0 555.7 74.9 561.6 78.4 572.6C81.4 581.9 84.1 585.4 89.6 586.9C94.8 588.3 168.7 588.4 180.0 586.9C194.4 585.1 199.4 581.6 203.9 570.2C206.5 563.6 206.6 558.0 204.1 554.8C203.0 553.5 198.9 550.3 194.8 547.7C183.4 540.2 181.2 535.9 183.5 524.8C184.3 521.3 185.4 513.1 186.0 506.5C187.8 487.3 187.9 487.1 200.4 476.6C203.6 473.9 208.4 468.9 211.1 465.5C213.8 462.0 217.6 458.5 219.6 457.5C224.1 455.4 241.3 451.0 245.2 451.0C249.9 451.0 255.2 457.0 258.0 465.5C259.3 469.3 262.0 476.5 264.2 481.4C266.3 486.3 268.3 492.1 268.6 494.4C269.6 501.4 267.4 515.3 264.0 523.3C261.9 528.0 260.7 532.9 260.3 537.5C259.6 546.8 261.4 559.4 264.2 563.9C267.5 569.3 281.0 582.9 285.5 585.3C285.5 585.3 289.5 587.5 289.5 587.5C289.5 587.5 380.5 587.5 380.5 587.5C493.1 587.5 483.9 588.8 503.5 570.3C515.3 559.1 515.7 557.7 508.4 551.5C505.7 549.3 501.0 545.0 497.9 541.8C491.5 535.4 490.2 534.6 477.0 529.5C467.1 525.6 462.0 522.4 459.5 518.6C458.6 517.3 456.2 511.4 454.0 505.5C450.4 495.4 449.6 494.2 443.1 487.6C437.6 482.0 435.3 478.6 432.2 471.9C429.2 465.4 427.2 462.5 423.9 459.9C415.3 453.1 413.4 450.4 408.4 438.4C405.7 431.8 401.1 422.9 398.1 418.5C394.2 412.8 391.4 407.1 388.4 398.5C386.1 391.9 382.5 382.9 380.5 378.5C375.0 366.7 368.2 349.7 364.9 339.4C361.8 329.7 359.9 326.9 353.1 322.4C350.8 320.9 348.2 318.3 347.4 316.7C345.3 312.7 343.5 297.6 344.4 291.5C345.1 286.9 345.8 285.9 353.5 278.5C360.5 271.8 362.5 269.2 365.4 262.9C367.5 258.2 371.0 252.8 374.5 248.9C382.4 240.1 384.5 236.8 387.9 227.4C391.6 216.9 392.7 215.4 400.5 209.2C404.0 206.3 409.3 201.0 412.2 197.4C415.1 193.8 418.9 190.0 420.6 189.0C422.3 187.9 428.1 186.3 434.1 185.4C449.0 183.1 452.5 181.4 455.5 174.8C459.1 166.8 461.3 157.3 460.7 152.0C459.8 145.4 456.2 135.0 453.4 131.3C450.5 127.5 445.2 125.7 432.0 124.0C427.3 123.4 418.1 122.0 411.5 120.9C393.1 117.7 386.6 117.9 373.0 122.0C361.6 125.5 361.3 125.5 344.0 125.3C324.0 125.1 315.4 124.0 309.0 120.7C300.5 116.3 298.3 108.9 297.1 80.5C296.2 61.6 294.9 56.6 288.7 50.1C279.9 40.8 270.9 38.5 264.8 43.8C264.8 43.8 264.8 43.8 264.8 43.8Z"/>
</g>
</svg>