<!DOCTYPE svg PUBLIC "-//W3C//DTD SVG 20010904//EN" "http://www.w3.org/TR/2001/REC-SVG-20010904/DTD/svg10.dtd">
<svg xmlns="http://www.w3.org/2000/svg" version="1.0" width="1091.000000pt" height="1185.000000pt" viewBox="0 0 1091.000000 1185.000000" preserveAspectRatio="xMidYMid meet">
<metadata>
Created by potrace 1.13, written by Peter Selinger 2001-2015
</metadata>
<g fill="#000000" stroke="none">
<path d="M773.9 43.7C770.5 45.1 748.3 65.9 745.5 70.4C743.9 72.9 743.5 75.1 743.6 82.0C743.7 92.5 745.1 97.8 748.7 101.2C750.3 102.6 756.9 106.3 763.6 109.4C763.6 109.4 775.7 115.0 775.7 115.0C775.7 115.0 795.4 115.0 795.4 115.0C810.6 115.0 815.7 115.3 817.8 116.4C819.3 117.2 825.9 123.4 832.6 130.2C846.4 144.3 847.1 145.8 847.1 161.0C847.2 168.3 846.7 170.8 844.5 176.1C843.0 179.6 839.1 189.4 835.9 197.9C827.9 218.8 826.0 221.5 815.7 227.4C812.2 229.4 809.7 232.0 806.6 236.8C804.2 240.5 798.9 246.6 794.6 250.4C785.8 258.3 784.5 260.3 782.5 270.0C780.7 278.4 780.2 279.4 774.0 288.0C766.9 297.7 765.9 300.3 764.3 312.4C762.2 329.4 760.6 333.3 751.8 344.4C746.4 351.1 743.8 358.0 741.5 371.6C739.0 386.6 736.5 392.5 728.6 401.9C723.1 408.5 721.3 412.7 719.5 423.1C716.0 444.1 715.5 445.5 707.4 456.4C705.0 459.7 701.6 466.0 700.0 470.4C691.6 492.7 691.8 492.3 686.1 498.0C679.6 504.4 670.8 509.8 665.7 510.7C659.4 511.7 655.3 510.2 649.5 505.0C646.5 502.3 641.4 498.7 638.1 497.1C628.0 492.0 625.1 488.2 619.9 473.3C616.6 463.9 615.4 461.8 609.9 455.0C605.1 449.1 603.9 446.8 598.1 432.1C595.3 425.3 590.6 415.8 587.6 411.0C580.4 399.7 579.4 397.2 578.1 387.2C577.5 382.7 576.5 375.3 575.9 370.8C574.5 360.1 571.9 353.5 565.5 344.1C562.6 339.8 558.1 332.2 555.6 327.2C552.7 321.5 548.7 315.5 544.9 311.3C537.8 303.5 535.4 299.0 531.1 285.5C527.5 274.4 526.5 272.4 518.6 262.5C515.5 258.7 511.2 252.0 509.0 247.8C506.7 243.5 503.3 237.9 501.3 235.3C499.3 232.7 496.2 228.7 494.5 226.4C492.5 223.8 489.4 216.7 486.1 206.9C483.2 198.4 478.5 186.6 475.8 180.7C471.9 172.2 470.9 169.2 471.4 166.8C472.5 161.2 483.0 141.6 486.9 137.9C490.7 134.2 492.8 133.4 511.7 128.0C516.1 126.8 521.5 124.2 525.7 121.4C529.4 118.9 535.9 115.1 540.0 113.0C553.4 106.2 555.0 102.3 550.5 88.3C546.4 75.8 544.4 74.2 523.0 65.1C503.5 56.8 495.0 53.9 481.7 50.9C476.8 49.8 468.2 47.6 462.7 46.0C462.7 46.0 452.7 43.0 452.7 43.0C452.7 43.0 398.1 43.0 398.1 43.0C364.0 43.0 342.2 43.4 340.0 44.0C338.1 44.6 331.6 46.0 325.5 47.2C314.6 49.4 313.4 49.5 186.0 50.0C65.8 50.5 57.2 50.6 53.0 52.3C50.0 53.5 45.0 57.4 38.2 63.9C38.2 63.9 28.0 73.8 28.0 73.8C28.0 73.8 28.0 79.1 28.0 79.1C28.0 86.0 30.6 91.6 36.5 97.9C42.5 104.3 47.7 106.6 60.3 108.7C69.1 110.1 72.7 110.1 87.0 109.1C96.1 108.5 112.1 108.0 122.6 108.0C148.2 108.0 153.7 109.7 164.1 120.6C166.7 123.3 172.1 128.5 176.2 132.1C187.3 142.1 193.3 155.0 204.0 191.9C205.8 198.3 207.0 200.1 212.6 206.1C219.5 213.4 222.8 219.7 225.0 229.0C226.7 236.5 230.0 241.9 235.3 245.9C241.3 250.4 243.4 253.4 248.5 265.2C250.9 270.7 255.6 279.4 259.0 284.5C263.7 291.6 265.9 296.4 269.0 305.8C273.8 320.6 274.9 322.8 281.6 331.1C287.5 338.4 290.1 343.6 295.0 358.4C298.1 367.7 298.7 368.8 304.6 374.6C311.5 381.3 313.4 384.8 317.0 398.0C318.3 402.7 321.4 411.9 324.0 418.5C330.5 435.0 331.5 438.4 334.9 454.7C338.5 472.0 341.2 478.5 347.0 483.1C356.8 490.9 363.1 497.5 365.4 502.4C372.2 516.8 376.7 527.8 380.7 540.3C384.6 552.2 386.0 555.2 391.4 562.8C399.4 573.8 400.1 575.3 404.0 588.0C407.4 599.0 407.9 599.7 418.4 608.3C424.0 612.9 424.7 614.4 431.6 632.4C434.5 640.2 438.4 649.9 440.3 654.0C448.9 672.8 449.3 674.7 450.1 704.1C450.9 734.7 451.3 736.5 459.8 757.4C459.8 757.4 465.5 771.5 465.5 771.5C465.5 771.5 465.4 785.0 465.4 785.0C465.3 796.9 465.0 799.4 462.7 806.1C459.2 816.0 459.3 821.7 463.0 833.3C463.0 833.3 466.1 842.6 466.1 842.6C466.1 842.6 465.8 932.5 465.8 932.5C465.8 932.5 465.5 1022.5 465.5 1022.5C465.5 1022.5 462.7 1030.5 462.7 1030.5C457.0 1046.6 449.8 1056.7 438.6 1064.2C435.3 1066.5 430.9 1069.6 429.0 1071.1C422.9 1076.0 414.5 1079.1 403.7 1080.6C390.2 1082.5 386.4 1083.6 380.9 1087.1C375.4 1090.6 366.0 1100.3 363.6 1104.7C359.5 1112.7 363.1 1120.5 376.3 1131.8C385.2 1139.4 388.0 1140.0 415.3 1140.5C434.5 1140.8 439.4 1141.3 446.6 1143.1C456.1 1145.5 464.0 1145.4 483.0 1142.5C496.7 1140.5 537.1 1139.4 547.0 1140.8C551.1 1141.4 558.6 1143.1 563.5 1144.6C572.1 1147.1 573.5 1147.3 593.5 1147.2C608.4 1147.1 616.4 1146.7 621.0 1145.6C634.1 1142.6 652.6 1140.9 677.3 1140.5C690.9 1140.2 703.9 1139.6 706.1 1139.0C708.2 1138.4 712.1 1136.1 714.7 1133.8C721.9 1127.6 726.8 1125.8 739.2 1125.0C748.7 1124.4 750.8 1123.8 757.7 1120.6C766.5 1116.4 770.0 1113.6 770.0 1110.6C770.0 1109.5 768.3 1106.6 766.2 1104.1C764.0 1101.6 760.3 1096.3 757.8 1092.4C753.0 1085.0 749.9 1082.5 741.5 1079.4C735.1 1077.1 718.0 1060.9 714.1 1053.5C714.1 1053.5 711.5 1048.5 711.5 1048.5C711.5 1048.5 711.5 838.0 711.5 838.0C711.5 641.2 711.6 626.8 713.3 616.5C716.1 599.2 717.6 594.0 727.7 568.5C738.9 540.3 739.0 540.1 744.7 533.1C750.3 526.2 751.0 524.8 755.9 510.7C760.9 496.3 761.9 494.3 768.9 485.0C772.1 480.9 777.0 473.4 779.8 468.4C782.7 463.4 788.2 455.7 792.1 451.4C800.5 442.0 802.5 438.5 804.0 430.0C805.9 419.5 808.6 413.7 814.9 406.9C822.3 398.8 823.5 396.4 826.6 383.3C829.7 370.6 830.6 368.7 836.7 361.8C842.5 355.2 844.7 350.2 846.1 340.4C848.5 323.3 849.9 318.2 854.5 311.7C856.9 308.3 861.9 300.4 865.7 294.1C870.0 286.8 875.5 279.5 880.6 274.0C889.5 264.5 891.4 260.7 894.5 246.5C896.7 236.6 897.8 234.3 904.5 226.5C910.9 218.9 912.6 214.2 914.5 197.7C916.0 184.4 918.1 173.4 919.8 168.9C920.4 167.5 923.1 163.7 926.0 160.4C928.8 157.2 933.6 150.8 936.7 146.3C940.5 140.7 943.9 137.0 946.9 135.0C952.0 131.8 956.1 127.7 960.9 121.0C965.0 115.2 970.8 111.4 977.8 109.9C980.9 109.3 996.5 108.5 1012.5 108.1C1051.1 107.2 1049.3 108.4 1053.0 82.6C1055.5 65.5 1055.2 61.6 1050.8 54.8C1046.6 48.2 1042.9 45.3 1036.8 44.0C1028.9 42.4 777.8 42.1 773.9 43.7C773.9 43.7 773.9 43.7 773.9 43.7Z"/>
</g>
</svg>