<!DOCTYPE svg PUBLIC "-//W3C//DTD SVG 20010904//EN" "http://www.w3.org/TR/2001/REC-SVG-20010904/DTD/svg10.dtd">
<svg xmlns="http://www.w3.org/2000/svg" version="1.0" width="566.000000pt" height="767.000000pt" viewBox="0 0 566.000000 767.000000" preserveAspectRatio="xMidYMid meet">
<metadata>
Created by potrace 1.13, written by Peter Selinger 2001-2015
</metadata>
<g fill="#000000" stroke="none">
<path d="M466.0 41.7C464.1 41.8 451.9 42.4 439.0 42.9C403.9 44.5 380.4 49.1 370.8 56.3C365.0 60.6 361.0 68.6 361.0 75.7C361.0 82.2 362.9 87.1 369.6 98.0C377.5 110.9 384.9 126.3 386.5 133.3C390.4 149.9 386.2 173.6 371.5 217.0C361.5 246.8 351.5 265.3 338.1 279.4C332.7 285.1 328.8 287.0 322.5 287.0C316.7 287.0 312.3 285.1 307.2 280.5C301.3 275.2 298.0 269.5 289.7 250.0C285.5 240.4 280.3 228.2 278.0 223.0C265.9 195.8 252.2 156.3 250.0 142.7C248.4 132.3 252.4 116.6 258.3 110.1C259.5 108.8 264.8 104.5 270.0 100.5C281.2 92.0 283.4 89.7 285.5 84.8C290.2 73.4 284.2 61.7 269.9 54.4C258.7 48.8 250.5 48.0 195.5 47.5C174.6 47.3 143.3 46.9 126.0 46.5C103.5 45.9 92.0 46.1 85.5 46.9C63.5 49.9 53.5 57.6 53.5 71.5C53.5 80.3 57.2 86.2 69.0 96.9C84.7 111.0 91.2 118.3 96.8 127.6C105.3 141.7 116.4 165.3 121.5 180.0C124.2 187.4 127.7 196.4 129.5 200.0C134.7 210.5 139.5 223.3 145.0 241.5C147.8 250.8 152.4 263.7 155.1 270.0C157.9 276.3 162.7 288.2 165.9 296.5C169.1 304.7 174.3 317.6 177.5 325.0C180.6 332.4 185.2 344.2 187.6 351.2C190.0 358.2 194.2 369.3 196.9 375.7C203.6 391.7 209.2 407.3 213.0 420.5C214.8 426.5 218.8 437.1 221.9 444.0C228.6 458.5 230.3 463.5 236.6 486.5C242.2 507.2 243.4 522.0 240.6 535.8C235.6 560.4 218.5 595.9 204.7 610.3C196.8 618.5 191.0 621.4 182.5 621.4C173.9 621.4 169.1 618.8 157.5 608.0C136.3 588.3 121.4 581.9 99.6 583.3C88.0 584.0 82.8 585.9 71.8 593.2C61.2 600.3 56.5 605.9 50.5 618.5C43.9 632.3 42.6 638.3 42.5 653.5C42.5 668.5 44.0 674.3 51.7 689.2C57.0 699.6 61.2 704.4 73.3 714.6C83.5 723.2 90.9 727.0 103.8 730.3C111.3 732.2 115.2 732.5 133.0 732.5C151.5 732.5 154.3 732.3 161.5 730.2C170.5 727.6 186.8 720.1 195.1 714.8C204.5 708.7 218.6 695.4 226.0 685.5C235.9 672.4 238.8 667.3 246.0 650.6C249.4 642.6 254.8 631.4 257.9 625.8C264.8 613.5 265.8 610.8 271.0 591.5C274.3 579.5 276.9 572.8 283.9 558.0C288.8 547.8 293.6 537.0 294.5 534.0C295.5 531.0 298.7 522.9 301.8 516.0C304.8 509.2 308.7 499.5 310.5 494.5C316.8 477.3 324.8 457.4 330.3 445.5C333.3 438.9 337.2 429.1 338.8 423.7C342.0 413.6 362.4 361.0 369.1 345.9C371.2 341.1 377.1 326.0 382.3 312.4C387.5 298.7 394.1 282.3 396.8 276.0C403.6 260.3 406.9 252.1 413.0 234.5C415.9 226.2 420.0 215.5 422.2 210.7C424.3 205.8 428.3 195.0 431.1 186.8C433.8 178.5 439.2 165.5 443.0 157.9C458.6 126.3 466.4 116.3 484.9 103.7C502.1 92.0 509.0 83.5 511.1 71.2C513.0 60.8 509.3 52.8 500.2 47.4C493.4 43.3 478.1 40.7 466.0 41.7C466.0 41.7 466.0 41.7 466.0 41.7Z"/>
</g>
</svg>