<!DOCTYPE svg PUBLIC "-//W3C//DTD SVG 20010904//EN" "http://www.w3.org/TR/2001/REC-SVG-20010904/DTD/svg10.dtd">
<svg xmlns="http://www.w3.org/2000/svg" version="1.0" width="458.000000pt" height="525.000000pt" viewBox="0 0 458.000000 525.000000" preserveAspectRatio="xMidYMid meet">
<metadata>
Created by potrace 1.13, written by Peter Selinger 2001-2015
</metadata>
<g fill="#000000" stroke="none">
<path d="M129.5 41.0C118.5 42.5 104.7 47.7 98.1 52.6C88.0 60.2 79.9 73.2 78.1 84.9C70.0 136.6 70.0 136.6 70.0 152.4C70.0 174.7 72.8 183.5 81.6 188.6C85.3 190.8 87.0 191.2 91.4 190.8C98.0 190.3 106.4 186.2 111.4 181.3C113.4 179.2 117.1 174.2 119.6 170.2C125.8 159.9 148.9 129.3 154.1 124.4C166.5 112.8 175.5 107.1 187.0 103.9C202.7 99.4 215.6 103.8 217.6 114.5C218.6 120.3 214.6 133.4 207.0 148.5C191.9 178.8 179.5 200.6 164.0 224.5C158.6 232.7 152.5 242.6 150.5 246.5C148.4 250.3 144.3 256.9 141.5 261.0C138.6 265.1 134.8 271.2 133.0 274.5C131.2 277.8 126.3 286.1 122.2 292.8C118.1 299.6 112.5 310.2 109.8 316.3C107.1 322.5 102.3 331.1 99.1 335.5C95.9 339.9 90.7 348.4 87.5 354.5C84.3 360.5 79.3 369.5 76.3 374.5C50.4 417.3 40.0 439.3 40.0 451.0C40.0 458.4 43.4 466.2 49.1 472.1C54.6 477.8 59.9 480.4 68.5 481.9C71.8 482.4 79.5 484.1 85.5 485.5C95.6 487.9 98.2 488.1 116.9 488.0C128.1 488.0 137.8 487.7 138.3 487.3C139.5 486.6 230.8 485.9 280.0 486.3C347.0 486.7 358.1 486.5 366.3 484.7C378.6 482.0 383.3 479.5 390.1 472.1C402.1 459.0 407.6 442.7 408.5 417.5C408.8 409.2 409.5 391.2 410.1 377.5C412.0 335.9 409.7 319.4 401.2 311.9C389.8 301.8 379.0 302.9 366.4 315.4C359.1 322.8 347.1 338.7 340.8 349.5C336.0 357.8 307.6 392.6 298.2 401.7C292.0 407.7 278.1 415.0 268.0 417.5C253.5 421.2 239.3 420.1 231.2 414.7C226.7 411.7 223.0 403.9 223.0 397.5C223.0 385.9 235.2 353.8 246.1 336.4C248.2 333.1 252.7 324.3 255.9 317.0C259.2 309.8 263.4 301.9 265.2 299.6C267.0 297.3 270.7 292.7 273.4 289.4C276.1 286.1 280.6 279.3 283.4 274.3C286.2 269.3 293.0 257.3 298.4 247.7C303.9 238.0 311.4 226.0 315.1 221.0C318.8 216.0 324.3 207.3 327.3 201.7C332.8 191.3 351.2 163.4 361.3 150.0C364.5 145.9 368.7 139.3 370.7 135.5C372.7 131.6 376.2 125.3 378.5 121.5C384.8 111.1 387.3 105.7 392.9 91.1C397.0 80.4 398.0 76.6 398.0 71.7C398.0 57.7 388.3 48.4 367.8 42.8C360.1 40.7 357.7 40.5 333.0 40.6C316.3 40.7 300.8 41.3 291.1 42.4C271.7 44.4 238.7 44.4 214.0 42.4C192.7 40.6 138.4 39.7 129.5 41.0C129.5 41.0 129.5 41.0 129.5 41.0Z"/>
</g>
</svg>