<!DOCTYPE svg PUBLIC "-//W3C//DTD SVG 20010904//EN" "http://www.w3.org/TR/2001/REC-SVG-20010904/DTD/svg10.dtd">
<svg xmlns="http://www.w3.org/2000/svg" version="1.0" width="390.000000pt" height="256.000000pt" viewBox="0 0 390.000000 256.000000" preserveAspectRatio="xMidYMid meet">
<metadata>
Created by potrace 1.13, written by Peter Selinger 2001-2015
</metadata>
<g fill="#000000" stroke="none">
<path d="M342.0 38.2C340.8 38.7 337.6 40.5 335.1 42.4C327.4 47.9 324.8 48.5 311.7 48.2C295.0 47.9 292.8 49.0 284.0 61.7C282.3 64.1 278.7 67.3 275.3 69.2C267.8 73.6 264.2 79.0 259.5 93.0C254.3 108.5 248.7 115.3 238.6 118.2C234.5 119.4 211.7 119.8 200.4 119.0C195.0 118.5 194.0 118.8 190.8 121.2C185.6 125.2 184.4 128.8 185.8 136.5C187.6 145.8 187.3 175.5 185.4 184.8C183.5 194.3 179.8 202.1 174.4 207.7C170.8 211.5 169.8 212.0 165.9 212.0C156.0 212.0 142.8 202.3 138.9 192.1C137.8 189.0 135.2 180.4 133.3 173.0C130.2 161.2 129.7 157.1 128.8 140.0C128.3 129.3 127.7 116.1 127.7 110.7C127.5 101.0 127.5 100.8 124.4 98.0C118.4 92.7 107.5 93.4 98.4 99.7C85.1 108.9 81.8 110.8 75.0 112.8C62.7 116.5 58.3 119.3 46.3 131.0C36.6 140.5 34.9 142.7 33.5 147.2C31.8 153.1 31.5 170.1 33.1 176.9C35.9 189.1 56.4 215.1 65.5 218.0C67.7 218.7 73.0 221.0 77.3 223.2C91.1 230.1 87.5 229.9 188.3 229.9C279.1 230.0 287.4 229.7 299.0 226.4C303.8 225.0 305.7 223.6 314.0 215.2C319.3 209.8 325.6 203.8 328.2 201.8C331.8 198.8 334.3 195.3 339.4 185.6C348.6 168.2 348.4 165.0 337.2 147.5C334.6 143.4 333.9 141.0 333.4 135.5C333.1 131.6 331.9 124.4 330.7 119.5C327.9 107.2 327.6 84.8 330.3 77.8C332.6 71.9 337.6 67.3 347.6 62.1C364.6 53.3 366.6 49.2 357.0 42.8C350.6 38.6 345.4 36.9 342.0 38.2C342.0 38.2 342.0 38.2 342.0 38.2Z"/>
</g>
</svg>