<!DOCTYPE svg PUBLIC "-//W3C//DTD SVG 20010904//EN" "http://www.w3.org/TR/2001/REC-SVG-20010904/DTD/svg10.dtd">
<svg xmlns="http://www.w3.org/2000/svg" version="1.0" width="215.000000pt" height="350.000000pt" viewBox="0 0 215.000000 350.000000" preserveAspectRatio="xMidYMid meet">
<metadata>
Created by potrace 1.13, written by Peter Selinger 2001-2015
</metadata>
<g fill="#000000" stroke="none">
<path d="M139.0 41.6C126.5 44.1 117.4 47.0 105.3 52.1C80.7 62.6 71.1 71.1 60.4 92.2C58.9 95.1 55.1 101.8 51.9 107.1C45.2 118.2 42.8 125.7 40.6 143.8C38.6 159.2 38.6 164.1 40.5 187.7C42.2 208.5 44.1 220.7 47.0 227.9C55.8 250.4 81.9 277.2 103.8 286.4C117.5 292.2 130.7 293.6 156.0 292.1C173.7 291.0 187.3 288.8 199.1 285.0C202.6 283.8 207.6 282.6 210.3 282.3C210.3 282.3 215.0 281.7 215.0 281.7C215.0 281.7 215.0 163.4 215.0 163.4C215.0 163.4 215.0 45.0 215.0 45.0C215.0 45.0 211.8 45.0 211.8 45.0C210.0 45.0 204.7 44.3 200.0 43.5C191.6 42.0 144.4 40.5 139.0 41.6C139.0 41.6 139.0 41.6 139.0 41.6M180.3 91.1C187.8 94.0 194.2 99.7 197.5 106.5C202.0 115.6 205.4 144.7 205.4 173.5C205.4 194.5 205.2 197.6 202.8 208.7C198.9 227.1 194.2 235.7 185.6 240.3C182.2 242.1 179.9 242.5 171.5 242.5C162.6 242.5 160.8 242.2 155.3 239.6C144.2 234.5 137.4 225.2 132.6 208.6C128.9 195.9 127.7 181.9 128.3 156.7C128.9 133.0 130.2 124.8 135.3 113.6C138.2 107.3 147.7 96.8 153.7 93.3C163.5 87.6 169.8 87.1 180.3 91.1C180.3 91.1 180.3 91.1 180.3 91.1Z"/>
</g>
</svg>