<!DOCTYPE svg PUBLIC "-//W3C//DTD SVG 20010904//EN" "http://www.w3.org/TR/2001/REC-SVG-20010904/DTD/svg10.dtd">
<svg xmlns="http://www.w3.org/2000/svg" version="1.0" width="417.000000pt" height="310.000000pt" viewBox="0 0 417.000000 310.000000" preserveAspectRatio="xMidYMid meet">
<metadata>
Created by potrace 1.13, written by Peter Selinger 2001-2015
</metadata>
<g fill="#000000" stroke="none">
<path d="M0.0 61.1C0.0 61.1 0.0 122.2 0.0 122.2C0.0 122.2 5.3 121.5 5.3 121.5C13.5 120.5 25.1 117.1 29.7 114.4C33.2 112.4 34.6 110.6 37.9 103.6C42.7 93.6 54.3 80.0 63.5 73.8C69.4 69.8 69.6 69.8 77.0 70.3C86.5 70.9 94.7 74.0 99.9 79.0C106.2 85.1 106.2 87.6 99.9 101.5C93.9 114.7 90.3 119.4 82.0 125.0C74.8 129.9 73.4 131.7 67.0 144.2C60.7 156.4 60.0 161.4 62.8 174.0C63.9 178.7 66.1 188.9 67.8 196.8C72.6 219.1 73.9 220.8 92.4 229.6C99.6 233.0 101.5 233.5 111.4 234.1C118.8 234.6 124.5 235.5 128.5 237.0C140.1 241.2 141.7 241.5 145.8 240.3C147.8 239.6 153.3 238.0 157.9 236.6C163.5 234.8 168.5 234.0 173.4 234.0C177.3 234.0 186.1 233.1 193.0 232.0C215.1 228.4 219.2 227.9 239.5 227.0C261.7 226.0 267.0 225.0 280.0 219.0C289.8 214.5 296.6 212.8 301.0 213.6C302.7 214.0 306.2 216.2 308.8 218.5C315.4 224.4 316.9 225.0 325.3 225.0C334.1 225.0 337.3 224.0 354.5 215.6C368.2 208.8 374.4 204.3 378.1 198.3C380.4 194.7 380.4 194.0 380.1 173.3C379.9 155.1 379.5 150.4 377.4 141.3C373.9 125.7 372.3 124.5 352.5 122.0C347.6 121.4 338.3 119.9 332.0 118.8C322.1 117.0 316.9 116.8 294.5 116.9C259.5 117.1 252.5 116.3 236.9 110.2C220.9 104.0 215.4 102.5 198.8 100.1C183.5 97.9 178.1 95.9 171.2 90.1C168.6 88.0 162.2 83.9 157.0 81.0C146.0 74.9 141.8 71.9 133.5 64.0C130.2 60.8 124.2 56.4 120.3 54.1C114.9 51.0 111.6 48.2 107.6 43.1C104.5 39.3 101.0 35.3 99.6 34.3C98.3 33.2 92.5 31.1 86.8 29.6C73.7 26.0 72.2 25.2 66.7 18.8C61.5 12.6 59.4 8.8 58.5 3.7C58.5 3.7 57.8 0.0 57.8 0.0C57.8 0.0 28.9 0.0 28.9 0.0C28.9 0.0 0.0 0.0 0.0 0.0C0.0 0.0 0.0 61.1 0.0 61.1C0.0 61.1 0.0 61.1 0.0 61.1Z"/>
</g>
</svg>