<!DOCTYPE svg PUBLIC "-//W3C//DTD SVG 20010904//EN" "http://www.w3.org/TR/2001/REC-SVG-20010904/DTD/svg10.dtd">
<svg xmlns="http://www.w3.org/2000/svg" version="1.0" width="471.000000pt" height="767.000000pt" viewBox="0 0 471.000000 767.000000" preserveAspectRatio="xMidYMid meet">
<metadata>
Created by potrace 1.13, written by Peter Selinger 2001-2015
</metadata>
<g fill="#000000" stroke="none">
<path d="M169.7 38.0C158.0 41.0 148.4 48.4 143.6 58.1C137.2 71.2 138.2 86.5 146.5 103.0C154.9 119.7 194.9 175.1 206.0 185.3C214.1 192.9 221.8 196.5 229.6 196.5C234.6 196.5 236.3 196.0 239.1 193.9C243.6 190.5 247.5 183.1 249.0 175.2C251.7 161.7 248.9 131.2 241.5 91.0C238.8 76.5 232.8 64.4 223.2 53.9C212.8 42.6 202.2 38.1 184.5 37.4C178.5 37.2 171.8 37.5 169.7 38.0C169.7 38.0 169.7 38.0 169.7 38.0Z"/>
<path d="M185.1 261.1C169.2 262.6 139.3 271.3 124.6 278.7C109.5 286.2 94.2 297.7 85.3 308.1C78.7 315.9 71.5 327.2 69.0 333.8C51.1 381.3 83.9 428.9 134.5 429.0C144.4 429.0 152.2 427.1 161.1 422.4C169.7 417.9 176.2 411.0 180.5 401.7C185.7 390.8 187.1 380.6 186.9 355.0C186.7 332.8 187.3 328.2 191.1 320.9C193.5 316.0 199.2 311.5 204.6 310.0C207.2 309.2 212.4 308.9 217.7 309.2C225.2 309.6 227.5 310.2 233.0 313.0C246.7 319.9 257.4 334.6 264.4 356.1C269.6 372.0 270.5 379.0 270.4 402.5C270.4 420.9 270.2 424.6 268.2 432.5C262.9 453.5 253.0 466.3 235.6 474.6C219.4 482.3 210.5 484.0 181.5 485.1C152.4 486.2 144.3 487.4 127.0 493.7C100.1 503.4 90.6 509.4 71.5 528.5C58.0 542.0 52.7 549.7 45.8 565.6C38.1 583.6 34.9 610.5 38.4 627.9C40.7 638.9 46.1 654.3 52.5 667.7C57.1 677.5 59.0 680.1 66.7 688.1C79.0 700.8 90.0 708.9 106.5 717.0C119.9 723.6 130.4 727.3 143.5 730.2C153.5 732.3 182.1 731.8 197.3 729.1C214.1 726.2 219.2 724.4 237.5 715.0C272.3 697.3 281.6 697.7 316.8 718.4C326.4 724.0 350.9 733.6 363.5 736.7C373.5 739.2 402.9 739.1 411.9 736.6C425.3 732.9 435.5 725.6 438.7 717.2C441.1 710.8 441.0 700.9 438.3 695.0C435.7 689.1 429.0 681.7 421.5 676.3C410.2 668.0 404.2 661.3 399.5 651.5C394.3 640.6 393.3 636.3 391.9 616.7C390.7 600.5 391.7 567.9 394.5 531.0C396.8 501.3 397.2 479.1 396.1 454.5C393.6 397.7 385.6 367.2 364.5 333.5C351.7 313.2 334.2 298.4 302.0 280.8C284.0 271.0 259.3 263.4 237.8 261.0C226.8 259.9 197.6 259.9 185.1 261.1C185.1 261.1 185.1 261.1 185.1 261.1M238.7 519.8C255.1 524.9 262.6 537.3 263.7 561.0C264.6 580.5 260.5 610.3 254.6 626.5C250.4 638.2 242.0 652.0 234.9 659.1C227.0 667.0 220.1 670.6 209.5 672.1C191.6 674.8 177.8 667.3 169.7 650.7C161.9 634.7 159.5 622.0 160.3 600.0C161.1 576.8 164.3 564.9 173.4 551.1C189.7 526.6 217.6 513.3 238.7 519.8C238.7 519.8 238.7 519.8 238.7 519.8Z"/>
</g>
</svg>