<!DOCTYPE svg PUBLIC "-//W3C//DTD SVG 20010904//EN" "http://www.w3.org/TR/2001/REC-SVG-20010904/DTD/svg10.dtd">
<svg xmlns="http://www.w3.org/2000/svg" version="1.0" width="471.000000pt" height="754.000000pt" viewBox="0 0 471.000000 754.000000" preserveAspectRatio="xMidYMid meet">
<metadata>
Created by potrace 1.13, written by Peter Selinger 2001-2015
</metadata>
<g fill="#000000" stroke="none">
<path d="M207.7 43.4C202.2 44.9 199.4 47.2 193.5 55.6C182.3 71.2 179.8 77.4 177.1 95.6C175.9 103.2 173.9 113.5 172.6 118.5C169.3 130.7 168.6 136.9 170.0 141.9C171.3 146.8 172.6 147.5 183.0 148.4C194.9 149.5 199.8 151.3 206.5 157.0C209.8 159.8 215.0 163.5 218.0 165.2C221.0 166.9 227.1 172.0 231.5 176.5C240.7 185.9 243.3 187.0 257.3 187.0C272.1 187.0 279.7 182.5 281.9 172.3C283.0 167.0 282.1 160.8 278.2 147.4C277.1 143.6 275.6 137.8 275.0 134.5C274.3 131.2 271.6 123.8 269.0 118.0C257.2 91.8 254.9 85.2 253.0 71.5C251.5 61.3 250.1 58.7 244.2 55.4C241.6 53.9 237.3 51.2 234.5 49.4C224.8 43.0 216.2 41.1 207.7 43.4C207.7 43.4 207.7 43.4 207.7 43.4Z"/>
<path d="M177.5 240.4C159.6 244.0 155.9 245.1 148.0 249.0C145.0 250.5 138.1 252.9 132.6 254.4C119.7 257.8 117.0 259.2 110.2 265.9C107.1 269.0 100.9 274.0 96.4 277.2C87.8 283.2 78.4 292.8 74.2 299.9C66.3 313.4 62.9 340.7 67.4 355.0C68.7 359.2 76.1 375.5 81.3 385.9C84.1 391.5 101.6 409.9 108.1 414.0C114.9 418.4 118.8 418.7 129.5 415.6C144.8 411.2 159.9 402.4 168.2 393.1C173.8 386.8 182.3 373.2 184.0 367.5C184.8 364.9 185.5 352.3 185.9 332.0C185.9 332.0 186.5 300.5 186.5 300.5C186.5 300.5 189.8 293.7 189.8 293.7C193.7 285.9 200.6 279.9 208.0 277.9C211.8 276.9 213.4 277.0 218.4 278.4C223.8 280.0 225.5 281.3 236.7 292.3C243.5 299.0 250.4 306.5 252.1 308.9C254.8 313.1 261.0 330.6 264.5 344.0C268.4 358.9 271.7 397.9 270.0 408.3C269.5 411.3 267.7 417.2 266.0 421.3C263.2 428.0 261.5 430.2 250.2 441.8C243.2 448.9 236.5 455.2 235.3 455.8C234.1 456.5 229.0 458.4 223.8 460.2C223.8 460.2 214.5 463.4 214.5 463.4C214.5 463.4 181.5 463.1 181.5 463.1C148.6 462.9 148.5 462.9 139.5 465.4C127.9 468.8 96.3 484.3 85.1 492.1C75.8 498.7 72.4 502.1 65.3 512.0C62.7 515.6 57.6 521.9 54.0 526.0C41.9 539.6 37.2 549.0 34.9 564.2C34.0 570.4 34.2 573.4 35.9 584.3C37.1 591.3 38.0 600.5 38.0 604.8C38.0 613.9 42.8 638.4 46.6 649.1C50.6 660.1 53.7 665.8 59.4 672.5C62.3 675.8 66.2 680.7 68.0 683.3C72.6 689.7 76.6 691.9 94.3 697.5C102.5 700.0 113.3 704.1 118.3 706.5C123.4 708.9 131.3 712.0 136.0 713.3C146.2 716.3 162.5 718.4 168.3 717.5C180.6 715.7 204.9 709.0 213.8 704.9C217.4 703.3 223.5 701.1 227.4 699.9C231.3 698.7 238.1 696.3 242.5 694.5C253.2 690.1 263.8 688.0 275.9 688.0C289.3 688.0 294.0 689.2 306.3 695.5C318.8 702.0 326.5 704.6 336.2 706.0C340.2 706.6 346.9 708.3 351.0 709.8C358.2 712.4 359.3 712.5 379.0 712.5C397.4 712.5 400.2 712.3 406.5 710.3C420.1 706.0 431.0 694.0 431.0 683.3C431.0 675.9 427.6 671.5 417.0 664.8C405.5 657.5 401.5 649.7 399.9 631.1C399.4 624.7 398.2 615.7 397.3 611.0C396.3 605.5 395.6 595.9 395.4 584.0C395.2 567.7 394.7 563.6 391.9 549.5C388.9 535.1 388.6 531.7 388.6 515.5C388.5 505.6 388.7 491.6 388.9 484.5C389.5 467.1 387.4 400.3 386.0 391.5C385.5 387.6 384.3 381.1 383.5 377.0C382.7 372.9 381.3 364.6 380.5 358.7C378.8 346.4 376.9 341.3 370.6 332.9C368.1 329.6 363.9 322.8 361.3 317.8C355.7 307.1 345.0 295.2 333.2 286.3C328.9 283.2 322.9 278.2 319.7 275.3C316.4 272.3 311.0 268.6 307.7 266.9C304.3 265.2 296.3 260.9 290.0 257.4C269.4 246.0 264.0 244.6 219.5 239.5C207.4 238.1 196.6 237.0 195.5 237.1C194.4 237.2 186.3 238.7 177.5 240.4C177.5 240.4 177.5 240.4 177.5 240.4M232.9 495.5C245.3 504.3 250.5 509.2 253.1 514.2C256.5 520.9 258.2 533.2 258.7 557.0C259.3 585.5 258.6 589.0 248.9 608.9C238.1 630.9 237.2 632.1 223.9 642.0C202.3 658.1 194.9 657.8 177.2 639.7C162.3 624.6 159.5 615.2 159.5 579.5C159.5 549.0 160.1 546.6 170.2 530.4C179.8 515.0 179.9 514.8 187.5 509.7C190.8 507.5 196.4 503.0 199.9 499.7C208.6 491.7 214.5 488.0 218.9 488.0C221.8 488.0 224.7 489.6 232.9 495.5C232.9 495.5 232.9 495.5 232.9 495.5Z"/>
</g>
</svg>