<!DOCTYPE svg PUBLIC "-//W3C//DTD SVG 20010904//EN" "http://www.w3.org/TR/2001/REC-SVG-20010904/DTD/svg10.dtd">
<svg xmlns="http://www.w3.org/2000/svg" version="1.0" width="458.000000pt" height="767.000000pt" viewBox="0 0 458.000000 767.000000" preserveAspectRatio="xMidYMid meet">
<metadata>
Created by potrace 1.13, written by Peter Selinger 2001-2015
</metadata>
<g fill="#000000" stroke="none">
<path d="M252.5 37.6C251.4 37.8 248.0 38.5 245.0 39.1C235.7 40.9 198.0 51.0 188.5 54.1C183.6 55.8 177.3 58.5 174.5 60.2C171.8 61.9 163.3 66.6 155.8 70.6C134.3 82.0 125.7 88.7 109.2 106.9C95.4 122.2 77.3 150.6 62.7 179.6C54.7 195.5 44.8 229.2 42.5 248.6C41.7 255.1 40.6 263.3 40.0 266.8C37.7 280.5 37.7 288.3 39.9 305.6C46.8 358.4 50.3 371.8 65.4 403.2C75.9 424.9 80.5 432.6 92.0 447.4C101.3 459.4 105.5 463.5 113.5 468.6C116.8 470.6 123.1 475.1 127.5 478.5C137.9 486.6 143.6 489.9 154.5 494.4C159.5 496.4 166.0 499.9 169.0 502.0C172.0 504.2 178.3 508.5 183.0 511.6C193.3 518.4 198.5 523.2 201.1 528.3C205.2 536.2 206.1 573.9 202.6 591.0C200.5 600.9 194.7 612.4 185.4 624.6C176.4 636.4 175.1 638.9 171.6 649.8C167.2 663.8 168.4 672.0 177.2 686.8C181.6 694.3 193.4 706.1 199.1 708.7C206.8 712.3 217.6 714.1 235.5 714.7C255.9 715.3 261.4 714.3 275.2 707.4C287.9 701.0 294.6 696.3 301.5 688.9C308.5 681.2 312.2 673.6 315.5 659.6C319.5 642.5 320.2 636.3 319.1 627.1C317.9 617.5 312.2 599.9 308.4 593.8C305.8 589.6 296.2 578.1 284.8 565.2C277.1 556.7 271.9 546.2 271.3 537.8C270.6 530.0 272.1 526.7 278.2 521.7C284.6 516.6 287.5 515.4 304.0 511.0C312.2 508.8 321.1 506.1 323.7 505.1C335.6 500.4 352.3 491.6 361.0 485.4C379.5 472.2 381.3 470.3 398.1 444.8C405.1 434.1 417.6 411.2 421.1 402.5C424.0 395.1 424.2 393.9 423.7 386.5C422.8 375.0 420.7 369.0 416.0 364.2C407.4 355.6 393.5 356.5 382.3 366.3C377.9 370.2 375.8 374.8 369.2 395.5C366.2 404.9 362.3 414.6 359.8 419.1C347.5 440.9 345.2 444.6 341.0 448.9C338.5 451.4 332.5 456.4 327.6 460.0C320.4 465.1 315.9 467.4 305.1 471.4C291.8 476.3 291.3 476.4 280.5 476.4C267.2 476.4 259.4 474.1 242.5 465.4C227.3 457.6 224.0 455.0 213.8 443.0C203.2 430.6 202.8 429.9 194.9 408.8C184.5 381.2 183.1 371.2 181.0 313.5C180.3 291.4 181.1 246.6 182.5 239.5C182.8 237.8 183.7 228.4 184.5 218.5C188.6 168.0 189.2 164.5 196.7 142.5C202.5 125.5 205.1 121.0 213.5 112.5C227.7 98.1 245.4 91.1 267.3 91.0C291.4 91.0 302.8 98.0 306.0 115.0C307.8 124.6 306.7 127.8 296.4 143.1C291.2 150.7 284.0 163.0 280.3 170.5C274.0 183.3 273.6 184.5 273.2 192.3C272.6 204.9 278.6 228.0 284.5 236.0C288.0 240.7 304.9 253.2 313.6 257.5C323.1 262.2 333.4 264.3 343.0 263.7C353.9 262.9 366.6 256.4 376.5 246.6C384.4 238.8 397.5 220.9 401.5 212.5C407.1 200.5 410.7 175.8 408.9 160.5C407.7 149.2 403.5 127.8 400.9 119.2C399.7 115.5 397.3 109.8 395.5 106.5C391.9 100.0 380.6 85.5 373.1 77.7C367.4 71.8 349.9 60.2 338.5 54.9C326.8 49.4 299.3 40.4 288.6 38.5C280.6 37.1 257.8 36.6 252.5 37.6C252.5 37.6 252.5 37.6 252.5 37.6Z"/>
</g>
</svg>