<!DOCTYPE svg PUBLIC "-//W3C//DTD SVG 20010904//EN" "http://www.w3.org/TR/2001/REC-SVG-20010904/DTD/svg10.dtd">
<svg xmlns="http://www.w3.org/2000/svg" version="1.0" width="444.000000pt" height="794.000000pt" viewBox="0 0 444.000000 794.000000" preserveAspectRatio="xMidYMid meet">
<metadata>
Created by potrace 1.13, written by Peter Selinger 2001-2015
</metadata>
<g fill="#000000" stroke="none">
<path d="M207.9 41.4C198.8 44.9 189.5 53.5 185.7 61.8C183.1 67.5 182.2 83.8 183.9 92.1C185.8 101.2 197.1 122.7 213.0 147.5C217.2 154.1 223.3 164.0 226.6 169.5C236.2 185.6 250.7 198.1 261.6 199.8C273.2 201.6 279.7 197.1 283.9 184.3C288.3 170.8 287.9 152.9 282.0 110.2C278.4 84.7 277.3 80.3 271.3 68.8C264.3 55.6 255.2 47.2 242.9 42.9C234.9 40.1 213.8 39.2 207.9 41.4C207.9 41.4 207.9 41.4 207.9 41.4Z"/>
<path d="M214.0 263.4C209.9 264.2 198.4 266.8 188.5 269.4C174.0 273.1 168.1 275.2 158.3 280.0C142.5 287.8 126.0 300.2 110.9 315.6C96.7 330.1 88.8 340.1 80.4 354.2C73.4 366.0 72.6 367.7 67.0 383.0C64.8 388.8 61.0 397.9 58.6 403.2C52.8 415.6 46.6 434.0 44.1 446.6C39.7 468.6 39.0 487.3 41.5 519.5C44.5 559.3 48.8 578.0 62.2 609.5C70.5 628.9 74.7 636.5 84.3 648.8C88.8 654.7 94.6 662.2 97.0 665.4C102.8 673.1 121.9 691.0 134.0 700.1C159.8 719.5 206.1 735.9 244.2 739.1C258.6 740.3 281.7 739.2 297.3 736.5C306.9 734.8 322.5 729.6 333.7 724.5C362.7 711.1 387.3 684.2 407.4 643.8C412.5 633.5 415.0 623.0 415.0 612.3C415.0 599.0 411.2 593.1 402.1 592.2C391.3 591.2 382.5 599.2 369.0 622.0C358.0 640.7 351.2 649.2 339.2 659.1C328.4 668.1 322.0 671.9 308.0 677.8C294.6 683.5 284.0 685.3 264.0 685.4C243.8 685.4 235.4 683.8 222.1 677.3C199.4 666.1 181.0 639.9 174.5 609.2C167.7 576.5 165.5 533.5 169.7 515.3C173.4 499.8 178.2 493.2 189.7 487.8C201.3 482.3 214.4 480.7 247.0 480.6C271.3 480.5 277.8 480.8 291.0 482.7C299.5 483.9 310.6 485.2 315.5 485.5C320.5 485.9 329.5 486.9 335.5 487.8C350.8 490.0 375.5 490.0 383.9 487.7C392.7 485.3 399.4 481.4 404.5 475.8C414.2 465.0 416.5 454.6 415.7 425.5C414.9 394.5 412.1 379.9 402.2 355.4C396.2 340.5 389.9 329.8 379.4 316.6C370.6 305.5 366.3 301.6 352.0 291.7C334.7 279.8 323.7 274.7 301.5 268.4C301.5 268.4 281.5 262.6 281.5 262.6C281.5 262.6 251.5 262.4 251.5 262.4C230.2 262.2 219.3 262.5 214.0 263.4C214.0 263.4 214.0 263.4 214.0 263.4M247.6 306.1C260.8 307.9 270.7 312.8 280.8 322.4C293.4 334.3 298.2 347.0 301.1 375.6C303.1 395.7 300.0 413.8 292.6 424.8C288.1 431.5 278.9 438.5 271.1 441.2C265.0 443.3 262.9 443.5 243.5 443.4C218.9 443.3 209.4 441.8 198.5 436.6C182.5 429.0 176.4 419.5 174.5 399.0C173.8 391.1 175.4 373.3 177.6 364.7C179.7 356.2 186.0 343.2 191.7 335.2C204.3 317.4 216.4 308.8 232.8 306.0C239.5 304.9 239.1 304.9 247.6 306.1C247.6 306.1 247.6 306.1 247.6 306.1Z"/>
</g>
</svg>