<!DOCTYPE svg PUBLIC "-//W3C//DTD SVG 20010904//EN" "http://www.w3.org/TR/2001/REC-SVG-20010904/DTD/svg10.dtd">
<svg xmlns="http://www.w3.org/2000/svg" version="1.0" width="444.000000pt" height="767.000000pt" viewBox="0 0 444.000000 767.000000" preserveAspectRatio="xMidYMid meet">
<metadata>
Created by potrace 1.13, written by Peter Selinger 2001-2015
</metadata>
<g fill="#000000" stroke="none">
<path d="M284.0 40.5C274.5 43.2 267.8 47.0 261.0 53.9C248.0 66.9 242.4 83.3 233.9 132.0C229.9 154.5 229.4 171.6 232.3 179.2C234.3 184.3 239.5 189.6 243.6 190.6C247.9 191.7 256.4 190.5 261.6 188.0C272.8 182.6 307.7 143.1 325.6 115.6C336.1 99.3 339.9 82.7 336.6 67.7C333.7 54.9 326.6 46.7 314.3 41.9C306.8 39.0 292.0 38.3 284.0 40.5C284.0 40.5 284.0 40.5 284.0 40.5Z"/>
<path d="M239.0 261.6C219.8 263.2 192.9 268.4 177.2 273.6C132.0 288.4 88.6 328.9 68.0 375.5C54.3 406.5 49.0 422.3 44.0 446.9C39.4 469.6 38.4 484.3 39.8 510.0C41.7 544.2 45.0 562.8 53.9 589.9C73.3 648.6 115.9 697.3 168.0 720.0C178.0 724.4 205.8 733.7 214.3 735.5C271.4 747.8 334.0 734.1 367.4 702.1C386.3 683.9 407.0 651.1 414.2 628.0C417.1 618.4 417.4 604.2 414.8 599.3C412.2 594.6 407.5 591.7 401.5 591.2C396.0 590.8 392.5 592.0 386.1 596.8C382.7 599.3 372.0 615.1 362.5 631.6C352.8 648.5 335.7 663.6 314.5 674.0C307.9 677.3 299.2 680.8 295.2 681.9C278.9 686.3 256.7 687.0 241.1 683.5C216.1 677.8 196.5 661.3 184.6 635.8C179.1 624.1 176.7 616.4 173.6 600.2C169.5 579.2 167.7 558.9 168.3 538.5C168.8 519.1 169.7 514.5 175.1 503.9C180.0 494.1 189.7 487.5 203.7 484.4C222.5 480.3 275.3 481.8 317.5 487.6C369.5 494.8 392.4 492.2 405.9 477.5C414.9 467.7 418.4 455.2 418.3 432.0C418.3 415.5 415.7 394.8 411.9 379.5C400.8 336.0 372.7 299.9 335.0 281.0C319.8 273.4 299.3 266.9 280.0 263.6C271.3 262.1 247.0 260.9 239.0 261.6C239.0 261.6 239.0 261.6 239.0 261.6M255.6 311.0C259.9 312.1 265.9 314.5 268.9 316.3C276.6 320.8 286.9 331.4 290.7 338.5C302.4 360.8 304.4 402.7 294.6 421.8C290.3 430.2 280.6 437.5 268.5 441.3C262.3 443.3 259.3 443.5 242.0 443.5C219.6 443.5 211.0 442.1 199.3 436.6C189.5 431.9 183.8 426.4 179.2 417.2C179.2 417.2 175.5 409.6 175.5 409.6C175.5 409.6 175.6 392.5 175.6 392.5C175.7 377.5 176.0 374.4 178.4 365.5C182.2 351.1 188.5 339.0 197.0 329.7C213.6 311.8 233.6 305.4 255.6 311.0C255.6 311.0 255.6 311.0 255.6 311.0Z"/>
</g>
</svg>