<!DOCTYPE svg PUBLIC "-//W3C//DTD SVG 20010904//EN" "http://www.w3.org/TR/2001/REC-SVG-20010904/DTD/svg10.dtd">
<svg xmlns="http://www.w3.org/2000/svg" version="1.0" width="700.000000pt" height="983.000000pt" viewBox="0 0 700.000000 983.000000" preserveAspectRatio="xMidYMid meet">
<metadata>
Created by potrace 1.13, written by Peter Selinger 2001-2015
</metadata>
<g fill="#000000" stroke="none">
<path d="M392.1 38.1C378.0 40.9 373.1 43.8 363.6 55.4C361.5 58.0 357.3 62.0 354.2 64.3C351.2 66.6 346.6 71.3 343.9 74.8C341.3 78.3 336.3 83.2 332.8 85.8C327.8 89.6 325.9 91.8 323.3 97.0C318.1 107.4 317.7 113.0 320.6 132.7C321.9 141.9 323.3 156.9 323.6 166.0C324.3 184.1 325.2 187.0 330.3 189.1C335.9 191.4 351.5 186.7 359.8 180.2C361.9 178.6 366.7 175.5 370.5 173.2C378.7 168.5 380.4 166.8 386.0 157.5C388.3 153.6 391.9 148.7 394.0 146.4C396.1 144.1 400.3 137.4 403.4 131.4C407.2 123.9 411.4 117.6 416.8 111.4C425.6 101.2 427.0 97.6 429.0 82.1C430.1 72.5 428.9 58.8 426.2 50.5C424.2 44.6 421.3 42.6 410.7 40.0C400.5 37.4 397.1 37.1 392.1 38.1C392.1 38.1 392.1 38.1 392.1 38.1Z"/>
<path d="M313.0 246.2C304.4 247.0 302.3 247.9 295.6 253.9C291.2 257.6 288.5 259.2 284.7 260.0C281.2 260.8 265.4 261.0 236.0 260.8C236.0 260.8 192.5 260.5 192.5 260.5C192.5 260.5 179.3 254.8 179.3 254.8C158.5 245.7 161.1 246.0 108.0 246.0C53.5 246.0 57.8 245.1 51.2 257.6C49.0 262.0 46.0 267.0 44.6 268.9C40.9 273.8 41.2 277.6 45.7 283.8C47.8 286.6 51.1 291.4 53.0 294.5C58.0 302.7 59.3 303.2 74.8 304.1C86.3 304.7 88.9 305.2 93.5 307.5C100.2 310.7 104.5 315.5 108.6 324.5C115.3 339.2 115.1 337.1 115.0 384.1C114.9 432.0 114.8 433.3 108.1 441.7C102.7 448.6 102.0 450.2 102.0 456.2C102.0 462.7 103.6 468.5 108.7 481.5C110.9 487.0 113.2 493.6 113.8 496.1C114.7 499.5 115.0 550.1 115.0 678.3C115.1 854.5 115.1 856.0 113.1 859.9C112.0 862.1 108.6 866.7 105.6 870.3C102.5 873.9 98.5 879.5 96.5 882.8C94.6 886.2 91.6 889.9 89.9 891.0C87.0 893.1 77.7 895.3 60.2 897.9C56.1 898.5 50.6 900.0 47.9 901.2C32.0 908.0 29.3 929.2 43.2 937.0C43.2 937.0 47.0 939.1 47.0 939.1C47.0 939.1 200.8 939.0 200.8 939.0C348.6 938.9 354.9 938.9 362.6 937.0C375.0 934.1 393.9 931.7 399.8 932.4C402.7 932.7 409.4 934.4 414.8 936.2C424.4 939.3 424.7 939.3 444.5 939.3C461.8 939.2 466.2 938.9 477.0 936.6C499.3 932.1 505.1 931.7 542.3 932.2C542.3 932.2 577.2 932.7 577.2 932.7C577.2 932.7 582.8 930.0 582.8 930.0C590.6 926.2 602.2 915.3 605.4 908.7C606.8 905.9 609.2 899.2 610.7 894.0C610.7 894.0 613.4 884.5 613.4 884.5C613.4 884.5 613.9 825.5 613.9 825.5C614.6 759.1 614.0 764.0 622.9 746.1C625.0 741.9 628.2 734.2 630.1 729.0C633.0 720.9 634.2 718.8 638.4 715.0C652.1 702.3 653.6 700.1 657.2 686.5C658.7 680.9 658.0 678.7 651.1 668.4C642.0 654.5 636.8 650.9 626.5 650.9C620.2 650.9 616.0 652.8 607.2 659.9C599.4 666.2 598.0 666.9 586.0 670.9C574.1 674.8 570.9 676.8 566.6 682.8C564.7 685.4 561.3 689.0 559.1 690.8C552.1 696.4 549.9 702.3 549.0 717.5C547.9 735.7 545.0 743.5 535.7 753.7C529.7 760.1 528.4 762.4 525.0 772.3C523.3 777.1 520.8 781.2 516.2 786.7C509.7 794.6 505.6 801.7 501.9 811.7C500.0 816.6 497.6 819.4 484.5 832.5C468.0 849.0 467.7 849.2 454.5 850.5C441.0 851.9 436.6 853.7 428.0 861.5C420.5 868.1 416.0 870.3 404.5 873.1C393.9 875.6 389.1 877.9 383.0 883.3C375.9 889.6 370.1 891.7 352.4 894.5C326.9 898.5 295.7 897.8 284.5 893.0C279.1 890.7 274.3 885.8 273.1 881.2C270.5 871.8 269.9 850.7 270.3 782.5C270.7 709.7 270.9 706.1 275.3 686.0C276.1 682.4 277.1 673.8 277.4 666.8C278.0 652.3 279.5 646.9 286.2 635.1C293.0 623.1 298.5 618.2 313.3 610.6C330.1 601.9 330.6 601.9 348.1 610.6C348.1 610.6 361.5 617.2 361.5 617.2C361.5 617.2 377.1 632.7 377.1 632.7C377.1 632.7 392.7 648.1 392.7 648.1C392.7 648.1 399.5 661.7 399.5 661.7C399.5 661.7 406.3 675.3 406.3 675.3C406.3 675.3 407.1 689.4 407.1 689.4C408.0 705.6 410.0 716.7 413.0 721.5C414.2 723.4 417.0 725.8 419.6 727.0C425.1 729.7 430.0 729.2 437.3 725.3C444.9 721.1 448.4 713.8 454.0 690.1C456.8 678.6 457.0 676.5 457.0 657.6C457.0 635.1 457.6 631.6 464.5 616.2C470.6 602.6 472.0 593.2 472.0 566.5C472.0 540.3 471.7 539.2 462.6 527.7C460.1 524.5 457.8 520.4 457.5 518.7C457.3 516.9 456.9 502.0 456.7 485.5C456.7 485.5 456.4 455.5 456.4 455.5C456.4 455.5 452.1 442.7 452.1 442.7C445.4 422.9 441.0 418.0 430.3 418.0C420.0 418.0 414.4 425.5 409.0 446.6C406.0 458.4 397.8 477.3 392.2 485.4C388.0 491.5 368.2 508.9 362.0 511.9C356.5 514.5 356.4 514.5 332.5 514.5C303.3 514.5 299.7 513.8 293.0 507.1C287.5 501.6 279.4 485.9 278.0 478.1C277.4 475.2 277.0 464.6 277.0 454.7C277.0 437.2 276.9 436.2 273.8 425.5C270.6 414.8 270.5 414.1 270.6 396.0C270.7 366.5 274.9 344.1 283.5 326.5C290.0 313.2 292.3 310.9 305.7 304.5C312.0 301.5 319.6 297.0 322.6 294.5C329.2 289.2 331.7 288.6 346.8 289.2C357.6 289.6 359.2 290.0 367.5 293.5C383.3 300.1 392.9 302.9 405.4 304.5C419.2 306.3 425.3 307.6 428.4 309.2C429.5 309.8 435.5 313.9 441.7 318.2C453.1 326.3 457.0 330.0 462.7 338.2C464.4 340.7 468.6 344.7 471.9 346.9C475.6 349.5 482.2 355.9 488.9 363.6C497.9 373.9 500.3 377.4 502.9 383.8C504.7 388.2 508.8 395.3 512.7 400.5C521.3 412.1 522.5 415.1 525.9 432.4C530.2 453.7 531.6 455.8 545.8 462.7C552.1 465.7 554.6 466.4 559.5 466.4C569.7 466.3 578.5 461.3 582.1 453.5C583.9 449.7 584.0 445.0 584.0 363.7C584.0 293.1 583.8 277.4 582.6 274.7C581.9 272.9 578.1 268.5 574.2 264.8C570.4 261.1 565.7 256.1 564.0 253.6C558.1 245.4 567.3 246.0 436.0 245.7C371.9 245.6 316.6 245.8 313.0 246.2C313.0 246.2 313.0 246.2 313.0 246.2Z"/>
<path d="M681.9 465.5C667.3 468.4 664.4 469.9 661.9 475.5C657.8 484.7 658.5 503.2 663.2 514.3C664.9 518.2 666.9 520.4 672.7 524.7C676.7 527.6 681.5 532.1 683.2 534.6C689.1 542.9 693.4 547.0 696.8 547.6C696.8 547.6 700.0 548.2 700.0 548.2C700.0 548.2 700.0 505.6 700.0 505.6C700.0 505.6 700.0 463.0 700.0 463.0C700.0 463.0 696.8 463.1 696.8 463.1C695.0 463.1 688.3 464.2 681.9 465.5C681.9 465.5 681.9 465.5 681.9 465.5Z"/>
</g>
</svg>