<!DOCTYPE svg PUBLIC "-//W3C//DTD SVG 20010904//EN" "http://www.w3.org/TR/2001/REC-SVG-20010904/DTD/svg10.dtd">
<svg xmlns="http://www.w3.org/2000/svg" version="1.0" width="714.000000pt" height="781.000000pt" viewBox="0 0 714.000000 781.000000" preserveAspectRatio="xMidYMid meet">
<metadata>
Created by potrace 1.13, written by Peter Selinger 2001-2015
</metadata>
<g fill="#000000" stroke="none">
<path d="M164.0 39.1C128.6 46.4 121.1 48.9 117.5 55.0C115.3 58.5 113.1 61.0 105.5 68.0C102.7 70.6 99.6 74.8 98.2 77.9C95.8 83.0 95.8 83.6 97.0 90.2C97.7 94.4 100.0 100.8 103.0 106.9C110.0 121.0 111.8 127.3 113.5 142.7C114.3 150.3 116.0 163.0 117.2 171.0C120.2 190.1 120.4 224.5 117.7 238.8C116.2 247.0 116.0 255.7 116.0 321.8C116.1 382.4 116.3 396.9 117.5 403.5C118.4 407.9 119.9 417.3 121.1 424.4C123.0 436.7 123.0 437.8 121.5 447.9C119.7 460.1 118.8 463.8 115.4 473.5C109.8 489.1 109.2 497.4 108.8 559.5C108.5 620.7 108.6 622.1 113.6 632.2C114.9 634.8 116.0 638.1 116.0 639.5C116.0 640.9 113.3 647.1 110.1 653.3C106.8 659.4 102.4 668.8 100.3 674.0C100.3 674.0 96.5 683.5 96.5 683.5C96.5 683.5 96.5 704.0 96.5 704.0C96.5 727.7 96.9 729.0 104.7 733.2C107.3 734.6 115.4 737.7 122.5 740.0C138.4 745.2 147.3 745.9 167.2 743.6C184.8 741.5 198.0 741.6 215.8 743.7C227.7 745.1 231.8 745.2 241.3 744.3C254.1 743.0 283.5 736.9 291.9 733.8C303.1 729.6 308.3 721.0 306.1 710.0C304.5 702.0 299.0 691.4 293.2 684.7C286.2 676.8 283.7 672.3 279.6 659.9C276.8 651.6 275.8 646.5 275.0 636.9C274.1 626.0 273.7 624.1 271.0 619.6C262.5 605.4 262.5 605.5 262.2 584.0C261.8 562.4 262.2 559.8 268.4 542.8C274.6 525.7 275.0 521.5 275.0 476.5C275.0 453.8 275.4 433.9 276.0 430.9C279.2 413.7 292.5 400.8 312.5 395.5C315.8 394.6 325.3 393.5 333.5 393.1C350.2 392.1 354.3 391.0 365.4 384.0C372.3 379.6 379.0 373.0 379.0 370.5C379.0 364.1 371.0 356.1 356.9 348.3C343.7 341.0 340.3 340.0 325.5 339.1C309.2 338.0 303.1 336.0 296.8 329.2C287.3 318.9 287.6 320.3 286.9 287.5C286.4 261.8 286.0 256.9 283.6 244.5C279.6 223.2 278.5 205.3 280.1 187.9C280.8 180.0 281.3 171.5 281.3 169.0C281.2 166.5 281.0 158.9 280.8 152.0C280.8 152.0 280.5 139.5 280.5 139.5C280.5 139.5 284.6 131.5 284.6 131.5C286.9 127.1 289.2 121.9 289.9 120.0C291.7 114.2 296.2 110.4 307.4 104.8C317.1 100.1 318.9 98.7 328.4 89.0C336.6 80.6 339.1 77.4 340.0 74.0C342.1 66.2 338.8 57.1 332.3 52.8C325.4 48.3 323.6 47.4 313.5 43.3C296.0 36.2 292.2 35.7 258.2 36.5C220.7 37.3 221.3 37.3 198.0 36.6C179.2 36.1 178.0 36.2 164.0 39.1C164.0 39.1 164.0 39.1 164.0 39.1Z"/>
<path d="M593.6 42.6C590.4 43.4 584.5 45.8 580.6 47.9C576.7 50.1 569.7 53.5 565.1 55.4C560.5 57.4 555.6 60.0 554.2 61.2C550.4 64.8 547.0 72.8 547.0 78.5C547.0 89.2 552.7 105.1 559.0 112.3C567.4 121.9 588.9 126.9 603.6 122.5C606.3 121.8 612.6 120.2 617.6 119.1C622.8 118.0 629.1 115.8 632.1 114.1C635.1 112.5 642.2 109.7 648.0 108.0C661.9 104.0 667.9 100.9 675.0 94.4C681.7 88.2 683.3 84.4 683.2 75.9C683.0 64.7 679.6 57.9 672.1 54.1C667.4 51.7 642.7 44.4 632.6 42.5C622.8 40.6 601.6 40.7 593.6 42.6C593.6 42.6 593.6 42.6 593.6 42.6Z"/>
<path d="M424.5 50.1C417.1 52.2 407.0 64.6 407.0 71.4C407.0 77.8 415.9 88.6 423.2 90.8C433.9 94.2 459.3 95.1 465.0 92.2C471.7 88.9 474.8 78.3 471.5 70.2C465.6 56.1 440.5 45.4 424.5 50.1C424.5 50.1 424.5 50.1 424.5 50.1Z"/>
<path d="M493.9 511.3C486.5 513.0 483.9 514.8 479.1 521.9C476.9 525.1 473.2 529.3 470.8 531.1C456.6 542.0 444.5 552.9 442.3 556.8C438.5 563.2 438.7 571.0 442.8 579.3C450.3 594.5 460.4 605.4 472.0 610.9C477.3 613.4 478.5 613.5 503.0 614.4C517.0 614.8 539.5 615.2 553.0 615.2C574.3 615.2 578.6 614.9 586.3 613.1C600.5 609.7 608.7 604.3 613.2 595.2C615.4 590.8 615.5 589.3 615.5 572.0C615.5 550.9 615.1 549.2 607.4 538.4C604.9 535.0 601.8 529.3 600.4 525.9C596.7 516.9 595.3 515.0 591.9 515.0C590.3 515.0 585.7 514.0 581.7 512.8C575.0 510.8 572.0 510.7 537.0 510.4C509.6 510.2 498.0 510.4 493.9 511.3C493.9 511.3 493.9 511.3 493.9 511.3Z"/>
</g>
</svg>