<!DOCTYPE svg PUBLIC "-//W3C//DTD SVG 20010904//EN" "http://www.w3.org/TR/2001/REC-SVG-20010904/DTD/svg10.dtd">
<svg xmlns="http://www.w3.org/2000/svg" version="1.0" width="269.000000pt" height="727.000000pt" viewBox="0 0 269.000000 727.000000" preserveAspectRatio="xMidYMid meet">
<metadata>
Created by potrace 1.13, written by Peter Selinger 2001-2015
</metadata>
<g fill="#000000" stroke="none">
<path d="M139.5 38.4C127.6 44.0 125.0 46.4 119.4 56.8C116.8 61.6 113.2 67.6 111.3 70.1C108.7 73.8 107.2 78.3 102.9 95.1C97.0 118.7 94.3 126.4 89.3 133.9C85.1 140.3 84.2 145.2 86.3 150.2C90.4 160.0 103.9 163.0 121.0 158.0C126.2 156.5 134.4 156.8 144.9 159.0C155.4 161.1 158.8 163.1 164.2 170.0C166.2 172.5 171.4 177.1 175.7 180.0C180.0 182.9 185.4 187.1 187.7 189.2C194.2 195.0 195.3 194.6 206.6 182.5C212.0 176.7 216.7 171.4 217.2 170.7C218.8 168.2 217.9 162.8 214.6 154.8C212.7 150.2 210.0 142.2 208.5 137.0C207.0 131.4 203.9 124.1 201.1 119.0C195.3 108.7 194.1 105.5 189.5 87.6C184.5 68.4 180.1 60.1 167.3 45.0C156.4 32.3 153.7 31.6 139.5 38.4C139.5 38.4 139.5 38.4 139.5 38.4Z"/>
<path d="M130.2 250.1C128.4 250.6 124.2 252.8 120.9 255.0C113.9 259.5 106.4 261.5 99.4 260.6C83.9 258.7 82.1 258.7 74.8 261.1C66.4 263.8 61.5 267.7 59.9 273.0C58.3 278.3 59.7 281.8 68.0 293.4C75.5 303.9 79.9 313.9 82.3 326.0C83.7 332.6 83.8 345.5 83.1 430.5C82.3 525.4 82.3 527.6 80.2 534.0C76.4 545.8 75.8 550.3 75.1 576.0C75.1 576.0 74.3 601.5 74.3 601.5C74.3 601.5 66.2 621.5 66.2 621.5C56.6 645.0 53.8 654.8 53.6 665.0C53.5 674.4 56.6 683.6 61.6 687.9C67.7 693.3 88.6 697.5 106.0 696.8C115.1 696.4 117.3 696.0 122.5 693.5C122.5 693.5 128.5 690.5 128.5 690.5C128.5 690.5 164.5 690.0 164.5 690.0C199.4 689.5 200.6 689.4 205.1 687.2C208.0 685.8 210.4 683.7 211.6 681.5C213.2 678.4 213.3 677.4 212.2 672.3C210.6 664.8 202.5 647.9 198.8 644.3C192.7 638.5 188.0 624.9 188.0 612.9C188.0 609.3 189.6 600.6 192.2 590.2C192.2 590.2 196.4 573.5 196.4 573.5C196.4 573.5 197.0 503.0 197.0 503.0C197.0 503.0 197.6 432.5 197.6 432.5C197.6 432.5 200.2 422.0 200.2 422.0C203.6 408.2 205.0 383.1 205.0 335.7C205.0 296.4 204.3 289.8 199.1 278.5C197.6 275.2 194.8 270.9 192.9 269.1C189.1 265.2 171.4 256.4 160.0 252.6C151.5 249.8 135.5 248.4 130.2 250.1C130.2 250.1 130.2 250.1 130.2 250.1Z"/>
</g>
</svg>