<!DOCTYPE svg PUBLIC "-//W3C//DTD SVG 20010904//EN" "http://www.w3.org/TR/2001/REC-SVG-20010904/DTD/svg10.dtd">
<svg xmlns="http://www.w3.org/2000/svg" version="1.0" width="350.000000pt" height="767.000000pt" viewBox="0 0 350.000000 767.000000" preserveAspectRatio="xMidYMid meet">
<metadata>
Created by potrace 1.13, written by Peter Selinger 2001-2015
</metadata>
<g fill="#000000" stroke="none">
<path d="M114.5 36.8C111.7 37.8 106.4 40.5 102.6 42.9C93.7 48.5 88.9 50.5 76.6 53.6C62.7 57.1 58.6 59.1 55.7 63.7C42.2 85.3 41.0 87.8 41.0 94.5C41.0 104.5 43.9 125.9 46.6 135.9C50.1 148.9 53.1 155.1 57.5 158.7C64.5 164.5 88.3 172.3 99.0 172.2C102.8 172.2 106.7 171.3 111.6 169.2C115.6 167.6 125.2 164.3 133.1 162.0C151.5 156.7 154.8 154.7 159.6 146.8C166.8 134.7 170.7 132.3 181.3 133.5C192.9 134.8 195.8 137.5 201.4 152.4C206.1 164.7 208.6 166.7 229.3 173.6C250.7 180.8 252.0 181.2 258.6 180.7C266.0 180.2 275.6 176.0 279.7 171.7C284.6 166.4 296.8 148.7 298.8 143.9C302.1 136.3 303.3 128.9 302.8 118.9C302.2 105.4 300.6 102.5 286.7 90.5C273.2 78.8 264.2 74.1 249.2 71.0C237.6 68.5 236.3 68.6 223.0 72.5C211.1 76.0 207.2 78.0 199.8 84.1C196.6 86.8 192.8 89.3 191.4 89.6C185.0 91.2 173.6 86.6 167.6 80.0C165.8 78.0 162.9 72.8 161.0 68.4C152.7 48.3 146.8 40.6 137.2 37.0C130.6 34.5 121.3 34.4 114.5 36.8C114.5 36.8 114.5 36.8 114.5 36.8Z"/>
<path d="M137.2 258.1C131.9 260.8 129.7 263.6 122.4 277.4C122.4 277.4 116.6 288.3 116.6 288.3C116.6 288.3 117.9 301.4 117.9 301.4C118.6 308.6 119.8 318.4 120.6 323.2C121.8 330.2 122.1 345.1 122.2 397.7C122.2 397.7 122.4 463.5 122.4 463.5C122.4 463.5 119.6 470.4 119.6 470.4C115.6 480.6 114.0 489.8 114.0 502.7C114.0 509.0 113.3 519.0 112.4 524.9C111.3 532.4 110.9 539.4 111.3 549.0C111.8 561.2 112.3 564.4 117.0 582.0C122.0 600.8 122.2 601.9 121.7 611.6C121.3 620.5 120.8 622.8 117.6 630.3C115.6 635.0 112.8 643.0 111.4 648.1C108.2 660.5 106.5 664.5 102.3 670.4C100.4 673.1 97.0 678.9 94.9 683.4C91.6 690.1 91.0 692.4 91.0 697.7C91.0 704.2 92.8 710.0 95.8 713.3C99.5 717.4 102.8 718.1 128.3 720.2C149.5 721.8 159.6 722.1 191.5 721.7C232.4 721.2 237.9 720.6 247.7 715.6C255.2 711.9 258.6 708.6 261.9 701.8C266.5 692.8 265.8 685.4 259.1 669.5C257.5 665.6 253.6 654.7 250.6 645.2C245.3 628.8 245.0 627.2 244.4 614.7C243.7 598.4 240.5 573.1 237.9 562.8C236.1 555.5 236.0 551.0 236.0 468.3C236.0 468.3 236.0 381.5 236.0 381.5C236.0 381.5 238.5 366.0 238.5 366.0C244.0 332.1 244.1 308.8 238.8 294.1C235.9 286.0 231.6 281.1 222.7 275.8C213.2 270.1 209.8 268.6 195.5 264.5C180.5 260.1 164.5 257.1 151.5 256.4C142.5 255.9 141.1 256.1 137.2 258.1C137.2 258.1 137.2 258.1 137.2 258.1Z"/>
<path d="M0.0 486.1C0.0 504.2 0.2 519.0 0.5 519.0C3.1 519.0 7.5 515.2 9.1 511.5C12.5 503.8 14.2 476.6 11.9 466.0C10.7 460.1 7.3 455.6 3.0 454.1C3.0 454.1 0.0 453.1 0.0 453.1C0.0 453.1 0.0 486.1 0.0 486.1C0.0 486.1 0.0 486.1 0.0 486.1Z"/>
</g>
</svg>