<!DOCTYPE svg PUBLIC "-//W3C//DTD SVG 20010904//EN" "http://www.w3.org/TR/2001/REC-SVG-20010904/DTD/svg10.dtd">
<svg xmlns="http://www.w3.org/2000/svg" version="1.0" width="471.000000pt" height="714.000000pt" viewBox="0 0 471.000000 714.000000" preserveAspectRatio="xMidYMid meet">
<metadata>
Created by potrace 1.13, written by Peter Selinger 2001-2015
</metadata>
<g fill="#000000" stroke="none">
<path d="M267.0 40.0C253.3 42.4 248.1 47.5 232.6 73.3C221.9 91.2 206.2 122.6 204.5 129.5C202.6 137.1 202.5 152.6 204.4 157.1C209.2 168.5 218.4 172.0 230.5 167.0C235.3 165.0 238.2 164.5 245.0 164.5C252.6 164.5 254.2 164.9 260.2 167.8C269.7 172.4 277.1 179.5 280.4 187.2C285.8 199.3 287.0 201.7 290.6 205.8C292.5 208.1 294.7 210.0 295.5 210.0C300.3 210.0 326.5 188.8 329.5 182.3C331.7 177.8 333.2 168.3 333.2 158.5C333.3 148.8 330.8 139.1 324.6 125.3C320.4 115.8 317.2 106.1 313.5 91.5C309.4 75.3 297.2 49.8 291.0 44.7C286.0 40.5 275.8 38.5 267.0 40.0C267.0 40.0 267.0 40.0 267.0 40.0Z"/>
<path d="M293.0 214.1C283.8 221.4 271.2 224.9 250.0 226.0C231.5 227.0 225.3 228.3 213.0 234.0C208.3 236.1 198.0 239.8 190.0 242.1C182.0 244.4 173.9 247.1 171.9 248.1C169.9 249.1 165.6 252.9 162.5 256.5C159.3 260.1 153.0 265.7 148.6 269.0C144.1 272.2 138.7 276.7 136.5 279.0C134.3 281.4 128.5 286.3 123.5 290.0C110.4 299.8 103.2 307.3 96.5 318.0C93.3 323.2 87.9 331.4 84.5 336.1C79.6 343.0 77.3 347.7 73.0 359.1C70.1 367.0 66.6 375.7 65.2 378.5C63.8 381.2 61.4 387.5 59.9 392.5C58.4 397.4 55.5 406.2 53.5 412.0C48.4 426.7 43.2 447.2 42.5 455.5C42.0 460.6 42.5 467.3 44.5 480.4C46.5 494.4 47.1 501.2 46.8 511.9C46.2 543.6 46.2 543.3 50.9 557.5C56.4 574.2 58.7 579.0 65.5 587.9C68.6 591.9 73.0 598.4 75.3 602.3C77.6 606.2 82.7 612.9 86.7 617.2C91.5 622.3 94.9 627.1 96.9 631.5C98.6 635.1 100.8 639.2 102.0 640.7C105.7 645.4 123.4 660.1 130.9 664.6C135.0 667.1 141.8 671.8 146.1 675.1C156.3 682.9 182.1 695.6 191.5 697.5C195.4 698.2 204.2 699.2 211.1 699.6C221.7 700.1 226.1 699.9 238.8 697.9C253.1 695.7 255.0 695.7 270.7 696.7C298.4 698.6 301.3 698.0 332.5 683.0C344.2 677.3 350.9 671.6 376.1 645.5C395.1 625.9 400.6 618.7 406.5 605.2C411.2 594.6 418.4 581.1 421.9 576.2C426.3 570.0 429.0 562.2 431.9 547.1C433.6 538.7 436.5 527.0 438.4 521.1C444.1 503.2 444.5 500.5 444.5 475.5C444.5 450.1 443.4 443.1 436.5 421.0C433.5 411.5 432.3 405.5 429.1 383.5C427.4 372.1 425.5 367.2 417.1 353.1C412.7 345.7 407.0 334.8 404.4 328.9C401.0 321.0 398.3 316.4 394.1 311.5C390.9 307.8 386.2 300.6 383.5 295.2C379.6 287.5 377.0 284.0 370.9 277.9C366.7 273.6 360.7 267.0 357.5 263.1C351.6 255.8 345.6 250.6 331.5 240.8C327.1 237.7 320.6 232.1 317.0 228.5C311.2 222.5 303.1 216.2 297.5 213.2C295.9 212.4 294.9 212.6 293.0 214.1C293.0 214.1 293.0 214.1 293.0 214.1M237.5 263.1C240.8 263.6 248.6 264.5 254.8 264.9C265.5 265.7 266.5 266.0 275.7 270.6C291.3 278.5 295.0 282.5 305.9 304.2C317.9 328.0 321.0 341.0 321.0 368.7C321.0 374.6 321.7 388.5 322.5 399.5C324.8 430.9 323.1 550.5 319.9 577.0C319.2 583.2 317.9 587.8 315.0 594.0C312.9 598.7 309.7 608.1 308.0 614.9C304.9 627.8 301.6 636.1 297.9 640.8C293.0 647.1 278.2 659.4 272.0 662.4C266.3 665.1 264.3 665.5 254.9 665.8C242.3 666.3 234.0 664.5 226.5 659.8C223.8 658.1 217.7 654.4 213.0 651.6C208.4 648.8 201.5 643.6 197.7 640.1C189.3 632.2 186.5 626.5 178.1 600.9C172.3 583.1 170.2 573.0 168.5 555.5C168.2 551.6 167.1 544.7 166.2 540.0C164.7 532.6 164.5 524.2 164.6 473.0C164.7 440.8 165.2 406.4 165.8 396.5C166.7 379.3 167.0 378.0 170.9 366.6C173.1 360.0 176.1 349.2 177.6 342.6C181.0 326.7 185.3 310.9 188.5 302.5C191.1 295.6 199.0 280.8 204.2 273.3C210.4 264.2 222.5 260.5 237.5 263.1C237.5 263.1 237.5 263.1 237.5 263.1Z"/>
</g>
</svg>