<!DOCTYPE svg PUBLIC "-//W3C//DTD SVG 20010904//EN" "http://www.w3.org/TR/2001/REC-SVG-20010904/DTD/svg10.dtd">
<svg xmlns="http://www.w3.org/2000/svg" version="1.0" width="566.000000pt" height="794.000000pt" viewBox="0 0 566.000000 794.000000" preserveAspectRatio="xMidYMid meet">
<metadata>
Created by potrace 1.13, written by Peter Selinger 2001-2015
</metadata>
<g fill="#000000" stroke="none">
<path d="M248.7 37.4C243.1 39.4 237.5 43.6 228.8 52.1C219.9 60.8 217.0 66.3 216.2 75.7C215.6 83.8 217.1 91.0 223.0 108.5C229.3 127.3 230.3 129.3 237.6 137.0C241.2 140.8 245.9 147.3 248.7 152.6C251.4 157.5 256.6 165.5 260.2 170.2C263.8 174.9 267.6 181.0 268.5 183.7C273.0 196.1 275.7 200.7 281.1 205.0C288.1 210.5 297.1 215.0 301.2 215.0C305.1 215.0 307.1 213.8 316.7 205.3C326.1 197.0 328.0 192.9 328.7 180.2C329.1 172.6 328.7 168.3 327.1 160.5C325.8 154.5 324.5 143.5 324.0 133.0C322.6 108.1 321.9 104.9 313.7 81.2C305.6 57.9 304.3 55.7 295.5 51.3C292.8 49.9 287.8 46.9 284.5 44.7C275.1 38.3 268.7 36.0 260.0 36.1C255.9 36.1 250.8 36.7 248.7 37.4C248.7 37.4 248.7 37.4 248.7 37.4Z"/>
<path d="M70.5 279.9C60.1 280.4 57.7 280.9 52.8 283.3C46.5 286.4 42.1 291.4 39.3 298.8C37.2 304.4 38.3 310.4 43.3 321.4C46.0 327.1 48.9 331.1 55.3 337.8C62.6 345.5 64.2 347.9 66.8 354.6C74.4 374.3 77.0 390.8 76.9 417.9C76.9 429.8 76.5 441.7 76.0 444.5C75.5 447.2 74.6 461.9 74.1 477.0C73.0 506.3 71.7 528.9 69.8 554.0C69.1 562.5 68.6 571.1 68.6 573.0C68.6 584.8 71.3 637.3 72.1 641.0C73.2 646.1 87.7 676.2 92.4 683.0C94.0 685.5 98.2 690.4 101.5 694.0C104.8 697.6 109.0 702.6 110.9 705.1C112.7 707.7 117.4 712.1 121.3 715.0C125.3 717.9 131.9 723.7 136.0 728.0C142.8 735.0 144.3 736.1 152.0 739.0C156.7 740.8 168.1 744.1 177.5 746.5C186.8 748.8 198.6 752.0 203.5 753.4C216.6 757.4 234.0 758.0 251.3 755.1C258.3 753.9 266.6 753.0 269.7 753.0C274.2 753.0 277.2 752.1 285.3 748.4C299.4 742.0 308.3 739.8 320.5 739.8C332.8 739.8 348.7 743.2 361.0 748.4C373.2 753.6 385.2 754.9 446.0 757.1C472.5 758.1 477.9 758.0 487.0 756.7C500.3 754.7 507.3 752.1 515.1 746.3C526.2 737.9 529.5 730.5 527.1 719.5C525.3 711.4 521.9 707.2 510.4 699.1C496.7 689.4 491.1 683.1 485.3 671.1C482.8 665.8 479.0 658.6 476.9 655.0C468.9 641.1 466.4 624.2 468.0 593.2C469.0 574.4 469.8 570.3 476.6 549.5C476.6 549.5 480.5 537.5 480.5 537.5C480.5 537.5 480.4 495.0 480.4 495.0C480.4 471.6 480.0 437.1 479.5 418.2C478.9 391.9 479.1 379.9 480.1 366.7C480.9 357.2 481.5 344.5 481.5 338.5C481.5 327.6 481.5 327.4 477.2 318.5C468.3 300.1 465.6 297.4 448.9 290.2C437.0 285.2 429.5 283.6 406.5 281.5C390.7 280.0 383.5 279.9 346.9 280.8C314.9 281.6 304.5 282.2 301.9 283.3C297.8 285.0 290.9 292.2 288.1 297.9C282.2 309.5 289.1 325.6 304.4 335.5C314.5 342.1 333.1 360.8 335.9 367.1C338.9 374.1 342.3 401.1 342.4 419.5C342.4 428.3 342.0 462.7 341.4 496.0C341.4 496.0 340.3 556.5 340.3 556.5C340.3 556.5 337.2 572.5 337.2 572.5C335.5 581.3 332.2 594.6 330.0 602.0C326.5 613.4 325.7 617.5 325.1 628.5C324.4 640.1 323.9 642.5 320.7 650.9C314.0 667.9 311.6 671.4 301.0 680.0C283.6 694.1 276.5 697.1 261.1 697.2C250.8 697.2 247.7 696.4 235.8 690.3C214.9 679.6 211.3 670.2 210.4 624.5C210.0 604.1 209.5 596.7 208.0 590.0C203.3 569.1 201.5 549.1 201.5 517.5C201.5 493.8 201.9 485.3 203.2 477.0C204.4 469.8 204.9 461.5 204.8 450.5C204.6 434.4 205.6 424.7 210.1 399.0C212.7 384.4 213.4 362.7 212.2 334.5C211.1 307.4 210.6 305.8 199.0 294.6C190.8 286.6 185.5 283.6 178.0 282.6C166.2 280.9 87.5 279.0 70.5 279.9C70.5 279.9 70.5 279.9 70.5 279.9Z"/>
</g>
</svg>