<!DOCTYPE svg PUBLIC "-//W3C//DTD SVG 20010904//EN" "http://www.w3.org/TR/2001/REC-SVG-20010904/DTD/svg10.dtd">
<svg xmlns="http://www.w3.org/2000/svg" version="1.0" width="525.000000pt" height="754.000000pt" viewBox="0 0 525.000000 754.000000" preserveAspectRatio="xMidYMid meet">
<metadata>
Created by potrace 1.13, written by Peter Selinger 2001-2015
</metadata>
<g fill="#000000" stroke="none">
<path d="M276.3 39.0C263.0 41.7 251.8 53.9 241.7 77.0C231.4 100.5 226.0 111.2 220.6 118.8C210.5 133.3 205.6 146.2 205.5 159.0C205.5 168.5 207.3 174.9 211.7 179.9C218.4 187.8 225.0 187.3 240.8 177.8C252.9 170.5 260.9 168.2 269.7 169.7C277.7 171.1 285.2 174.7 293.7 181.3C304.6 189.6 315.6 195.9 324.1 198.7C331.6 201.2 332.7 201.3 338.7 200.3C352.5 197.9 359.0 190.7 359.8 176.9C360.3 167.6 359.6 165.1 351.8 149.6C348.5 143.0 342.4 129.7 338.3 120.1C325.4 89.9 324.4 87.7 320.7 80.5C315.0 69.0 303.1 50.8 298.2 45.7C294.9 42.3 292.1 40.5 288.6 39.5C283.2 37.9 282.4 37.8 276.3 39.0C276.3 39.0 276.3 39.0 276.3 39.0Z"/>
<path d="M124.0 246.6C92.1 248.0 65.9 250.1 61.0 251.6C45.0 256.4 38.5 263.4 38.6 276.0C38.6 286.3 42.0 292.3 54.9 305.5C66.7 317.6 71.1 323.9 74.6 333.6C79.6 347.4 79.6 345.1 77.1 504.5C75.8 584.7 76.2 599.5 80.5 618.4C83.0 629.6 86.0 636.7 92.7 647.7C94.8 651.1 98.1 656.7 100.0 660.2C105.3 669.5 120.4 684.8 136.5 696.8C151.9 708.4 155.1 710.0 169.0 713.7C174.2 715.0 185.5 718.5 194.0 721.3C194.0 721.3 209.5 726.4 209.5 726.4C209.5 726.4 222.5 726.4 222.5 726.4C236.9 726.3 253.2 724.3 268.5 720.6C283.1 717.0 288.8 714.6 296.8 708.6C304.7 702.6 311.1 700.0 317.9 700.0C324.3 700.0 327.9 701.1 349.0 709.5C374.6 719.8 375.7 720.0 402.0 721.0C414.4 721.5 429.2 722.4 435.0 723.1C441.7 723.8 453.7 724.1 468.0 723.7C487.4 723.3 491.3 723.0 496.4 721.2C504.2 718.4 508.2 715.1 513.5 707.2C519.5 698.2 519.5 695.9 512.9 686.4C508.2 679.7 503.4 674.9 485.8 659.8C475.3 650.8 469.8 635.8 468.0 611.0C466.2 584.9 466.9 424.0 469.0 410.0C470.1 402.4 472.4 337.0 472.3 314.0C472.3 300.2 470.2 290.1 465.4 280.2C463.2 275.8 461.1 273.6 454.1 268.4C438.8 257.0 442.8 257.7 381.5 257.0C326.1 256.5 314.4 256.9 307.0 259.5C298.9 262.4 292.6 270.4 291.4 279.4C290.1 288.9 294.3 294.1 312.1 304.7C317.8 308.1 324.4 312.5 326.8 314.5C340.7 326.4 344.4 343.2 343.9 391.5C343.7 406.9 344.0 436.1 344.4 456.5C345.2 491.2 345.1 494.4 343.1 508.5C342.0 516.7 340.8 529.8 340.4 537.5C339.1 568.4 332.9 613.2 327.4 631.0C321.5 650.2 311.5 665.8 302.7 669.5C298.4 671.3 281.8 673.0 269.1 673.0C244.6 673.0 228.9 663.4 218.5 642.3C210.7 626.2 206.3 591.5 207.5 554.5C207.8 543.3 207.6 523.8 206.9 510.1C205.8 485.5 206.6 460.2 209.1 442.5C211.0 429.0 212.9 300.9 211.3 291.0C208.4 273.0 186.2 255.0 158.8 248.5C151.9 246.9 137.1 246.1 124.0 246.6C124.0 246.6 124.0 246.6 124.0 246.6Z"/>
</g>
</svg>