<!DOCTYPE svg PUBLIC "-//W3C//DTD SVG 20010904//EN" "http://www.w3.org/TR/2001/REC-SVG-20010904/DTD/svg10.dtd">
<svg xmlns="http://www.w3.org/2000/svg" version="1.0" width="741.000000pt" height="552.000000pt" viewBox="0 0 741.000000 552.000000" preserveAspectRatio="xMidYMid meet">
<metadata>
Created by potrace 1.13, written by Peter Selinger 2001-2015
</metadata>
<g fill="#000000" stroke="none">
<path d="M204.0 36.1C200.4 37.2 193.6 38.9 188.8 40.0C177.7 42.4 175.0 43.8 166.5 51.9C162.6 55.5 155.5 60.7 150.7 63.5C145.9 66.2 138.6 70.9 134.5 73.8C130.4 76.7 124.2 80.4 120.7 82.0C113.3 85.3 109.3 89.5 105.0 98.1C100.0 108.2 89.5 121.9 78.5 132.5C68.4 142.3 68.2 142.6 65.5 151.0C61.3 164.0 57.8 171.1 52.7 176.8C50.1 179.7 47.4 183.3 46.5 185.0C43.8 190.2 41.9 202.2 41.0 219.0C40.3 232.8 39.7 236.8 37.6 242.9C35.0 250.3 35.0 250.4 35.0 283.9C35.0 313.0 35.3 318.9 36.9 327.5C38.0 333.0 39.4 342.2 40.0 347.8C41.7 363.7 43.9 369.6 51.0 377.4C57.7 384.8 59.7 388.3 63.0 398.5C66.4 409.1 68.4 412.4 74.5 417.7C77.6 420.3 82.3 425.8 84.9 430.0C90.7 438.9 101.9 451.8 107.5 455.9C109.7 457.5 115.0 460.2 119.3 462.0C123.5 463.7 130.3 467.6 134.3 470.5C143.3 477.0 147.0 478.9 159.0 482.9C165.7 485.1 171.1 487.7 177.1 491.9C190.4 500.9 196.7 502.3 225.5 502.8C252.4 503.2 257.0 502.5 279.2 493.9C291.7 489.1 305.3 485.0 309.0 485.0C309.9 485.0 313.0 484.3 315.9 483.4C319.9 482.2 323.0 480.1 329.8 473.9C338.9 465.4 348.2 459.3 357.2 455.8C361.5 454.1 364.8 453.6 374.6 453.6C374.6 453.6 386.7 453.5 386.7 453.5C386.7 453.5 396.1 458.2 396.1 458.2C401.7 461.1 408.7 465.8 413.5 469.9C421.9 477.0 425.9 479.4 434.9 482.6C438.5 483.9 442.5 486.5 446.8 490.4C454.6 497.4 456.2 498.1 475.5 503.1C483.7 505.2 493.0 507.8 496.0 508.7C500.7 510.2 506.1 510.4 532.0 510.5C560.9 510.5 563.2 510.4 576.5 507.9C584.2 506.4 593.7 504.7 597.5 504.1C611.0 501.8 612.0 501.4 620.0 493.1C627.3 485.6 627.8 485.3 639.1 481.1C651.3 476.7 653.3 475.2 661.0 465.2C662.8 462.8 667.5 458.5 671.4 455.6C677.5 451.1 679.2 449.2 682.5 442.9C686.9 434.3 690.6 428.8 697.3 420.5C703.6 412.6 705.0 407.5 705.5 390.3C706.0 373.9 704.7 361.4 701.9 355.4C697.5 346.1 686.3 336.0 680.3 336.0C675.7 336.0 673.6 337.2 666.5 344.0C663.2 347.1 659.2 350.5 657.5 351.5C652.0 354.9 648.8 358.4 645.8 364.5C644.1 367.8 640.0 374.5 636.5 379.5C628.4 391.3 616.6 411.4 614.0 417.9C607.2 435.2 602.7 440.1 589.6 444.3C583.3 446.4 579.1 448.6 573.8 452.6C563.4 460.5 559.7 461.3 538.1 460.9C518.2 460.4 518.1 460.4 510.0 452.1C506.9 448.8 502.3 445.9 495.0 442.4C479.8 435.0 475.8 430.4 466.1 408.2C459.8 393.9 458.6 386.5 459.3 366.6C460.4 337.3 464.3 318.2 472.6 301.1C478.2 289.8 484.4 283.0 491.0 281.0C494.6 279.9 512.8 279.5 578.5 279.1C668.2 278.4 662.7 278.8 673.8 273.1C679.1 270.4 695.4 254.9 698.5 249.6C703.8 240.6 706.8 220.7 705.0 206.4C703.8 196.8 699.5 182.7 693.1 167.8C691.0 162.7 688.0 154.3 686.5 149.1C683.0 136.6 682.4 135.6 673.8 127.8C668.2 122.9 665.4 119.3 662.5 113.9C660.2 109.5 656.1 104.0 651.9 99.8C648.2 96.0 643.0 89.4 640.4 85.2C632.7 72.7 630.4 70.3 619.7 63.7C614.1 60.3 606.5 54.7 602.9 51.3C594.3 43.1 590.1 41.4 576.0 40.0C569.7 39.3 560.9 38.2 556.5 37.4C543.0 34.9 527.1 33.8 513.5 34.3C502.8 34.7 498.0 35.5 486.6 38.5C470.2 42.8 466.2 44.6 459.4 51.0C453.6 56.5 450.0 58.5 437.5 63.0C426.7 67.0 423.1 69.3 418.4 75.3C414.0 80.9 408.4 83.4 396.6 85.0C382.5 86.8 376.5 85.0 366.5 76.0C359.1 69.3 355.6 67.7 340.0 64.2C329.0 61.8 323.6 59.9 311.0 54.0C288.2 43.3 283.0 42.0 262.0 41.0C247.6 40.3 242.3 39.6 232.0 37.1C217.7 33.5 213.1 33.4 204.0 36.1C204.0 36.1 204.0 36.1 204.0 36.1M263.4 76.1C278.7 81.8 280.3 83.0 286.5 92.6C289.5 97.2 294.4 103.6 297.4 106.9C307.3 117.7 309.7 125.3 311.0 151.0C312.0 169.8 313.2 174.9 319.5 188.3C325.8 201.5 327.0 207.9 327.0 229.3C327.0 249.2 326.5 251.4 320.5 257.0C318.5 258.9 315.6 262.7 314.2 265.5C314.2 265.5 311.5 270.5 311.5 270.5C311.5 270.5 310.9 311.0 310.9 311.0C309.9 368.1 308.2 378.0 293.8 411.0C281.6 439.2 280.3 440.8 268.8 442.9C259.3 444.7 232.0 445.4 219.3 444.1C199.1 442.2 195.0 438.8 188.5 419.0C187.0 414.3 183.3 405.1 180.3 398.6C174.9 387.0 174.8 386.4 174.0 374.6C173.4 365.9 172.3 359.9 170.2 353.0C167.7 344.9 167.2 341.3 166.7 328.3C166.2 313.2 166.1 312.9 161.2 298.8C158.5 290.9 155.4 282.5 154.4 280.0C153.0 276.5 152.6 272.6 152.5 261.9C152.5 261.9 152.5 248.3 152.5 248.3C152.5 248.3 157.2 242.3 157.2 242.3C164.8 232.6 166.1 228.2 167.1 208.5C167.9 191.5 168.7 184.9 171.7 171.0C172.5 166.9 173.6 158.3 174.0 151.9C174.7 139.3 174.9 138.9 183.5 126.8C185.3 124.2 187.6 119.9 188.5 117.3C192.8 105.7 195.2 101.6 202.2 94.3C213.3 82.9 217.0 80.5 229.6 77.1C235.6 75.5 241.6 73.7 243.0 73.1C247.6 71.3 252.2 72.0 263.4 76.1C263.4 76.1 263.4 76.1 263.4 76.1M543.5 85.9C545.2 86.6 552.6 93.3 560.1 100.8C579.8 120.7 580.5 123.0 579.7 168.2C579.2 199.9 578.3 206.9 573.9 211.7C570.6 215.2 565.5 217.6 558.5 219.0C549.8 220.7 507.9 221.5 492.5 220.2C477.4 218.9 471.1 217.0 466.6 212.5C462.8 208.7 461.5 204.4 459.6 189.8C458.4 180.2 457.8 178.4 454.2 172.7C446.8 160.7 446.6 157.4 453.3 148.7C455.2 146.2 457.8 141.0 459.0 137.3C462.1 127.8 465.0 123.2 471.3 117.7C475.6 114.1 478.1 110.7 482.1 103.1C491.3 85.3 494.6 83.8 522.0 84.3C533.5 84.5 541.6 85.1 543.5 85.9C543.5 85.9 543.5 85.9 543.5 85.9Z"/>
</g>
</svg>