<!DOCTYPE svg PUBLIC "-//W3C//DTD SVG 20010904//EN" "http://www.w3.org/TR/2001/REC-SVG-20010904/DTD/svg10.dtd">
<svg xmlns="http://www.w3.org/2000/svg" version="1.0" width="323.000000pt" height="175.000000pt" viewBox="0 0 323.000000 175.000000" preserveAspectRatio="xMidYMid meet">
<metadata>
Created by potrace 1.13, written by Peter Selinger 2001-2015
</metadata>
<g fill="#000000" stroke="none">
<path d="M187.0 49.0C177.4 49.4 155.8 50.3 139.0 50.9C73.6 53.3 60.0 56.1 46.4 69.5C36.3 79.6 34.1 94.2 40.8 108.1C46.3 119.7 55.6 126.2 72.4 130.5C89.6 134.9 97.6 135.3 168.5 135.4C252.9 135.5 291.6 133.2 309.4 127.0C312.7 125.9 316.3 125.0 317.6 125.0C323.2 125.0 323.0 126.5 323.0 91.9C323.0 91.9 323.0 60.0 323.0 60.0C323.0 60.0 319.6 60.0 319.6 60.0C317.7 60.0 312.5 58.9 308.2 57.5C297.8 54.2 285.2 52.4 260.0 50.6C232.4 48.6 208.1 48.1 187.0 49.0C187.0 49.0 187.0 49.0 187.0 49.0Z"/>
</g>
</svg>