<!DOCTYPE svg PUBLIC "-//W3C//DTD SVG 20010904//EN" "http://www.w3.org/TR/2001/REC-SVG-20010904/DTD/svg10.dtd">
<svg xmlns="http://www.w3.org/2000/svg" version="1.0" width="215.000000pt" height="310.000000pt" viewBox="0 0 215.000000 310.000000" preserveAspectRatio="xMidYMid meet">
<metadata>
Created by potrace 1.13, written by Peter Selinger 2001-2015
</metadata>
<g fill="#000000" stroke="none">
<path d="M88.0 39.1C75.1 42.5 60.6 50.4 53.4 58.1C48.5 63.3 43.6 71.7 40.5 80.0C38.0 86.5 37.6 88.9 37.6 98.5C37.6 110.6 38.6 115.1 43.5 125.5C48.2 135.5 54.8 143.0 69.0 154.4C87.1 169.0 92.0 176.8 92.0 191.3C92.0 200.0 89.1 208.9 80.6 225.9C72.2 242.6 70.0 249.2 70.0 257.8C70.0 263.3 70.5 265.4 72.3 268.0C76.3 273.9 79.4 275.5 86.8 275.5C98.7 275.4 110.7 268.1 124.3 252.5C138.4 236.4 147.4 221.7 163.2 188.6C181.4 150.3 183.8 132.5 175.6 95.9C172.6 82.7 169.7 76.4 161.9 66.6C143.8 43.6 113.6 32.4 88.0 39.1C88.0 39.1 88.0 39.1 88.0 39.1Z"/>
</g>
</svg>