<!DOCTYPE svg PUBLIC "-//W3C//DTD SVG 20010904//EN" "http://www.w3.org/TR/2001/REC-SVG-20010904/DTD/svg10.dtd">
<svg xmlns="http://www.w3.org/2000/svg" version="1.0" width="458.000000pt" height="781.000000pt" viewBox="0 0 458.000000 781.000000" preserveAspectRatio="xMidYMid meet">
<metadata>
Created by potrace 1.13, written by Peter Selinger 2001-2015
</metadata>
<g fill="#000000" stroke="none">
<path d="M268.5 44.1C257.5 45.5 248.8 48.6 233.1 56.5C218.9 63.6 216.3 65.6 210.7 73.2C207.2 78.0 196.1 83.5 185.5 85.7C178.3 87.2 176.1 87.2 165.8 86.0C141.7 83.3 131.6 87.0 123.5 101.7C121.5 105.4 117.4 111.1 114.3 114.4C106.9 122.7 102.5 130.9 96.7 147.5C90.9 163.9 90.5 169.4 93.9 178.3C97.8 188.2 102.7 192.5 114.7 196.4C121.2 198.6 127.5 203.0 129.6 207.2C130.7 209.2 131.4 213.9 131.8 220.7C132.4 233.7 131.1 237.6 123.2 245.3C116.1 252.4 115.7 252.7 103.5 258.9C92.7 264.3 79.7 268.5 68.5 270.1C48.0 272.9 39.0 280.1 38.7 293.6C38.7 299.2 41.1 302.7 47.1 305.7C51.3 307.8 88.7 316.9 93.3 317.0C100.1 317.2 116.6 328.3 120.1 335.1C124.4 343.6 126.2 353.5 126.7 371.5C127.1 390.1 127.5 387.9 119.6 408.9C118.2 412.5 118.0 416.7 118.1 432.9C118.1 432.9 118.3 452.5 118.3 452.5C118.3 452.5 114.5 462.0 114.5 462.0C108.7 476.5 108.6 477.2 111.5 493.4C112.9 501.2 114.7 510.7 115.5 514.6C116.7 520.1 117.0 531.2 117.0 571.0C117.0 631.4 116.8 632.4 106.1 644.8C97.5 654.8 78.0 667.7 66.6 671.1C58.5 673.5 51.4 677.7 47.0 682.6C44.4 685.7 44.0 686.8 44.0 692.2C44.0 697.9 44.2 698.5 47.8 702.0C52.3 706.6 59.6 709.0 68.7 709.0C75.5 709.0 82.6 710.3 103.5 715.2C117.8 718.5 112.8 718.4 164.0 716.4C176.8 715.9 181.0 716.1 188.0 717.5C193.6 718.7 200.7 719.3 209.0 719.3C220.1 719.3 223.2 718.9 236.5 715.6C244.8 713.5 254.2 710.8 257.5 709.5C267.6 705.4 273.5 704.6 281.0 706.0C295.7 708.8 307.9 705.5 312.5 697.6C315.5 692.4 315.6 690.8 312.8 680.6C310.0 670.0 306.1 665.8 297.6 664.0C290.3 662.5 286.2 663.4 273.4 669.5C263.2 674.4 260.1 674.8 252.3 672.5C240.3 668.9 219.5 650.5 213.9 638.6C208.2 626.5 207.9 623.9 207.0 590.5C206.4 567.6 205.8 557.0 204.4 550.0C203.0 542.3 202.6 535.6 202.7 515.5C202.8 493.6 203.2 487.5 205.9 466.8C209.1 442.4 209.8 425.9 208.1 415.9C207.5 412.9 206.4 401.7 205.5 390.9C205.5 390.9 203.9 371.2 203.9 371.2C203.9 371.2 208.9 355.9 208.9 355.9C211.6 347.4 214.8 336.5 215.9 331.6C219.5 315.9 220.9 314.9 240.8 313.9C248.9 313.5 261.4 312.3 268.5 311.3C286.2 308.8 303.1 309.0 313.4 311.8C317.8 313.0 323.8 314.0 326.7 314.0C331.6 314.0 332.3 313.7 337.5 309.0C340.5 306.2 344.0 304.0 345.2 304.0C347.5 304.0 351.5 308.1 358.8 318.0C361.4 321.5 366.8 327.1 370.8 330.3C375.6 334.2 378.8 337.8 380.4 340.9C386.0 352.0 386.9 366.5 382.7 376.5C381.3 380.0 379.5 387.4 378.6 394.0C376.7 406.7 375.4 412.1 371.6 422.5C368.2 431.7 368.3 436.2 372.0 444.3C377.0 455.4 378.1 465.4 379.0 506.0C379.7 540.2 380.0 543.3 382.4 554.5C388.2 580.5 388.2 583.7 382.7 599.5C379.8 608.0 379.2 611.4 378.7 622.1C377.9 638.6 376.7 643.7 371.9 650.7C369.8 653.9 366.3 659.0 364.3 662.0C360.4 667.8 353.1 685.2 352.3 690.8C351.6 695.4 353.9 698.3 361.4 702.0C366.8 704.7 369.6 705.3 378.8 706.1C392.3 707.2 399.4 709.7 406.2 715.7C409.0 718.1 412.3 720.6 413.7 721.1C419.8 723.4 429.7 724.0 443.8 722.8C443.8 722.8 458.0 721.6 458.0 721.6C458.0 721.6 458.0 494.4 458.0 494.4C458.0 494.4 458.0 267.2 458.0 267.2C458.0 267.2 449.3 266.6 449.3 266.6C437.1 265.8 421.2 263.4 415.4 261.5C412.7 260.6 407.5 257.8 403.9 255.3C393.3 248.2 386.0 247.7 378.3 253.7C376.2 255.4 373.4 257.3 372.1 258.0C368.9 259.6 360.1 258.7 352.0 255.9C348.7 254.8 344.9 254.1 343.7 254.4C342.5 254.7 339.0 256.7 336.1 259.0C328.3 264.8 321.3 267.1 308.5 268.1C302.5 268.6 291.0 269.7 283.0 270.6C266.6 272.4 256.7 272.1 242.7 269.0C231.9 266.6 226.0 263.9 222.5 259.8C219.0 255.7 210.6 238.9 208.6 232.1C206.6 225.2 206.5 212.3 208.5 202.9C209.3 199.0 211.1 188.4 212.5 179.3C215.1 161.8 217.3 155.2 221.4 152.5C225.9 149.5 229.6 151.3 239.0 161.1C248.4 170.9 249.8 171.6 264.8 174.5C271.4 175.8 276.1 176.1 281.3 175.6C303.3 173.6 302.4 173.6 308.3 176.3C317.0 180.3 323.9 185.1 333.3 193.8C338.2 198.3 343.3 202.3 344.7 202.6C348.0 203.5 366.6 201.2 376.0 198.9C385.7 196.4 394.7 192.2 398.6 188.2C400.4 186.4 403.5 180.9 405.9 175.2C408.7 168.7 411.8 163.3 415.0 159.5C420.4 153.1 422.7 148.8 426.7 137.2C429.3 130.0 429.4 128.4 429.5 112.0C429.5 95.3 429.4 94.3 427.0 89.5C422.7 80.9 414.4 77.5 403.9 80.0C399.2 81.2 397.6 82.4 388.5 91.6C377.6 102.7 373.8 105.0 366.3 105.0C359.1 105.0 356.0 102.6 351.0 92.9C342.6 76.7 337.5 70.8 324.6 63.1C319.8 60.2 313.3 55.4 310.1 52.4C306.9 49.4 302.5 46.2 300.4 45.3C295.7 43.4 278.9 42.7 268.5 44.1C268.5 44.1 268.5 44.1 268.5 44.1Z"/>
</g>
</svg>