<!DOCTYPE svg PUBLIC "-//W3C//DTD SVG 20010904//EN" "http://www.w3.org/TR/2001/REC-SVG-20010904/DTD/svg10.dtd">
<svg xmlns="http://www.w3.org/2000/svg" version="1.0" width="539.000000pt" height="754.000000pt" viewBox="0 0 539.000000 754.000000" preserveAspectRatio="xMidYMid meet">
<metadata>
Created by potrace 1.13, written by Peter Selinger 2001-2015
</metadata>
<g fill="#000000" stroke="none">
<path d="M309.8 37.6C274.1 40.1 261.9 43.6 231.1 60.3C206.3 73.8 202.2 76.9 180.1 99.1C163.9 115.4 149.4 134.2 136.8 155.2C126.1 173.2 121.2 184.5 110.4 216.2C103.3 237.2 96.4 251.0 88.7 260.2C78.4 272.3 76.1 275.5 72.9 282.4C70.3 287.9 69.8 290.2 69.9 296.3C69.9 305.6 72.3 312.6 81.1 329.4C90.3 347.1 91.4 352.0 91.3 376.0C91.3 389.5 90.7 399.1 89.0 411.5C86.8 427.5 86.7 431.9 86.6 488.0C86.5 529.1 86.1 550.3 85.2 556.5C83.2 571.4 82.0 583.7 81.0 600.0C79.4 627.7 75.3 636.9 54.5 660.0C41.3 674.6 37.9 680.9 37.8 690.7C37.7 702.0 44.7 710.5 57.9 715.0C64.1 717.1 65.0 717.1 125.3 716.5C215.3 715.6 224.5 714.7 234.8 705.5C241.7 699.3 244.4 693.6 243.8 686.1C243.3 679.2 241.0 674.4 232.3 662.8C213.0 636.7 210.5 624.7 210.5 557.5C210.6 510.7 212.6 399.6 214.0 372.5C215.1 349.4 216.5 342.4 222.1 332.0C230.4 316.6 236.8 311.4 255.1 305.1C261.5 302.9 268.5 300.3 270.6 299.2C276.9 296.0 282.4 294.9 286.8 295.9C292.1 297.0 315.9 312.1 326.1 320.7C340.4 332.8 343.3 340.3 345.9 371.0C347.6 390.1 346.6 476.3 344.6 491.5C343.8 498.1 343.0 507.0 343.0 511.2C343.0 515.4 342.3 524.2 341.4 530.7C339.5 545.6 339.3 552.2 340.4 574.5C341.1 590.3 341.0 594.5 339.1 609.0C335.1 639.4 333.6 642.5 310.3 665.5C288.0 687.6 286.9 690.7 297.0 701.4C302.7 707.4 307.2 710.1 322.0 716.1C322.0 716.1 332.5 720.4 332.5 720.4C332.5 720.4 369.5 721.1 369.5 721.1C400.3 721.6 408.7 722.1 419.5 723.9C434.9 726.4 453.3 726.6 463.5 724.5C477.2 721.6 491.5 712.6 495.1 704.6C497.5 699.3 497.5 690.4 495.1 684.1C494.1 681.4 488.5 671.3 482.6 661.7C466.3 634.9 463.2 625.6 462.3 600.0C461.9 587.3 462.2 581.4 464.0 567.5C466.1 551.2 466.2 546.7 466.6 463.0C466.7 414.9 467.3 365.8 467.8 354.0C468.9 330.5 467.9 310.9 465.5 303.9C460.4 289.5 446.8 278.0 431.5 275.1C412.6 271.5 358.2 271.1 335.4 274.4C320.4 276.5 305.4 279.6 294.6 282.7C281.7 286.4 278.7 285.9 260.6 277.0C242.1 268.0 236.3 262.7 229.5 248.6C221.9 232.9 221.4 225.7 226.0 197.1C227.6 186.9 229.9 170.6 231.0 161.0C233.4 140.5 234.7 135.1 240.1 125.1C251.7 103.5 268.3 90.4 292.8 83.4C304.9 80.0 318.5 80.2 326.5 84.0C333.6 87.4 341.5 95.6 345.3 103.7C345.3 103.7 348.5 110.5 348.5 110.5C348.5 110.5 348.2 132.6 348.2 132.6C347.9 150.1 348.2 156.0 349.5 161.5C354.0 180.9 368.9 200.0 386.5 208.8C394.8 213.0 402.6 214.3 416.6 213.8C427.0 213.5 429.3 213.1 434.3 210.7C451.4 202.8 469.9 181.2 476.5 161.4C481.3 147.3 481.0 122.0 475.9 109.7C459.5 70.4 414.8 42.6 360.5 38.1C338.4 36.3 329.6 36.2 309.8 37.6C309.8 37.6 309.8 37.6 309.8 37.6Z"/>
</g>
</svg>