<!DOCTYPE svg PUBLIC "-//W3C//DTD SVG 20010904//EN" "http://www.w3.org/TR/2001/REC-SVG-20010904/DTD/svg10.dtd">
<svg xmlns="http://www.w3.org/2000/svg" version="1.0" width="512.000000pt" height="754.000000pt" viewBox="0 0 512.000000 754.000000" preserveAspectRatio="xMidYMid meet">
<metadata>
Created by potrace 1.13, written by Peter Selinger 2001-2015
</metadata>
<g fill="#000000" stroke="none">
<path d="M252.5 40.5C243.2 42.9 223.1 49.8 218.9 52.0C217.6 52.7 208.9 58.0 199.6 63.8C183.0 74.1 182.5 74.6 162.1 94.9C146.8 110.2 140.6 117.1 138.0 121.8C136.1 125.2 132.1 132.2 129.2 137.2C121.6 150.2 114.4 164.7 112.5 171.1C111.6 174.1 109.3 181.2 107.4 187.0C105.6 192.8 103.6 199.7 103.0 202.5C98.4 224.1 89.6 239.9 73.2 256.0C52.0 276.8 44.6 290.6 48.0 303.0C48.9 306.4 51.0 309.2 57.7 315.9C67.6 325.7 78.7 341.8 81.5 350.5C83.4 356.2 83.5 359.5 83.4 414.5C83.1 530.8 83.1 535.1 81.6 546.0C78.9 565.5 78.7 573.6 80.5 589.4C82.8 609.9 82.3 624.4 78.8 632.8C73.4 645.8 68.0 652.7 51.4 668.1C44.2 674.7 42.0 679.9 42.0 689.9C42.0 701.2 48.4 711.1 57.7 714.4C67.2 717.8 78.9 717.4 106.5 712.9C116.6 711.3 123.5 711.0 151.0 711.0C170.9 711.0 185.2 711.5 188.0 712.1C190.5 712.7 197.0 713.3 202.5 713.3C210.7 713.3 213.6 712.9 218.4 711.0C230.0 706.5 236.2 698.0 236.4 686.2C236.6 677.2 234.5 671.9 227.8 664.3C220.7 656.1 216.7 648.1 214.6 638.0C213.2 630.8 213.0 621.3 213.1 542.9C213.1 533.7 211.8 525.6 208.3 513.6C208.3 513.6 205.8 504.7 205.8 504.7C205.8 504.7 207.4 495.1 207.4 495.1C210.8 474.7 212.0 462.4 212.0 447.2C212.0 438.2 213.1 420.1 214.5 405.0C215.9 390.4 217.3 371.7 217.6 363.5C218.5 336.9 220.1 332.2 230.9 324.1C234.8 321.2 238.0 318.5 238.0 318.0C238.0 317.4 242.3 313.6 247.6 309.4C257.4 301.6 261.0 297.3 261.0 293.2C261.0 290.0 259.9 288.2 252.7 279.1C249.3 274.9 245.0 269.3 243.3 266.7C241.3 263.8 237.4 260.3 233.3 257.6C222.9 250.9 221.9 249.3 218.9 235.7C212.9 208.5 212.5 161.4 218.1 149.5C221.7 141.9 225.5 140.2 243.6 138.4C252.4 137.5 255.7 139.5 274.2 158.1C291.3 175.1 295.3 177.9 309.0 181.6C322.8 185.3 330.3 189.9 333.5 196.7C334.5 198.7 336.4 205.6 337.7 211.9C340.1 223.0 340.2 225.7 341.1 276.5C341.8 317.2 341.7 332.4 340.8 342.0C340.1 348.9 339.7 361.5 339.9 370.0C340.7 401.1 340.5 425.8 339.2 438.5C338.1 449.0 338.1 455.7 339.0 473.0C340.7 503.0 339.8 575.7 337.7 590.2C336.8 596.1 335.6 609.3 335.0 619.6C334.2 635.8 333.7 638.9 331.7 643.4C328.9 649.6 318.7 665.8 311.9 675.1C305.8 683.4 302.0 691.5 302.0 696.3C302.0 704.6 306.0 709.3 318.0 714.9C326.7 719.0 334.6 719.9 359.0 720.0C370.3 720.1 384.2 720.5 390.0 721.0C415.2 723.3 427.8 723.3 441.0 721.1C472.8 715.6 480.7 711.1 479.6 699.2C479.1 693.2 476.8 688.3 471.0 680.6C462.6 669.5 459.0 657.5 456.6 632.9C455.7 623.9 454.3 611.5 453.4 605.5C452.3 597.6 451.8 585.1 451.7 561.0C451.5 533.2 451.1 525.6 449.5 516.3C447.6 505.2 447.6 505.1 449.8 481.8C452.4 454.9 452.5 450.5 452.2 380.0C452.1 351.1 452.2 326.1 452.5 324.5C452.8 322.8 453.4 314.6 454.0 306.2C454.9 293.7 454.8 288.7 453.6 279.2C451.6 263.3 449.6 197.3 450.4 172.0C450.8 160.7 451.8 144.5 452.7 136.0C453.6 127.5 454.4 114.4 454.4 107.0C454.5 93.8 454.4 93.3 451.4 87.5C444.7 74.2 437.1 60.9 434.1 57.2C428.6 50.1 409.5 42.0 398.5 42.0C395.6 42.0 388.7 43.3 382.9 45.1C377.2 46.8 368.6 48.6 363.9 49.1C359.2 49.5 352.2 50.7 348.4 51.6C335.7 54.6 322.9 52.4 303.0 44.0C292.7 39.6 284.3 38.0 272.0 38.1C264.3 38.1 259.1 38.7 252.5 40.5C252.5 40.5 252.5 40.5 252.5 40.5Z"/>
</g>
</svg>